<svg xmlns="http://www.w3.org/2000/svg" xmlns:xlink="http://www.w3.org/1999/xlink" version="1.1" x="0px" y="0px" viewBox="0 0 100 125" style=" stroke:deepskyblue;" xml:space="preserve"><path d="M72,46.8l-2.9-13.4c-0.1-3-6.8-6.1-19.2-6.1s-19.1,3.2-19.2,6.1l-2.9,13.4C13.3,49.2,3.6,54,3.6,59.6  c0,8.1,20.3,14.4,46.3,14.4s46.3-6.4,46.3-14.4C96.2,54,86.5,49.3,72,46.8z M28.4,50.1l0.1-0.7l0.1-0.7l0.2-0.9l0.1-0.7l0.1-0.7  l2.4-11.2c0.4,0.4,0.9,0.8,1.7,1.3c-0.1,0.9-0.3,6.3,1.3,8c0.4,0.4,0.8,0.6,1.4,0.6h0.1H36c0.3-0.1,1.6-0.5,1.7-4.1  c0.2,0.2,0.4,0.5,0.6,0.6c0.4,0.2,0.8,0.3,1.1,0.2c0.8-0.1,2.3-0.9,2.6-2.9c2.5,0.4,5.1,0.5,7.9,0.5c7.7,0,15.9-1.5,18.4-4.3  l2.4,11.2l0.1,0.7l0.1,0.7l0.2,0.9l0.1,0.7l0.1,0.7l1,4.6l0.1,0.1c0.1,0.3,0.2,0.6,0.2,0.9c0,3.5-9.1,7.2-22.7,7.2  s-22.7-3.7-22.7-7.2c0-0.3,0.1-0.6,0.2-0.9L28.4,50.1z M50,72.9c-24.4,0-45.1-6.1-45.1-13.3c0-4.8,9.3-9.2,22.8-11.5l-0.2,1  c-1.1,0.3-2.1,0.5-3.2,0.9c-0.4-0.1-0.8-0.1-1.2-0.1c-1,0-4.2,0.1-4.2,1.5c0,0.2,0.1,0.4,0.2,0.6c-3.5,1.8-5.4,3.9-5.4,6.1  c0,0.5,0.1,1,0.3,1.4c-0.9,0.2-1.9,0.6-1.9,1.4c0,1.2,2.5,1.7,4.4,1.6c3,2.3,8.6,4.3,15.6,5.5v0.1c0,1.3,2,2,3.9,2  c1.5,0,2.9-0.4,3.5-1c1,0.1,2,0.2,3,0.2c0.4,1.4,3.2,2,5.8,2c2.6,0,5.2-0.6,5.8-1.8c18.4-0.7,31.8-5.4,31.8-11.3  c0-3.9-5.6-7-13.6-8.9l-0.2-1c13.5,2.3,22.8,6.7,22.8,11.5C95,66.8,74.4,72.9,50,72.9z"/></svg>