<svg width="100" height="125" xmlns="http://www.w3.org/2000/svg" xml:space="preserve" version="1.1">

 <g>
  <title>Layer 1</title>
  <path fill="#007fff" id="svg_1" d="m71.75,46.55l-2.9,-13.4c-0.1,-3 -6.8,-6.1 -19.2,-6.1s-19.1,3.2 -19.2,6.1l-2.9,13.4c-14.5,2.4 -24.2,7.2 -24.2,12.8c0,8.1 20.3,14.4 46.3,14.4s46.3,-6.4 46.3,-14.4c0,-5.6 -9.7,-10.3 -24.2,-12.8zm-43.6,3.3l0.1,-0.7l0.1,-0.7l0.2,-0.9l0.1,-0.7l0.1,-0.7l2.4,-11.2c0.4,0.4 0.9,0.8 1.7,1.3c-0.1,0.9 -0.3,6.3 1.3,8c0.4,0.4 0.8,0.6 1.4,0.6l0.1,0l0.1,0c0.3,-0.1 1.6,-0.5 1.7,-4.1c0.2,0.2 0.4,0.5 0.6,0.6c0.4,0.2 0.8,0.3 1.1,0.2c0.8,-0.1 2.3,-0.9 2.6,-2.9c2.5,0.4 5.1,0.5 7.9,0.5c7.7,0 15.9,-1.5 18.4,-4.3l2.4,11.2l0.1,0.7l0.1,0.7l0.2,0.9l0.1,0.7l0.1,0.7l1,4.6l0.1,0.1c0.1,0.3 0.2,0.6 0.2,0.9c0,3.5 -9.1,7.2 -22.7,7.2s-22.7,-3.7 -22.7,-7.2c0,-0.3 0.1,-0.6 0.2,-0.9l1,-4.6zm21.6,22.8c-24.4,0 -45.1,-6.1 -45.1,-13.3c0,-4.8 9.3,-9.2 22.8,-11.5l-0.2,1c-1.1,0.3 -2.1,0.5 -3.2,0.9c-0.4,-0.1 -0.8,-0.1 -1.2,-0.1c-1,0 -4.2,0.1 -4.2,1.5c0,0.2 0.1,0.4 0.2,0.6c-3.5,1.8 -5.4,3.9 -5.4,6.1c0,0.5 0.1,1 0.3,1.4c-0.9,0.2 -1.9,0.6 -1.9,1.4c0,1.2 2.5,1.7 4.4,1.6c3,2.3 8.6,4.3 15.6,5.5l0,0.1c0,1.3 2,2 3.9,2c1.5,0 2.9,-0.4 3.5,-1c1,0.1 2,0.2 3,0.2c0.4,1.4 3.2,2 5.8,2c2.6,0 5.2,-0.6 5.8,-1.8c18.4,-0.7 31.8,-5.4 31.8,-11.3c0,-3.9 -5.6,-7 -13.6,-8.9l-0.2,-1c13.5,2.3 22.8,6.7 22.8,11.5c0.1,7 -20.5,13.1 -44.9,13.1z"/>
 </g>
</svg>