<?xml version="1.0" encoding="UTF-8" standalone="no"?>
<!-- Created with Inkscape (http://www.inkscape.org/) -->

<svg
   width="1080"
   height="1080"
   viewBox="0 0 1080 1080"
   version="1.1"
   id="svg1"
   xmlns:xlink="http://www.w3.org/1999/xlink"
   xmlns="http://www.w3.org/2000/svg"
   xmlns:svg="http://www.w3.org/2000/svg">
  <defs
     id="defs1">
    <pattern
       xlink:href="#pattern25-8"
       preserveAspectRatio="xMidYMid"
       id="pattern4"
       patternTransform="matrix(4.1,0,0,4.1,946.66407,457.29883)"
       x="0"
       y="0" />
    <clipPath
       clipPathUnits="userSpaceOnUse"
       id="clipPath25">
      <rect
         style="fill:#ff0000;stroke:none;stroke-width:3;stroke-linecap:square;stroke-linejoin:miter;paint-order:stroke markers fill;stop-color:#000000"
         id="rect25-8"
         width="78"
         height="45.033199"
         x="763.61322"
         y="452.82422" />
    </clipPath>
    <pattern
       patternUnits="userSpaceOnUse"
       width="78"
       height="45.033199"
       patternTransform="translate(946.66407,457.29883) scale(0.6)"
       preserveAspectRatio="xMidYMid"
       id="pattern25-8"
       style="fill:#fdd248">
      <g
         id="g13"
         transform="translate(-763.61322,-452.82422)"
         clip-path="url(#clipPath25)">
        <path
           id="path11-0"
           style="color:#000000;stroke-width:3;stroke-linecap:square;paint-order:stroke markers fill"
           d="m 805.62688,448.21094 -12.5,7.21679 v 14.43555 l -12.5,7.2168 v 14.43359 l 12.5,7.2168 12.5,-7.2168 12.5,7.2168 12.5,-7.2168 v -14.43359 l -12.5,-7.2168 v -14.43555 z m 0,9.22265 4.51368,2.60547 v 14.4336 l 12.5,7.21679 v 5.21289 l -4.51368,2.60547 -12.5,-7.21679 -12.5,7.21679 -4.51367,-2.60547 v -5.21289 l 12.5,-7.21679 v -14.4336 z m 0,1.73243 -3.01367,1.73828 v 14.43359 l -12.5,7.21875 v 3.47852 l 3.01367,1.74023 12.5,-7.2168 12.5,7.2168 3.01563,-1.74023 v -3.47852 l -12.50195,-7.21875 V 460.9043 Z" />
        <path
           id="path20-8"
           style="color:#000000;stroke-width:3;stroke-linecap:square;paint-order:stroke markers fill"
           d="m 805.62688,403.17774 -12.5,7.2168 v 14.43554 l -12.5,7.2168 v 14.43359 l 12.5,7.2168 12.5,-7.2168 12.5,7.2168 12.5,-7.2168 v -14.43359 l -12.5,-7.2168 v -14.43554 z m 0,9.22265 4.51368,2.60547 v 14.4336 l 12.5,7.21679 v 5.21289 l -4.51368,2.60547 -12.5,-7.21679 -12.5,7.21679 -4.51367,-2.60547 v -5.21289 l 12.5,-7.21679 v -14.4336 z m 0,1.73243 -3.01367,1.73828 v 14.43359 l -12.5,7.21875 v 3.47852 l 3.01367,1.74023 12.5,-7.2168 12.5,7.2168 3.01563,-1.74023 v -3.47852 l -12.50195,-7.21875 V 415.8711 Z m -39,56.59765 -12.5,7.2168 v 14.43554 l -12.5,7.2168 v 14.43359 l 12.5,7.2168 12.5,-7.2168 12.5,7.2168 12.5,-7.2168 v -14.43359 l -12.5,-7.2168 v -14.43554 z m 0,9.22265 4.51368,2.60547 v 14.4336 l 12.5,7.21679 v 5.21289 l -4.51368,2.60547 -12.5,-7.21679 -12.5,7.21679 -4.51367,-2.60547 v -5.21289 l 12.5,-7.21679 v -14.4336 z m 0,1.73243 -3.01367,1.73828 v 14.43359 l -12.5,7.21875 v 3.47852 l 3.01367,1.74023 12.5,-7.2168 12.5,7.2168 3.01563,-1.74023 v -3.47852 l -12.50195,-7.21875 v -14.43359 z m 78,-10.95508 -12.5,7.2168 v 14.43554 l -12.5,7.2168 v 14.43359 l 12.5,7.2168 12.5,-7.2168 12.5,7.2168 12.5,-7.2168 v -14.43359 l -12.5,-7.2168 v -14.43554 z m 0,9.22265 4.51368,2.60547 v 14.4336 l 12.5,7.21679 v 5.21289 l -4.51368,2.60547 -12.5,-7.21679 -12.5,7.21679 -4.51367,-2.60547 v -5.21289 l 12.5,-7.21679 v -14.4336 z m 0,1.73243 -3.01367,1.73828 v 14.43359 l -12.5,7.21875 v 3.47852 l 3.01367,1.74023 12.5,-7.2168 12.5,7.2168 3.01563,-1.74023 v -3.47852 l -12.50195,-7.21875 v -14.43359 z" />
        <path
           id="path19"
           style="color:#000000;stroke-width:3;stroke-linecap:square;paint-order:stroke markers fill"
           d="m 766.62688,425.69727 -12.5,7.21679 v 14.43555 l -12.5,7.2168 V 469 l 12.5,7.2168 12.5,-7.2168 12.5,7.2168 12.5,-7.2168 v -14.43359 l -12.5,-7.2168 v -14.43555 z m 0,9.22265 4.51368,2.60547 v 14.4336 l 12.5,7.21679 v 5.21289 l -4.51368,2.60547 -12.5,-7.21679 -12.5,7.21679 -4.51367,-2.60547 v -5.21289 l 12.5,-7.21679 v -14.4336 z m 0,1.73243 -3.01367,1.73828 v 14.43359 l -12.5,7.21875 v 3.47852 l 3.01367,1.74023 12.5,-7.2168 12.5,7.2168 3.01563,-1.74023 v -3.47852 l -12.50195,-7.21875 v -14.43359 z m 78,-10.95508 -12.5,7.21679 v 14.43555 l -12.5,7.2168 V 469 l 12.5,7.2168 12.5,-7.2168 12.5,7.2168 12.5,-7.2168 v -14.43359 l -12.5,-7.2168 v -14.43555 z m 0,9.22265 4.51368,2.60547 v 14.4336 l 12.5,7.21679 v 5.21289 l -4.51368,2.60547 -12.5,-7.21679 -12.5,7.21679 -4.51367,-2.60547 v -5.21289 l 12.5,-7.21679 v -14.4336 z m 0,1.73243 -3.01367,1.73828 v 14.43359 l -12.5,7.21875 v 3.47852 l 3.01367,1.74023 12.5,-7.2168 12.5,7.2168 3.01563,-1.74023 v -3.47852 l -12.50195,-7.21875 v -14.43359 z m -39,56.59765 -12.5,7.21679 v 14.43555 l -12.5,7.2168 v 14.43359 l 12.5,7.2168 12.5,-7.2168 12.5,7.2168 12.5,-7.2168 v -14.43359 l -12.5,-7.2168 v -14.43555 z m 0,9.22265 4.51368,2.60547 v 14.4336 l 12.5,7.21679 v 5.21289 l -4.51368,2.60547 -12.5,-7.21679 -12.5,7.21679 -4.51367,-2.60547 v -5.21289 l 12.5,-7.21679 v -14.4336 z m 0,1.73243 -3.01367,1.73828 v 14.43359 l -12.5,7.21875 v 3.47852 l 3.01367,1.74023 12.5,-7.2168 12.5,7.2168 3.01563,-1.74023 v -3.47852 l -12.50195,-7.21875 v -14.43359 z" />
      </g>
    </pattern>
  </defs>
  <g
     id="layer1">
    <rect
       style="opacity:1;fill:url(#pattern4);fill-opacity:1;stroke:#ffffff;stroke-width:30;stroke-linecap:round;stroke-linejoin:round;stroke-dasharray:none;stroke-opacity:1"
       id="rect1"
       width="900"
       height="900"
       x="85.102348"
       y="85.102348"
       ry="70" />
    <path
       style="opacity:1;fill:#ff00ff;fill-opacity:1;stroke:#ffffff;stroke-width:0;stroke-linecap:butt;stroke-linejoin:round;stroke-dasharray:none;stroke-opacity:1"
       d="m 224.92777,969.93874 c 5.39983,-3.29234 5.63403,-3.89063 5.63403,-14.39289 v -10.95776 l -25.13644,-14.53994 -25.13644,-14.53993 -0.0265,-28.70114 c -0.0146,-15.78563 -0.59967,-29.51869 -1.30016,-30.51792 -1.88789,-2.69303 -17.13245,-11.20626 -19.78456,-11.04856 -1.26039,0.0749 -5.80206,2.27008 -10.09259,4.87809 l -7.80096,4.74184 -0.86677,30.10879 -0.86678,30.10879 -18.86571,10.95212 c -10.37613,6.02366 -19.08757,10.95211 -19.35875,10.95211 -1.1712,0 -4.247448,-18.16464 -4.247448,-25.08037 0,-6.78633 0.631172,-7.96434 6.067418,-11.32412 l 6.06741,-3.74987 v -29.19845 -29.19846 l 24.14958,-13.99884 c 13.28227,-7.69936 25.17874,-13.97861 26.4366,-13.95389 1.25786,0.0247 12.81832,6.188 25.68991,13.69616 l 23.40289,13.6512 0.86677,29.86512 0.86677,29.86511 25.56983,14.65421 25.56982,14.65422 v 23.26124 23.26124 l -21.23595,-0.006 -21.23596,-0.006 z"
       id="path59" />
    <path
       style="opacity:1;fill:#ff00ff;fill-opacity:1;stroke:#ffffff;stroke-width:0;stroke-linecap:butt;stroke-linejoin:round;stroke-dasharray:none;stroke-opacity:1"
       d="m 140.51017,970.62081 c -5.19291,-1.39582 -9.81654,-2.91274 -10.27473,-3.37092 -1.19135,-1.19136 3.60287,-4.42581 17.74342,-11.97071 l 12.37427,-6.60248 19.93579,11.66298 c 10.96469,6.41464 20.26084,11.97442 20.65811,12.35507 2.13875,2.04926 -52.01018,0.19109 -60.43686,-2.07394 z"
       id="path60" />
    <path
       style="opacity:1;fill:#ffff00;fill-opacity:1;stroke:#ffffff;stroke-width:0;stroke-linecap:butt;stroke-linejoin:round;stroke-dasharray:none;stroke-opacity:1"
       d="m 101.84591,825.04378 c -4.708039,-2.55416 -4.767258,-2.8006 -4.767258,-19.83836 v -17.25206 l 5.933038,2.82927 5.93304,2.82927 24.40959,-14.12537 c 13.42528,-7.76896 25.24123,-14.12537 26.25768,-14.12537 1.01644,0 12.86248,6.38474 26.32453,14.18832 l 24.47645,14.18832 9.64102,-5.35727 9.64102,-5.35728 0.46042,-11.86475 0.46042,-11.86476 -25.12309,-14.43201 -25.12309,-14.432 -0.47377,-29.69005 -0.47376,-29.69005 -9.91022,-5.87765 -9.91023,-5.87766 -9.55169,5.46493 -9.5517,5.46492 -0.47387,29.76266 -0.47388,29.76266 -19.93579,11.72884 c -10.96469,6.45087 -20.52087,11.73315 -21.235958,11.73842 -0.715088,0.005 -1.30016,-7.6469 -1.30016,-17.00483 v -17.01439 l 6.067418,-2.89335 6.06741,-2.89335 v -30.01238 -30.01239 l 25.28897,-14.54286 c 19.82558,-11.40105 25.91141,-14.16467 28.17014,-12.79226 1.58465,0.96283 12.82741,7.45568 24.98391,14.42855 l 22.10273,12.67796 v 29.72022 29.72023 l 25.56982,14.78004 25.56983,14.78004 0.47359,28.56119 0.4736,28.5612 -25.126,14.44915 c -15.6622,9.00682 -26.17694,14.04586 -27.9162,13.37844 -1.53461,-0.58888 -12.85591,-6.92184 -25.15845,-14.07328 -12.30253,-7.15142 -23.15873,-13.00258 -24.12487,-13.00258 -0.96615,0 -12.5411,6.24077 -25.72212,13.86838 -13.18102,7.62761 -24.68994,13.83714 -25.57538,13.79897 -0.88544,-0.0382 -3.75515,-1.23323 -6.37714,-2.65567 z"
       id="path75" />
    <path
       style="opacity:1;fill:#00ffff;fill-opacity:1;stroke:#ffffff;stroke-width:0;stroke-linecap:butt;stroke-linejoin:round;stroke-dasharray:none;stroke-opacity:1"
       d="m 243.12796,907.04308 -24.7051,-14.26619 0.43544,-29.40214 0.43544,-29.40213 22.8912,-13.22592 c 12.59017,-7.27425 24.09659,-14.22629 25.56983,-15.44897 2.2205,-1.84286 2.67862,-7.18414 2.67862,-31.2309 v -29.00784 l 24.50615,-14.14073 24.50616,-14.14074 24.89232,14.32392 24.89232,14.32392 0.008,28.96857 c 0.006,20.9678 0.60611,29.50875 2.17456,30.92439 1.19181,1.0757 12.69823,8.05136 25.56982,15.50147 l 23.40289,13.54564 v 29.15255 29.15254 l -24.77,14.47711 -24.76998,14.47711 -25.7223,-14.89434 -25.7223,-14.89434 -25.45036,14.77218 c -13.99771,8.1247 -25.60041,14.75616 -25.7838,14.7366 -0.18338,-0.0196 -11.45072,-6.45536 -25.03853,-14.30176 z m 49.76371,-35.15402 c 12.52612,-7.19778 23.84056,-13.49585 25.14319,-13.99572 1.30263,-0.49987 13.32641,5.38922 26.71951,13.08686 13.39309,7.69765 25.35773,13.9809 26.58808,13.96279 1.23035,-0.0181 5.97757,-2.3817 10.54938,-5.2524 l 8.31238,-5.21945 -0.51142,-11.5553 -0.51141,-11.55529 -25.56982,-14.77459 -25.56983,-14.77458 v -29.79134 -29.79133 l -9.10112,-5.19477 -9.10112,-5.19477 -9.9679,5.42759 -9.9679,5.42759 v 29.77601 29.776 l -26.00321,15.05701 -26.00321,15.05701 v 10.96404 10.96403 l 9.10112,5.30549 c 5.00562,2.91802 10.00504,5.3227 11.10982,5.34374 1.10479,0.021 12.25734,-5.85085 24.78346,-13.04862 z"
       id="path76" />
    <path
       style="opacity:1;fill:#ff00ff;fill-opacity:1;stroke:#ffffff;stroke-width:0;stroke-linecap:butt;stroke-linejoin:round;stroke-dasharray:none;stroke-opacity:1"
       d="m 402.18299,814.02634 -23.40289,-13.65264 -0.43377,-29.20771 -0.43377,-29.20772 25.13682,-14.40839 25.13682,-14.40838 0.0267,-29.79708 0.0267,-29.79707 25.41986,-14.63464 25.41985,-14.63463 8.79101,4.88693 c 4.83506,2.68781 15.98864,9.11312 24.78572,14.27848 l 15.99471,9.39155 0.47399,29.82646 0.474,29.82646 25.52809,14.73515 25.52808,14.73516 0.0417,28.90645 0.0417,28.90645 -24.14958,13.99884 c -13.28226,7.69936 -24.99659,13.99885 -26.03184,13.99885 -1.03525,0 -11.94798,-5.85116 -24.25052,-13.00258 -12.30253,-7.15143 -23.59707,-13.47413 -25.09897,-14.05047 -1.66364,-0.63839 -12.18085,4.44258 -26.9143,13.0026 -13.30098,7.72774 -25.20142,14.03022 -26.44543,14.0055 -1.24402,-0.0247 -12.79315,-6.18864 -25.66473,-13.69757 z m 51.24754,-34.79681 c 13.2621,-7.6276 25.0065,-13.86837 26.09867,-13.86837 1.09217,0 12.7021,6.24077 25.79985,13.86837 13.09776,7.62761 24.6967,13.85356 25.77543,13.83545 1.07873,-0.0181 5.66679,-2.35984 10.19568,-5.20383 l 8.23435,-5.17089 v -11.89762 -11.89762 l -25.13644,-14.45515 -25.13643,-14.45515 v -28.84888 c 0,-32.0091 0.62647,-30.16842 -12.89606,-37.89115 l -6.82863,-3.89985 -7.03975,3.85961 c -13.68516,7.50302 -13.10715,5.82506 -13.10715,38.0501 v 28.9676 l -25.20447,14.49428 -25.20448,14.49427 0.50143,12.06908 0.50142,12.06908 7.80096,4.73826 c 4.29053,2.60605 8.64061,4.79959 9.66684,4.87453 1.02623,0.0749 12.71668,-6.10451 25.97878,-13.73212 z"
       id="path77" />
    <path
       style="opacity:1;fill:#ffff00;fill-opacity:1;stroke:#ffffff;stroke-width:0;stroke-linecap:butt;stroke-linejoin:round;stroke-dasharray:none;stroke-opacity:1"
       d="m 402.60556,629.61297 -24.71386,-14.20366 0.4442,-29.4622 0.4442,-29.4622 24.26966,-13.97425 24.26966,-13.97425 0.86678,-29.82615 0.86677,-29.82615 25.26342,-14.42058 25.26342,-14.42058 24.5105,14.00742 24.5105,14.00741 0.0656,29.69747 0.0656,29.69747 25.56983,14.55308 25.56982,14.55308 0.43377,29.42521 0.43377,29.42522 -25.0792,14.37515 -25.0792,14.37516 -24.75992,-14.23069 c -13.61795,-7.82688 -25.54068,-14.23069 -26.49497,-14.23069 -0.95428,0 -12.81956,6.37079 -26.36728,14.15729 -13.54773,7.78652 -24.85878,14.11317 -25.13568,14.05921 -0.2769,-0.054 -11.6247,-6.48974 -25.21732,-14.30177 z M 452.48284,594.591 c 12.2692,-7.15955 23.51914,-13.48225 24.99987,-14.05046 1.61352,-0.61917 12.38212,4.59662 26.87583,13.01735 13.30097,7.72775 25.08644,14.05046 26.18994,14.05046 1.10349,0 5.82599,-2.14527 10.49443,-4.76726 l 8.48808,-4.76725 0.002,-11.54786 0.002,-11.54787 -25.07916,-14.45534 -25.07917,-14.45535 -0.49066,-30.06197 -0.49066,-30.06197 -9.63597,-5.3595 -9.63597,-5.3595 -9.86644,5.645 -9.86643,5.645 -0.0142,29.77647 -0.0142,29.77647 -25.12227,14.53785 -25.12227,14.53785 0.0249,11.46536 0.025,11.46536 8.2094,4.6623 c 4.51517,2.56427 9.242,4.70953 10.50407,4.76726 1.26207,0.0577 12.3331,-5.75286 24.6023,-12.9124 z"
       id="path78" />
    <path
       style="opacity:1;fill:#00ffff;fill-opacity:1;stroke:#ffffff;stroke-width:0;stroke-linecap:butt;stroke-linejoin:round;stroke-dasharray:none;stroke-opacity:1"
       d="m 562.12326,721.49098 -24.68252,-14.20366 -0.0205,-28.6585 -0.0205,-28.6585 25.56982,-14.77873 25.56983,-14.77873 0.86677,-30.14431 0.86677,-30.1443 23.40289,-13.5577 c 12.87159,-7.45674 24.60652,-13.34986 26.07762,-13.09584 1.4711,0.25403 12.97481,6.3126 25.56379,13.46348 l 22.88906,13.0016 0.0326,28.60354 c 0.0179,15.73194 0.60571,29.4577 1.30619,30.50169 0.70049,1.04399 12.38999,8.33951 25.97667,16.21226 l 24.70305,14.31411 v 28.979 28.979 l -23.74721,13.74935 c -13.06097,7.56213 -24.3284,13.99472 -25.03875,14.29462 -0.71034,0.29991 -12.34357,-5.87585 -25.85162,-13.72392 -13.50804,-7.84806 -25.44847,-14.24199 -26.53428,-14.20874 -1.08582,0.0332 -12.87735,6.40403 -26.20341,14.15731 -13.32607,7.75325 -24.63746,14.0527 -25.13644,13.99874 -0.49898,-0.0539 -12.01436,-6.48974 -25.58975,-14.30177 z m 53.57412,-35.97914 23.7814,-13.78541 25.30404,14.82697 25.30404,14.82697 10.33378,-5.68102 10.33377,-5.68102 v -10.59924 c 0,-7.94219 -0.76049,-11.25504 -3.0337,-13.21534 -1.66854,-1.43886 -13.34956,-8.38561 -25.95782,-15.43721 l -22.92411,-12.82111 -0.0454,-29.73822 -0.0454,-29.7382 -9.62653,-5.43288 -9.62654,-5.43289 -10.30926,5.66755 -10.30926,5.66754 v 29.56029 29.56029 l -25.13643,14.44365 -25.13644,14.44364 v 11.76889 11.76888 l 9.10112,5.27302 c 5.00562,2.90016 10.25093,4.88315 11.65624,4.40664 1.4053,-0.4765 13.25673,-7.06981 26.33649,-14.65179 z"
       id="path79" />
    <path
       style="opacity:1;fill:#ff00ff;fill-opacity:1;stroke:#ffffff;stroke-width:0;stroke-linecap:butt;stroke-linejoin:round;stroke-dasharray:none;stroke-opacity:1"
       d="m 722.45586,629.71957 -23.83628,-13.90719 0.0205,-29.67184 0.0205,-29.67184 24.68251,-14.07009 24.68252,-14.07009 0.86678,-29.8742 0.86677,-29.8742 23.40289,-13.65121 c 12.87159,-7.50816 24.57303,-13.6512 26.00321,-13.6512 1.43018,0 13.13162,6.14304 26.00321,13.6512 l 23.40289,13.65121 0.86677,29.80811 0.86678,29.80811 25.13643,14.46676 25.13644,14.46676 v 29.09476 29.09475 l -24.99985,14.41429 -24.99986,14.41431 -21.38921,-12.31385 c -11.76407,-6.77263 -23.3855,-13.34953 -25.8254,-14.61537 -4.16015,-2.15832 -6.01978,-1.39677 -29.88701,12.23905 -13.99796,7.99731 -25.84089,14.45696 -26.31761,14.35476 -0.47673,-0.10219 -11.5931,-6.44402 -24.70305,-14.09299 z m 51.57303,-35.9796 c 13.09776,-7.62761 24.40915,-13.86838 25.13644,-13.86838 0.72729,0 12.03868,6.24077 25.13644,13.86838 13.09775,7.62761 25.08674,13.80706 26.64219,13.73211 1.55546,-0.0749 6.33854,-2.2682 10.62907,-4.87391 l 7.80097,-4.73766 0.49948,-11.16139 0.49949,-11.1614 -25.16298,-14.62156 -25.16297,-14.62156 -0.47295,-29.5614 -0.47295,-29.56141 -8.64791,-5.65652 c -4.75635,-3.11109 -9.82697,-5.6417 -11.26805,-5.62358 -1.44108,0.0181 -6.30715,2.34834 -10.81347,5.17828 l -8.19332,5.14535 -0.47442,29.8261 -0.47442,29.82609 -25.63948,14.82041 -25.63949,14.82041 0.50305,11.17609 0.50305,11.17609 7.80096,4.73766 c 4.29053,2.60571 9.07361,4.79897 10.62907,4.87391 1.55546,0.0749 13.54445,-6.1045 26.6422,-13.73211 z"
       id="path80" />
    <path
       style="opacity:1;fill:#ffff00;fill-opacity:1;stroke:#ffffff;stroke-width:0;stroke-linecap:butt;stroke-linejoin:round;stroke-dasharray:none;stroke-opacity:1"
       d="m 722.88925,444.98503 -23.40289,-13.523 -0.4725,-29.38294 -0.4725,-29.38293 25.17555,-14.6363 25.17555,-14.6363 v -29.67993 -29.67994 l 23.78595,-13.74934 c 13.08228,-7.56214 24.64256,-13.97438 25.68952,-14.24943 1.04696,-0.27505 12.96607,5.88329 26.48692,13.6852 l 24.58335,14.18528 v 29.70846 29.70845 l 25.56983,14.78004 25.56982,14.78004 0.4736,28.5612 0.47359,28.56119 -25.126,14.44915 c -15.6622,9.00682 -26.17694,14.04586 -27.9162,13.37845 -1.53461,-0.58889 -12.85591,-6.92185 -25.15844,-14.07329 -12.30254,-7.15142 -23.15873,-13.00257 -24.12488,-13.00257 -0.96615,0 -12.5411,6.24077 -25.72212,13.86838 -13.18102,7.6276 -24.68994,13.86494 -25.57538,13.86075 -0.88544,-0.004 -12.14119,-6.09297 -25.01277,-13.53062 z m 50.48253,-35.00108 c 13.1286,-7.62761 24.74703,-13.86838 25.81873,-13.86838 1.07169,0 12.96294,6.38474 26.42499,14.18832 l 24.47645,14.18832 9.64102,-5.35665 9.64103,-5.35665 0.50867,-11.26033 c 0.59459,-13.16203 2.63695,-11.11285 -29.50514,-29.60367 l -20.32872,-11.69479 -0.47385,-29.70804 -0.47384,-29.70804 -9.91022,-5.87765 -9.91022,-5.87765 -9.5517,5.46492 -9.55169,5.46493 -0.47388,29.77238 -0.47388,29.77237 -25.53295,14.76241 -25.53295,14.7624 -0.0369,11.55836 -0.0369,11.55835 9.10112,5.30549 c 5.00562,2.91802 9.82325,5.3227 10.70585,5.34373 0.8826,0.021 12.34631,-6.20252 25.47492,-13.83013 z"
       id="path81" />
    <path
       style="opacity:1;fill:#00ffff;fill-opacity:1;stroke:#ffffff;stroke-width:0;stroke-linecap:butt;stroke-linejoin:round;stroke-dasharray:none;stroke-opacity:1"
       d="m 882.78789,537.80008 -24.72414,-14.26878 0.45448,-29.41693 0.45448,-29.41692 24.26967,-14.1261 24.26966,-14.1261 0.86677,-30.04907 0.86678,-30.04907 24.85428,-14.41135 24.85429,-14.41136 6.78295,3.81224 6.78295,3.81223 v 17.01625 c 0,9.35894 -0.58507,17.01112 -1.30016,17.00484 -0.71508,-0.006 -3.60568,-1.53118 -6.42355,-3.38866 l -5.12339,-3.37723 -10.04515,5.52235 -10.04515,5.52235 v 29.776 29.77601 l -26.00321,15.057 -26.00321,15.05701 v 10.97991 10.9799 l 9.31215,5.32787 c 5.12167,2.93033 10.10316,5.32787 11.06995,5.32787 0.9668,0 12.8586,-6.40546 26.42622,-14.23436 l 24.66841,-14.23436 6.30016,3.64935 6.30016,3.64936 0.49403,17.51919 c 0.27172,9.63556 0.12129,17.5192 -0.3343,17.5192 -0.45557,0 -3.50391,-1.57864 -6.77406,-3.50808 l -5.94573,-3.50806 -25.45717,14.77612 c -14.00144,8.12687 -25.60721,14.76129 -25.79059,14.74314 -0.18339,-0.0181 -11.4593,-6.45393 -25.05758,-14.30176 z"
       id="path82" />
    <path
       style="opacity:1;fill:#000000;fill-opacity:1;stroke:#ffffff;stroke-width:0;stroke-linecap:butt;stroke-linejoin:round;stroke-dasharray:none;stroke-opacity:1"
       d="M 242.26324,721.59758 218.42697,707.69039 V 678.5824 649.47441 l 24.70305,-14.27779 c 13.58667,-7.85279 25.27617,-15.12739 25.97666,-16.16578 0.70049,-1.03839 1.30011,-14.75957 1.33249,-30.49151 l 0.0589,-28.60354 23.17262,-13.36901 c 12.74493,-7.35295 23.90268,-13.59372 24.79498,-13.86838 0.8923,-0.27465 12.64386,5.74141 26.11457,13.36902 l 24.49221,13.86837 0.51996,30.1061 0.51997,30.10609 25.56982,14.75109 25.56983,14.75109 -0.008,28.81858 -0.008,28.81858 -24.85387,14.30177 c -13.66963,7.86597 -25.27513,14.30176 -25.78999,14.30176 -0.51486,0 -11.75496,-6.34073 -24.978,-14.0905 -13.22303,-7.74977 -24.82231,-14.12056 -25.77618,-14.15731 -0.95387,-0.0367 -12.81881,6.304 -26.36653,14.0905 -13.54772,7.78652 -25.24883,14.07044 -26.00245,13.96428 -0.75363,-0.10618 -12.09656,-6.45127 -25.20651,-14.10024 z m 51.82099,-35.17038 25.24555,-14.79269 25.77053,14.92227 25.77053,14.92227 9.58866,-5.73523 9.58865,-5.73522 v -11.58817 -11.58817 l -25.56982,-14.65562 -25.56982,-14.65563 -0.47388,-29.58742 -0.47387,-29.58743 -9.30492,-5.32373 -9.30491,-5.32373 -9.72362,5.58496 -9.72362,5.58495 -0.002,29.53841 -0.002,29.53841 -16.90016,9.37518 c -9.29508,5.15635 -21.03252,11.99609 -26.08319,15.19941 l -9.18305,5.82422 0.51531,10.79444 0.5153,10.79445 9.45783,5.64339 c 5.2018,3.10386 9.7186,5.64338 10.03732,5.64338 0.31872,0 11.93999,-6.65671 25.82504,-14.7927 z"
       id="path83" />
    <path
       style="opacity:1;fill:#000000;fill-opacity:1;stroke:#ffffff;stroke-width:0;stroke-linecap:butt;stroke-linejoin:round;stroke-dasharray:none;stroke-opacity:1"
       d="m 562.53612,537.61443 -24.26967,-14.24756 -0.47468,-28.81779 -0.47468,-28.81781 26.0445,-15.04208 26.04451,-15.04209 0.0309,-29.73366 0.0309,-29.73366 24.91407,-14.29795 24.91407,-14.29795 24.46114,14.11477 24.46115,14.11476 v 29.29171 29.2917 l 8.3262,5.17585 c 4.57942,2.84672 16.08584,9.64511 25.56983,15.10754 l 17.24362,9.93168 0.43794,29.45971 0.43793,29.4597 -24.90841,14.32089 -24.90841,14.32088 -25.46501,-14.83975 -25.46502,-14.83974 -25.86033,14.82062 c -14.22318,8.15135 -26.07645,14.75925 -26.3406,14.68422 -0.26414,-0.075 -11.40161,-6.54782 -24.74992,-14.38399 z m 51.24462,-35.75247 c 13.15849,-7.62761 24.5107,-13.86838 25.22715,-13.86838 0.71645,0 12.60148,6.39451 26.41118,14.21002 l 25.10854,14.21001 9.68002,-5.37834 9.68001,-5.37835 0.50902,-11.27525 0.50902,-11.27526 -26.07884,-15.06192 -26.07885,-15.06192 -0.0342,-29.73366 -0.0342,-29.73366 -9.63553,-5.63219 -9.63553,-5.63219 -9.8327,5.74208 -9.8327,5.74207 -0.86678,30.14629 -0.86677,30.14629 -24.26966,14.064 -24.26967,14.064 v 11.90586 11.90586 l 7.80097,4.74525 c 4.29053,2.60988 8.87736,4.80656 10.19296,4.8815 1.3156,0.075 13.15803,-6.1045 26.31651,-13.73211 z"
       id="path84" />
    <path
       style="opacity:1;fill:#000000;fill-opacity:1;stroke:#ffffff;stroke-width:0;stroke-linecap:butt;stroke-linejoin:round;stroke-dasharray:none;stroke-opacity:1"
       d="m 881.94222,352.37127 -23.83628,-13.95258 v -29.0931 -29.0931 l 25.04499,-14.43406 25.04499,-14.43406 0.52483,-30.11848 0.52484,-30.11848 25.04648,-14.37447 25.04649,-14.37447 6.5774,3.75458 6.5774,3.75459 0.0133,17.76886 c 0.007,9.77287 -0.3321,17.76886 -0.75433,17.76886 -0.42223,0 -3.44181,-1.57777 -6.71019,-3.50616 l -5.94251,-3.50617 -9.75851,5.605 -9.75851,5.605 -0.0454,29.5384 -0.0454,29.53841 -22.92411,12.82111 c -12.60826,7.05161 -24.28928,13.99836 -25.95782,15.43722 -2.23725,1.92928 -3.03371,5.2453 -3.03371,12.63067 0,10.8095 1.32146,12.5249 15.04856,19.53467 l 5.51405,2.81576 25.40429,-14.74544 25.40429,-14.74544 6.78632,3.81412 6.78631,3.81413 v 17.01625 c 0,9.35894 -0.49299,17.01626 -1.09554,17.01626 -0.60255,0 -3.56992,-1.52925 -6.59416,-3.39834 l -5.49862,-3.39833 -25.38155,14.66638 c -13.95986,8.06653 -26.00934,14.59408 -26.77663,14.50571 -0.76729,-0.0884 -12.12139,-6.43939 -25.23134,-14.1133 z"
       id="path85" />
    <path
       style="opacity:1;fill:#ffffff;fill-opacity:1;stroke:#ffffff;stroke-width:0;stroke-linecap:butt;stroke-linejoin:round;stroke-dasharray:none;stroke-opacity:1"
       d="m 101.84591,779.97154 c -3.887858,-2.1092 -4.764524,-3.77525 -4.752438,-9.03172 0.01479,-6.43089 0.06273,-6.47249 21.235958,-18.43039 11.67162,-6.59173 23.34815,-13.45769 25.94783,-15.25771 l 4.72671,-3.27275 0.47394,-29.49242 0.47394,-29.49242 4.76725,-2.89056 c 4.44954,-2.69791 5.08498,-2.69801 9.53451,-10e-4 l 4.76726,2.8891 0.86677,29.987 0.86677,29.98701 25.55217,14.76457 c 25.50254,14.73591 25.5522,14.77682 25.56982,21.06601 0.0134,4.79599 -1.00315,6.97028 -4.25522,9.10112 -2.35008,1.53984 -5.29809,2.7997 -6.55114,2.7997 -1.25304,0 -12.96198,-6.24077 -26.01986,-13.86838 -13.05788,-7.62761 -24.46159,-13.86838 -25.34157,-13.86838 -0.87998,0 -12.38815,6.24077 -25.5737,13.86838 -13.18556,7.62761 -24.77204,13.83715 -25.74774,13.79897 -0.97571,-0.0382 -3.91927,-1.23323 -6.54126,-2.65568 z"
       id="path86" />
    <path
       style="opacity:1;fill:#ffffff;fill-opacity:1;stroke:#ffffff;stroke-width:0;stroke-linecap:butt;stroke-linejoin:round;stroke-dasharray:none;stroke-opacity:1"
       d="m 185.48957,954.23603 c -12.87159,-7.55686 -24.41911,-13.75029 -25.66116,-13.76317 -1.24204,-0.0129 -10.42423,4.69015 -20.40485,10.45117 -20.14576,11.62856 -19.78541,11.62676 -29.43093,0.14714 -5.85619,-6.96975 -7.28328,-5.47112 20.17771,-21.18921 l 18.91473,-10.82639 v -29.83111 -29.83112 l 5.20064,-2.15417 c 4.14409,-1.71654 6.2572,-1.71654 10.40129,0 l 5.20064,2.15417 v 28.99131 c 0,25.45847 0.36968,29.31011 3.03371,31.60742 1.66854,1.43886 13.34956,8.38561 25.95782,15.43722 l 22.92411,12.82111 0.0454,7.32306 c 0.0395,6.37712 -0.61527,7.6647 -5.06916,9.9679 -2.81301,1.45466 -5.73837,2.59749 -6.50081,2.53963 -0.76243,-0.0579 -11.91754,-6.2881 -24.78913,-13.84496 z"
       id="path87" />
    <path
       style="opacity:1;fill:#ffffff;fill-opacity:1;stroke:#ffffff;stroke-width:0;stroke-linecap:butt;stroke-linejoin:round;stroke-dasharray:none;stroke-opacity:1"
       d="m 262.09659,872.79779 c -5.01664,-3.05856 -5.66924,-4.2788 -5.20065,-9.72412 0.51895,-6.03042 1.27349,-6.65369 23.93873,-19.77397 12.87159,-7.45101 24.37801,-14.41439 25.56982,-15.47419 1.56935,-1.3955 2.16996,-9.91577 2.1779,-30.89546 l 0.011,-28.96857 5.39712,-3.07214 c 5.17894,-2.94794 5.61649,-2.94415 10.82371,0.0938 l 5.42659,3.1659 0.86677,30.03251 0.86678,30.03252 25.56982,14.65422 c 24.90078,14.27078 25.56982,14.80557 25.56982,20.4386 0,4.74371 -1.09452,6.46082 -6.08373,9.54433 l -6.08374,3.75996 -25.79806,-14.93822 -25.79805,-14.93821 -25.47545,14.78674 c -14.01149,8.13271 -25.60289,14.78382 -25.75865,14.78026 -0.15577,-0.004 -2.86463,-1.58033 -6.01969,-3.50392 z"
       id="path88" />
    <path
       style="opacity:1;fill:#ffffff;fill-opacity:1;stroke:#ffffff;stroke-width:0;stroke-linecap:butt;stroke-linejoin:round;stroke-dasharray:none;stroke-opacity:1"
       d="m 261.33226,687.15202 c -3.50465,-2.61476 -4.76725,-5.05905 -4.76725,-9.229 0,-5.48653 0.83714,-6.15349 25.56982,-20.37164 l 25.56982,-14.69941 0.47216,-30.32083 0.47215,-30.32083 5.74355,-2.7389 c 5.38744,-2.5691 6.08366,-2.52356 11.22929,0.73442 l 5.48574,3.47333 0.0583,29.73345 0.0583,29.73346 26.01001,14.73515 26.01002,14.73515 -0.49847,6.06742 c -0.40531,4.93362 -1.63226,6.66831 -6.56587,9.28305 l -6.06742,3.21564 -24.22921,-14.05031 c -13.32606,-7.72767 -25.22003,-14.05031 -26.43104,-14.05031 -1.21101,0 -12.98631,6.24077 -26.16733,13.86838 -13.18102,7.62761 -24.68994,13.84367 -25.57537,13.81346 -0.88544,-0.0302 -3.75516,-1.65546 -6.37715,-3.61168 z"
       id="path89" />
    <path
       style="opacity:1;fill:#ffffff;fill-opacity:1;stroke:#ffffff;stroke-width:0;stroke-linecap:butt;stroke-linejoin:round;stroke-dasharray:none;stroke-opacity:1"
       d="m 420.72034,779.92004 c -4.16582,-2.25843 -4.78907,-3.54908 -4.33386,-8.97475 0.52078,-6.20733 1.05479,-6.639 26.10148,-21.09949 l 25.56982,-14.76253 V 705.12194 675.1606 l 5.78919,-2.76067 c 5.31228,-2.53325 6.24053,-2.52727 11.26806,0.0726 l 5.47887,2.83324 v 29.91592 29.91591 l 25.13644,14.44365 25.13643,14.44365 v 7.32407 c 0,6.16617 -0.69806,7.64214 -4.41543,9.33589 -2.42849,1.1065 -5.17172,2.01181 -6.09606,2.01181 -0.92433,0 -11.74632,-5.85116 -24.04886,-13.00259 -12.30253,-7.15142 -23.57535,-13.46579 -25.0507,-14.03193 -1.59973,-0.61388 -12.45312,4.63442 -26.88913,13.00258 -13.31367,7.71757 -25.23584,14.00071 -26.4937,13.96253 -1.25786,-0.0382 -4.4765,-1.2564 -7.15255,-2.70718 z"
       id="path90" />
    <path
       style="opacity:1;fill:#ffffff;fill-opacity:1;stroke:#ffffff;stroke-width:0;stroke-linecap:butt;stroke-linejoin:round;stroke-dasharray:none;stroke-opacity:1"
       d="m 420.75843,595.74841 c -4.14209,-2.46701 -4.75738,-3.82979 -4.33387,-9.59886 0.49283,-6.71344 0.53174,-6.74571 25.63001,-21.25963 l 25.13644,-14.53598 0.86677,-29.78626 0.86678,-29.78626 5.26622,-3.07223 c 5.07968,-2.96341 5.46346,-2.95228 10.83467,0.31415 l 5.56845,3.38637 v 29.26176 29.26176 l 25.13644,14.45515 25.13643,14.45515 v 7.4037 c 0,6.51129 -0.6418,7.73559 -5.32454,10.15713 -5.31734,2.74971 -5.35796,2.73452 -30.0213,-11.22354 -13.58322,-7.68733 -25.43492,-13.97697 -26.33712,-13.97697 -0.9022,0 -12.49118,6.24077 -25.75328,13.86838 -13.2621,7.62761 -24.95255,13.79706 -25.97878,13.70989 -1.02623,-0.0872 -4.03823,-1.45234 -6.69332,-3.03371 z"
       id="path91" />
    <path
       style="opacity:1;fill:#ffffff;fill-opacity:1;stroke:#ffffff;stroke-width:0;stroke-linecap:butt;stroke-linejoin:round;stroke-dasharray:none;stroke-opacity:1"
       d="m 582.04162,503.86817 c -3.94679,-2.38008 -4.7536,-4.06266 -4.7026,-9.80717 l 0.0616,-6.93419 24.6384,-14.01493 24.6384,-14.01492 0.86677,-30.09678 0.86677,-30.09677 5.4266,-3.16589 c 5.20722,-3.03791 5.64477,-3.0417 10.82371,-0.0938 l 5.39712,3.07213 0.011,29.6531 0.011,29.6531 25.56982,14.70129 25.56982,14.7013 v 6.68808 c 0,5.6291 -0.83959,7.17844 -5.3025,9.78492 l -5.30251,3.09683 -25.54229,-14.72232 c -22.48045,-12.95752 -26.00093,-14.48292 -29.36844,-12.7252 -2.10438,1.09841 -12.96652,7.36333 -24.13809,13.92203 -11.17157,6.5587 -21.31282,12.22804 -22.53612,12.59853 -1.22329,0.37048 -4.36804,-0.61924 -6.98833,-2.19938 z"
       id="path92" />
    <path
       style="opacity:1;fill:#ffffff;fill-opacity:1;stroke:#ffffff;stroke-width:0;stroke-linecap:butt;stroke-linejoin:round;stroke-dasharray:none;stroke-opacity:1"
       d="m 581.94397,688.04399 c -4.27661,-2.31856 -4.79826,-3.48673 -4.33386,-9.70521 l 0.52793,-7.06938 24.68252,-14.06167 24.68252,-14.06166 0.0205,-29.73346 0.0205,-29.73345 5.61479,-3.55504 c 5.42174,-3.4328 5.79426,-3.45033 10.83467,-0.50986 l 5.21988,3.04517 0.86678,30.04974 0.86677,30.04975 25.56982,14.85268 c 25.38136,14.74321 25.56983,14.89825 25.56983,21.03532 0,5.24576 -0.88774,6.6607 -5.85839,9.33758 l -5.85838,3.15494 -24.40863,-14.02879 c -13.42474,-7.71583 -25.43348,-14.02879 -26.68608,-14.02879 -1.25261,0 -13.06564,6.24077 -26.2512,13.86838 -13.18555,7.62761 -24.47875,13.83715 -25.09598,13.79897 -0.61723,-0.0382 -3.31005,-1.25552 -5.98405,-2.70522 z"
       id="path93" />
    <path
       style="opacity:1;fill:#ffffff;fill-opacity:1;stroke:#ffffff;stroke-width:0;stroke-linecap:butt;stroke-linejoin:round;stroke-dasharray:none;stroke-opacity:1"
       d="m 741.4519,595.86077 c -4.17121,-2.57463 -4.77024,-3.93806 -4.33387,-9.86404 l 0.50637,-6.87647 25.56982,-14.76327 25.56982,-14.76328 0.011,-29.49991 0.011,-29.4999 4.83529,-2.74969 c 4.34933,-2.47333 5.39361,-2.48528 10.39033,-0.11888 l 5.55502,2.63082 v 28.94353 c 0,24.18244 0.44757,29.31497 2.72082,31.20161 1.49645,1.24194 13.00287,8.1633 25.56982,15.3808 l 22.84901,13.12273 0.53213,7.34853 c 0.49593,6.84852 0.13348,7.53864 -5.3268,10.14247 l -5.85894,2.79393 -24.26716,-14.04295 c -13.34694,-7.72362 -25.28791,-14.04295 -26.5355,-14.04295 -1.24759,0 -13.03437,6.24077 -26.19285,13.86838 -13.15848,7.62761 -24.56362,13.84762 -25.34476,13.82225 -0.78113,-0.0254 -3.59835,-1.39054 -6.26048,-3.03371 z"
       id="path94" />
    <path
       style="opacity:1;fill:#ffffff;fill-opacity:1;stroke:#ffffff;stroke-width:0;stroke-linecap:butt;stroke-linejoin:round;stroke-dasharray:none;stroke-opacity:1"
       d="m 741.52488,410.72595 c -3.89824,-2.11483 -4.75965,-3.76121 -4.72552,-9.03172 l 0.0417,-6.44543 25.52809,-14.73516 25.52809,-14.73515 0.86677,-30.01643 0.86678,-30.01642 4.76725,-2.88911 c 4.44935,-2.69644 5.08517,-2.69644 9.53451,0 l 4.76726,2.88911 0.86677,29.99058 0.86678,29.99058 25.53295,14.761 c 25.46243,14.72023 25.53306,14.7784 25.56982,21.06242 0.0281,4.80835 -0.97556,6.9648 -4.236,9.10113 -2.35009,1.53983 -5.27545,2.79699 -6.50081,2.79368 -1.22536,-0.003 -13.01498,-6.24407 -26.19916,-13.86838 -13.18418,-7.6243 -24.60831,-13.86236 -25.38695,-13.86236 -0.77864,0 -12.31124,6.24077 -25.628,13.86837 -13.31676,7.62761 -24.90547,13.83715 -25.7527,13.79898 -0.84722,-0.0382 -3.68567,-1.23324 -6.30766,-2.65569 z"
       id="path95" />
    <path
       style="opacity:1;fill:#ffffff;fill-opacity:1;stroke:#ffffff;stroke-width:0;stroke-linecap:butt;stroke-linejoin:round;stroke-dasharray:none;stroke-opacity:1"
       d="m 901.01433,318.38083 c -3.79427,-2.28988 -4.76478,-4.15821 -4.76725,-9.17739 -0.003,-6.29412 0.0291,-6.32066 25.13334,-20.74583 l 25.13643,-14.44365 v -29.7892 -29.7892 l 6.23285,-3.67747 6.23285,-3.67747 5.6318,3.48065 5.6318,3.48064 1.0256,42.03102 c 0.56407,23.11706 0.71896,42.33764 0.3442,42.71241 -0.37477,0.37476 -3.3478,-0.89183 -6.60674,-2.81465 l -5.92534,-3.49604 -24.91914,14.49796 c -13.70553,7.97388 -25.69924,14.44969 -26.65269,14.3907 -0.95345,-0.059 -3.87742,-1.40111 -6.49771,-2.98248 z"
       id="path96" />
    <path
       style="opacity:1;fill:#ffffff;fill-opacity:1;stroke:#ffffff;stroke-width:0;stroke-linecap:butt;stroke-linejoin:round;stroke-dasharray:none;stroke-opacity:1"
       d="m 901.77556,503.5522 c -5.0388,-3.07207 -5.67131,-4.26688 -5.20064,-9.82403 0.52451,-6.19293 1.05634,-6.62247 25.17423,-20.33235 l 24.6384,-14.00577 0.0646,-29.76231 0.0647,-29.7623 6.08255,-3.75922 c 6.0243,-3.72323 6.13635,-3.72784 11.70144,-0.48146 l 5.6189,3.27775 1.24904,42.28526 c 0.68698,23.25689 0.98032,42.55398 0.65187,42.88243 -0.32844,0.32844 -3.33768,-1.01977 -6.6872,-2.99603 l -6.09003,-3.59321 -25.48248,14.79082 c -14.01536,8.13495 -25.60992,14.7879 -25.76569,14.78434 -0.15577,-0.004 -2.86463,-1.58033 -6.01969,-3.50392 z"
       id="path97" />
    <path
       style="opacity:1;fill:#ffffff;fill-opacity:1;stroke:#ffffff;stroke-width:0;stroke-linecap:butt;stroke-linejoin:round;stroke-dasharray:none;stroke-opacity:1"
       d="m 102.18519,640.88942 -4.795695,-2.96477 v -17.71711 -17.7171 l 5.254965,3.1005 c 6.11649,3.60883 2.70268,4.94568 34.29496,-13.43004 l 22.58054,-13.13404 25.69486,14.9173 25.69486,14.9173 9.61357,-5.62206 9.61357,-5.62205 0.0283,-11.32436 0.0283,-11.32437 -25.45407,-14.55516 -25.45407,-14.55517 -0.7378,-30.09139 -0.7378,-30.09139 -8.11579,-4.84007 c -4.46369,-2.66203 -8.91024,-4.86591 -9.88124,-4.89751 -0.97099,-0.0316 -5.78513,2.29843 -10.69808,5.17784 l -8.93265,5.23528 -0.0432,29.81018 -0.0432,29.81018 -20.98405,12.00415 -20.984046,12.00415 -0.417149,-17.89046 c -0.229432,-9.83976 0.102578,-18.06634 0.737799,-18.2813 0.635222,-0.21496 3.313006,-1.70648 5.950646,-3.31449 l 4.79569,-2.92365 v -29.3827 -29.38269 l 24.50425,-14.16915 c 13.47733,-7.79303 25.26367,-14.137 26.19187,-14.09771 0.92819,0.0393 12.31193,6.28161 25.2972,13.87183 l 23.60957,13.80039 0.7378,29.70877 0.7378,29.70877 25.08518,14.52661 25.08517,14.52661 0.36258,29.322 0.36257,29.32199 -25.17518,14.46653 -25.17518,14.46653 -25.6177,-14.82437 -25.61769,-14.82438 -25.54212,14.74493 c -14.04816,8.10971 -25.88353,14.68992 -26.30082,14.62268 -0.41728,-0.0672 -2.91676,-1.45639 -5.55439,-3.08703 z"
       id="path98" />
    <path
       style="opacity:1;fill:#ffffff;fill-opacity:1;stroke:#ffffff;stroke-width:0;stroke-linecap:butt;stroke-linejoin:round;stroke-dasharray:none;stroke-opacity:1"
       d="m 402.49656,445.16897 -24.68917,-14.29424 0.3418,-29.41872 0.3418,-29.41873 23.04342,-13.37363 c 12.67388,-7.35549 24.11441,-14.2735 25.4234,-15.37334 2.01337,-1.69169 2.44152,-6.45035 2.77955,-30.89279 l 0.39957,-28.89307 23.60958,-13.69562 c 12.98526,-7.53259 24.43535,-13.71742 25.44463,-13.74407 1.00927,-0.0266 12.62961,6.19146 25.82297,13.818 l 23.98792,13.86644 0.399,29.52155 0.399,29.52156 25.82361,15.03403 25.82362,15.03404 -0.39965,28.92549 -0.39964,28.92549 -24.86256,14.4424 c -21.71872,12.61616 -25.2639,14.23142 -28.03637,12.77406 -1.74559,-0.91758 -13.33505,-7.57864 -25.75435,-14.80236 l -22.58055,-13.13403 -25.54231,14.82873 c -14.04828,8.15581 -25.79967,14.78697 -26.11421,14.7359 -0.31453,-0.0511 -11.68201,-6.52525 -25.26106,-14.38709 z m 51.25196,-35.77477 25.64527,-14.84034 25.44757,14.73626 25.44757,14.73626 4.52114,-2.33118 c 2.48664,-1.28215 7.03869,-3.91707 10.11569,-5.85535 l 5.59453,-3.52419 -0.42994,-11.23032 -0.42995,-11.23032 -25.08517,-14.27648 -25.08517,-14.27649 -0.39928,-29.71821 -0.39929,-29.71821 -8.90226,-5.21747 c -4.89625,-2.86961 -9.69671,-5.19162 -10.66771,-5.16003 -0.97099,0.0316 -5.41754,2.23547 -9.88123,4.89751 l -8.11579,4.84007 -0.7378,29.90011 -0.7378,29.90011 -25.08517,14.42499 -25.08517,14.42499 -0.40176,11.64582 -0.40177,11.64582 9.25536,5.39689 c 5.09044,2.96828 9.46178,5.45835 9.7141,5.53349 0.25231,0.0751 11.99912,-6.54155 26.10403,-14.70373 z"
       id="path99" />
    <path
       style="opacity:1;fill:#ffffff;fill-opacity:1;stroke:#ffffff;stroke-width:0;stroke-linecap:butt;stroke-linejoin:round;stroke-dasharray:none;stroke-opacity:1"
       d="m 722.68096,260.73164 -24.70963,-14.30671 0.36226,-29.47845 0.36225,-29.47845 24.34738,-14.12916 24.34737,-14.12917 0.38595,-29.4345 c 0.33515,-25.56007 0.71218,-29.6773 2.86433,-31.279007 1.85668,-1.381807 13.85208,-1.844498 47.81921,-1.844498 24.93746,0 46.39117,0.403053 47.67491,0.895672 2.02022,0.775227 2.33409,4.845513 2.33409,30.268093 v 29.37243 l 7.74689,4.89988 c 4.26079,2.69494 15.85838,9.49289 25.77241,15.10656 l 18.02551,10.20667 0.0343,29.51197 0.0343,29.51196 -17.32199,9.97787 c -9.52708,5.48782 -20.68016,11.94297 -24.78459,14.34476 l -7.46262,4.3669 -25.36131,-14.71366 c -13.94872,-8.09252 -25.61265,-14.71367 -25.91985,-14.71367 -0.3072,0 -11.98268,6.6402 -25.94552,14.75599 -13.96284,8.11579 -25.5015,14.71982 -25.64147,14.67561 -0.13997,-0.0442 -11.37382,-6.5184 -24.96412,-14.38709 z m 51.5293,-36.11364 25.05761,-14.42893 25.59699,14.75818 25.597,14.75818 8.22609,-4.62118 c 4.52437,-2.54164 9.05614,-5.26118 10.07061,-6.04341 2.01024,-1.55005 2.58455,-19.75644 0.71521,-22.67271 -0.59626,-0.93019 -12.04043,-8.01751 -25.43148,-15.7496 l -24.34738,-14.05835 -0.7378,-29.63634 -0.7378,-29.63634 -8.55859,-5.15331 c -4.70722,-2.83432 -9.29154,-5.15331 -10.18738,-5.15331 -0.89584,0 -5.82906,2.34892 -10.96271,5.21983 l -9.33392,5.21982 -0.39928,29.67719 -0.39927,29.67719 -23.60958,13.63102 c -12.98526,7.49706 -24.4396,14.39624 -25.45407,15.33151 -1.99786,1.84188 -2.55846,18.85529 -0.7152,21.70538 1.29082,1.9959 18.40442,12.36048 19.67231,11.91422 0.48457,-0.17056 12.15696,-6.80312 25.93864,-14.73904 z"
       id="path100" />
    <path
       style="opacity:1;fill:#000000;fill-opacity:1;stroke:#ffffff;stroke-width:0;stroke-linecap:butt;stroke-linejoin:round;stroke-dasharray:none;stroke-opacity:1"
       d="m 101.45003,595.63795 c -3.494204,-2.10879 -4.055626,-3.40082 -4.057898,-9.33864 l -0.0026,-6.89125 25.822978,-14.99167 25.82297,-14.99168 v -29.27377 -29.27377 l 5.14262,-3.17832 5.14262,-3.17831 5.92436,3.32968 5.92437,3.32968 0.0591,29.60915 0.0591,29.60915 25.75619,14.75599 25.7562,14.75598 0.008,6.15095 c 0.007,5.39572 -0.60251,6.52807 -4.96217,9.22249 -2.73342,1.68935 -5.8081,3.07154 -6.83262,3.07154 -1.02451,0 -12.54538,-6.14218 -25.60192,-13.64928 -13.05654,-7.50711 -24.243,-13.86554 -24.85879,-14.12984 -0.6158,-0.2643 -12.28254,5.87788 -25.92609,13.64929 -13.64356,7.77141 -25.77719,14.06912 -26.96363,13.99492 -1.18643,-0.0742 -3.98202,-1.23623 -6.21241,-2.58229 z"
       id="path101" />
    <path
       style="opacity:1;fill:#000000;fill-opacity:1;stroke:#ffffff;stroke-width:0;stroke-linecap:butt;stroke-linejoin:round;stroke-dasharray:none;stroke-opacity:1"
       d="m 420.91444,410.69608 c -4.17046,-2.57826 -4.79569,-3.7674 -4.79569,-9.12112 v -6.15634 l 25.45407,-14.81557 25.45407,-14.81556 0.7378,-29.81582 0.7378,-29.81581 5.0843,-3.08962 5.0843,-3.08961 6.35159,3.08584 6.35159,3.08584 0.0535,29.90005 0.0535,29.90004 24.66281,14.2134 24.66281,14.2134 0.43718,7.29678 c 0.43274,7.22288 0.37755,7.32368 -5.44832,9.95078 l -5.88549,2.65398 -24.53865,-14.20388 c -13.49626,-7.81213 -25.18692,-14.20388 -25.97923,-14.20388 -0.79232,0 -12.31586,6.30819 -25.60787,14.01819 -13.29201,7.71 -25.04636,13.96317 -26.12079,13.89593 -1.07443,-0.0672 -4.11156,-1.45639 -6.7492,-3.08702 z"
       id="path102" />
    <path
       style="opacity:1;fill:#000000;fill-opacity:1;stroke:#ffffff;stroke-width:0;stroke-linecap:butt;stroke-linejoin:round;stroke-dasharray:none;stroke-opacity:1"
       d="m 741.1193,226.24628 c -4.19183,-2.59146 -4.7957,-3.75357 -4.7957,-9.22903 v -6.26424 l 25.45407,-14.77068 25.45408,-14.77068 0.39819,-30.26429 0.3982,-30.2643 5.60582,-2.52787 c 5.30449,-2.392 5.89624,-2.38939 11.00855,0.0485 l 5.40272,2.57638 0.39804,30.14927 0.39805,30.14928 25.52759,14.77674 25.52758,14.77674 -0.44241,6.62251 c -0.39083,5.85032 -1.06003,6.9796 -5.7393,9.68507 l -5.29688,3.06257 -24.69009,-14.29153 c -13.57954,-7.86035 -25.47236,-14.29108 -26.42848,-14.29051 -0.95612,5.6e-4 -12.69471,6.30828 -26.08577,14.01716 -13.39105,7.70887 -25.01139,13.96158 -25.82297,13.89491 -0.81158,-0.0667 -3.63366,-1.45537 -6.27129,-3.086 z"
       id="path103" />
    <path
       style="opacity:1;fill:#000000;fill-opacity:1;stroke:#ffffff;stroke-width:0;stroke-linecap:butt;stroke-linejoin:round;stroke-dasharray:none;stroke-opacity:1"
       d="m 102.15312,779.51408 c -3.478155,-1.67625 -5.389186,-6.31278 -4.5254,-10.9795 0.539915,-2.91696 9.76359,-9.2085 34.93607,-23.83016 l 16.05616,-9.32637 0.94555,-11.18574 c 0.52004,-6.15217 0.94554,-19.64145 0.94554,-29.97619 0,-18.34331 0.0865,-18.84714 3.63708,-21.17354 4.66666,-3.05771 7.07308,-3.00473 11.08515,0.24405 3.09193,2.50369 3.28314,4.01908 4.06881,32.24641 l 0.8244,29.61927 21.43213,12.39044 c 11.78767,6.81473 23.31066,13.9435 25.60664,15.8417 5.03201,4.1602 5.56192,10.6551 1.22331,14.99371 -5.31707,5.31707 -7.92476,4.40902 -39.84115,-13.87337 -9.33316,-5.34623 -17.73638,-9.72397 -18.67381,-9.72831 -0.93743,-0.004 -12.34619,5.96828 -25.35278,13.27249 -13.0066,7.30421 -24.85597,13.23544 -26.33195,13.18052 -1.47597,-0.0549 -4.19206,-0.82686 -6.03575,-1.71541 z"
       id="path105" />
    <path
       style="opacity:1;fill:#000000;fill-opacity:1;stroke:#ffffff;stroke-width:0;stroke-linecap:butt;stroke-linejoin:round;stroke-dasharray:none;stroke-opacity:1"
       d="m 422.39004,595.92385 c -4.30742,-2.12341 -4.79569,-3.01419 -4.79569,-8.7491 0,-7.4995 0.84557,-8.19318 31.13121,-25.5389 l 18.58863,-10.6464 0.96305,-20.08061 c 0.52968,-11.04434 0.96305,-24.5192 0.96305,-29.94413 0,-9.72357 0.0719,-9.90224 5.06879,-12.59324 4.94705,-2.66416 5.19512,-2.66168 10.32919,0.1032 l 5.2604,2.83291 0.0518,29.54531 0.0518,29.54531 24.66445,14.07799 24.66446,14.07798 0.44417,6.81289 c 0.37151,5.6982 -0.10472,7.19736 -2.91062,9.1627 -1.84514,1.29238 -4.66316,2.34979 -6.26226,2.34979 -1.5991,0 -13.16329,-5.69233 -25.69821,-12.64962 -12.53492,-6.9573 -23.88649,-12.73217 -25.22572,-12.83305 -1.33922,-0.10088 -13.43719,5.92346 -26.88437,13.38743 -13.44718,7.46396 -24.7102,13.55572 -25.02894,13.53724 -0.31875,-0.0185 -2.7376,-1.09744 -5.37523,-2.3977 z"
       id="path106" />
    <path
       style="opacity:1;fill:#000000;fill-opacity:1;stroke:#ffffff;stroke-width:0;stroke-linecap:butt;stroke-linejoin:round;stroke-dasharray:none;stroke-opacity:1"
       d="m 741.8571,410.11015 c -3.45489,-1.87431 -4.0579,-3.14291 -4.0579,-8.53692 v -6.33548 l 24.88097,-14.28706 24.88097,-14.28705 0.92918,-7.73561 c 0.51104,-4.25459 0.93494,-17.87265 0.942,-30.26236 l 0.0128,-22.52675 5.22779,-2.49295 c 4.855,-2.31519 5.51264,-2.3205 9.22249,-0.0745 l 3.9947,2.41849 0.90687,23.33901 c 0.49878,12.83646 0.99679,26.36591 1.1067,30.06546 l 0.19983,6.72643 15.12489,8.66005 c 8.31868,4.76303 19.60701,11.51702 25.08517,15.00888 9.55341,6.08947 9.96029,6.58773 9.96029,12.19731 0,6.05041 -3.73838,10.44262 -8.88811,10.44262 -1.28098,0 -13.07209,-5.97617 -26.20247,-13.28038 -13.13038,-7.30421 -24.77338,-13.28039 -25.87333,-13.28039 -1.09994,0 -12.80676,5.97618 -26.01514,13.28039 -13.20839,7.30421 -24.77228,13.2538 -25.69754,13.2213 -0.92526,-0.0325 -3.50834,-1.04973 -5.74018,-2.26052 z"
       id="path107" />
    <path
       style="opacity:1;fill:#ff00ff;fill-opacity:1;stroke:#ffffff;stroke-width:0;stroke-linecap:butt;stroke-linejoin:round;stroke-dasharray:none;stroke-opacity:1"
       d="m 243.1583,538.06567 -24.66282,-14.22824 -0.03,-29.51197 -0.0301,-29.51196 24.69287,-14.22269 24.69287,-14.2227 0.42352,-30.04526 0.42353,-30.04526 24.83409,-14.38708 c 13.65876,-7.9129 25.34065,-14.38709 25.95978,-14.38709 0.61912,0 12.3106,6.47419 25.98106,14.38709 l 24.85538,14.38708 0.40726,30.03567 0.40727,30.03566 25.08517,14.4894 25.08517,14.48939 0.39954,28.71754 0.39953,28.71755 -21.05791,12.15891 c -11.58185,6.6874 -23.09953,13.38559 -25.59486,14.88484 l -4.53695,2.72592 -25.52456,-14.71641 c -14.03851,-8.09404 -25.737,-14.71643 -25.99663,-14.71643 -0.25964,0 -10.30465,5.71013 -22.32224,12.68916 -12.01758,6.97904 -23.51021,13.54775 -25.53915,14.59714 -3.43592,1.77709 -5.38095,0.93188 -28.35181,-12.32026 z m 51.25904,-36.53638 c 20.80985,-12.01201 25.07602,-13.96369 27.76961,-12.70395 1.75037,0.81862 13.10751,7.20518 25.23807,14.19234 12.13056,6.98718 22.75487,12.70122 23.60958,12.69785 0.8547,-0.003 5.2061,-2.20054 9.66979,-4.88265 l 8.11579,-4.87654 0.4227,-11.72337 0.42271,-11.72336 -25.50788,-14.77417 -25.50788,-14.77417 -0.39928,-29.80427 -0.39929,-29.80427 -9.10022,-5.33349 -9.10023,-5.3335 -5.99427,3.30392 c -3.29685,1.81715 -7.82033,4.57066 -10.05217,6.11889 l -4.05789,2.81498 v 29.27253 29.27253 l -25.13932,14.49968 -25.13931,14.49968 0.42304,11.73212 0.42304,11.73213 8.11579,4.83727 c 4.46369,2.66051 8.89986,4.86313 9.85816,4.89473 0.9583,0.0316 12.80656,-6.32911 26.32946,-14.13491 z"
       id="path109" />
    <path
       style="opacity:1;fill:#ff00ff;fill-opacity:1;stroke:#ffffff;stroke-width:0;stroke-linecap:butt;stroke-linejoin:round;stroke-dasharray:none;stroke-opacity:1"
       d="m 561.80329,352.54342 -24.74708,-14.12698 0.3997,-28.95145 0.39971,-28.95145 25.45407,-14.63335 25.45407,-14.63335 V 221.51782 191.7888 l 23.24068,-13.53495 c 12.78237,-7.44422 24.33595,-13.95506 25.67463,-14.46853 1.57202,-0.60298 11.10857,4.12613 26.92967,13.35425 l 24.49571,14.28783 v 29.37576 29.37577 l 6.39542,4.02539 c 3.51748,2.21397 15.13886,9.00554 25.82531,15.09239 l 19.42988,11.06699 -0.37123,29.32753 -0.37123,29.32753 -24.12177,13.83372 c -13.26697,7.60854 -24.74196,13.83372 -25.49998,13.83372 -0.758,0 -12.37915,-6.30818 -25.82476,-14.01818 -13.44561,-7.71 -24.79302,-14.01819 -25.21648,-14.01819 -0.42345,0 -11.86483,6.30819 -25.42529,14.01819 -13.56046,7.71 -25.26705,14.01463 -26.01467,14.01029 -0.7476,-0.004 -12.49547,-6.36504 -26.10636,-14.13489 z m 51.11686,-35.28976 c 13.44561,-7.71001 25.20416,-14.01819 26.13012,-14.01819 0.92596,0 12.85675,6.36429 26.51288,14.14286 l 24.82932,14.14284 9.68518,-5.41625 9.68518,-5.41626 -0.009,-11.3089 -0.009,-11.30888 -25.76909,-14.75599 -25.76908,-14.75598 -0.0453,-29.81018 -0.0453,-29.81018 -9.22249,-5.42255 -9.22249,-5.42254 -9.59139,5.25248 -9.59139,5.25248 -0.39783,30.01796 -0.39783,30.01797 -25.42514,14.80099 -25.42515,14.80099 v 10.94793 10.94792 l 8.85359,5.47931 c 4.86948,3.01363 9.28632,5.52005 9.8152,5.56984 0.52889,0.0498 11.96257,-6.21767 25.40818,-13.92767 z"
       id="path110" />
    <path
       style="opacity:1;fill:#ff00ff;fill-opacity:1;stroke:#ffffff;stroke-width:0;stroke-linecap:butt;stroke-linejoin:round;stroke-dasharray:none;stroke-opacity:1"
       d="m 882.03894,167.93628 -24.71627,-14.1522 V 125.21789 96.651695 l 29.88087,0.0226 c 20.07962,0.01518 29.15485,0.497839 27.66747,1.471462 -1.21737,0.796877 -7.68939,4.604813 -14.38227,8.462093 l -12.16887,7.01323 -0.005,11.12929 -0.005,11.12929 9.62118,5.62816 9.62118,5.62815 25.68738,-14.77714 c 29.25197,-16.82773 26.97473,-16.76189 34.25813,-0.99055 4.0535,8.77736 6.82106,28.74611 3.98105,28.72442 -0.70026,-0.005 -3.26527,-1.32901 -5.70001,-2.94147 -2.43473,-1.61246 -5.42282,-2.92397 -6.64019,-2.91445 -1.21737,0.01 -13.11413,6.31332 -26.43725,14.00846 -13.32312,7.69514 -24.61145,13.95788 -25.08517,13.9172 -0.47373,-0.0407 -11.98365,-6.44245 -25.5776,-14.22616 z"
       id="path111" />
    <path
       style="opacity:1;fill:#00ffff;fill-opacity:1;stroke:#ffffff;stroke-width:0;stroke-linecap:butt;stroke-linejoin:round;stroke-dasharray:none;stroke-opacity:1"
       d="M 102.92299,456.51805 97.389495,453.676 v -17.81768 -17.81768 l 5.254965,3.1005 c 6.11649,3.60883 2.70268,4.94567 34.29496,-13.43004 l 22.58054,-13.13404 25.69486,14.9173 25.69486,14.9173 9.65622,-5.62206 9.65622,-5.62205 -0.38328,-11.66009 -0.38329,-11.66009 -23.60957,-13.72552 c -12.98527,-7.54904 -24.2736,-13.97669 -25.08518,-14.28367 -0.88285,-0.33395 -1.77197,-12.6203 -2.21339,-30.58609 l -0.7378,-30.02793 -8.11579,-4.83929 c -4.46369,-2.66161 -8.91024,-4.86515 -9.88124,-4.89674 -0.97099,-0.0316 -5.77145,2.29042 -10.6677,5.16003 l -8.90226,5.21747 -0.39929,29.72734 -0.39928,29.72735 -19.92058,11.44478 c -10.95632,6.29464 -20.418592,11.48608 -21.027277,11.53654 -0.608684,0.0505 -1.101584,-7.71048 -1.095333,-17.24654 l 0.01137,-17.33828 5.86055,-3.34662 5.86056,-3.34662 0.39937,-29.63719 0.39937,-29.63719 23.98792,-13.86644 c 13.19336,-7.62654 24.81369,-13.84464 25.82297,-13.818 1.00928,0.0267 12.45936,6.21107 25.44463,13.74316 l 23.60957,13.69471 0.7378,29.78232 0.7378,29.78233 25.08518,14.55041 25.08517,14.55042 0.35323,29.35331 0.35323,29.35331 -25.2383,14.40682 -25.2383,14.40679 -25.55226,-14.87605 -25.55226,-14.87605 -24.81819,14.32872 c -13.65,7.8808 -25.1502,14.50118 -25.55599,14.71194 -0.40579,0.21076 -3.22787,-0.89572 -6.27129,-2.45885 z"
       id="path112" />
    <path
       style="opacity:1;fill:#00ffff;fill-opacity:1;stroke:#ffffff;stroke-width:0;stroke-linecap:butt;stroke-linejoin:round;stroke-dasharray:none;stroke-opacity:1"
       d="m 402.51032,260.7172 -24.67541,-14.29227 0.32804,-29.41872 0.32804,-29.41873 23.04342,-13.37363 c 12.67388,-7.35549 24.12821,-14.28495 25.45407,-15.3988 2.0809,-1.74815 2.41065,-6.01588 2.41065,-31.1986 0,-25.24111 0.31462,-29.294139 2.33409,-30.069083 1.28374,-0.492619 23.06358,-0.895672 48.39962,-0.895672 33.8613,0 46.53467,0.469121 47.83627,1.770718 1.25741,1.257423 1.77072,10.200347 1.77072,30.850457 v 29.07974 l 25.45407,14.73408 25.45407,14.73408 0.39984,28.85859 0.39985,28.85859 -17.36923,10.21246 c -9.55307,5.61685 -21.02837,12.26427 -25.50065,14.77206 l -8.13145,4.55962 -25.54709,-14.7939 -25.5471,-14.79389 -25.51163,14.8524 c -14.03139,8.16883 -25.76883,14.80974 -26.0832,14.75758 -0.31436,-0.0522 -11.67551,-6.52634 -25.24699,-14.38708 z m 47.96321,-33.99374 c 12.35067,-7.1837 23.95184,-13.84834 25.78038,-14.81032 2.97206,-1.56357 6.01523,-0.19047 28.69704,12.94829 l 25.37243,14.69733 4.50391,-2.32227 c 2.47716,-1.27725 7.02147,-3.90815 10.09847,-5.84645 l 5.59453,-3.52418 -0.42994,-11.23211 -0.42995,-11.2321 -25.45407,-14.73899 -25.45407,-14.73899 v -29.23611 -29.23611 l -8.93265,-5.23528 c -4.91295,-2.87941 -9.72709,-5.20944 -10.69809,-5.17784 -0.97099,0.0316 -5.41754,2.23547 -9.88123,4.89751 l -8.11579,4.84007 -0.7378,29.76134 -0.7378,29.76135 -25.08517,14.44412 -25.08517,14.44411 -0.40176,11.76546 -0.40177,11.76546 9.25536,5.39689 c 5.09044,2.96828 9.44255,5.45835 9.67136,5.53349 0.22881,0.0751 10.52111,-5.74096 22.87178,-12.92467 z"
       id="path113" />
    <path
       style="opacity:1;fill:#ffff00;fill-opacity:1;stroke:#ffffff;stroke-width:0;stroke-linecap:butt;stroke-linejoin:round;stroke-dasharray:none;stroke-opacity:1"
       d="m 242.41159,352.9316 -23.93391,-13.54397 -0.0446,-29.54204 -0.0446,-29.54203 25.08518,-14.48035 25.08517,-14.48035 0.0153,-29.75753 0.0153,-29.75754 24.8784,-14.38708 c 13.68313,-7.9129 25.3827,-14.38709 25.99906,-14.38709 0.61636,0 12.31594,6.47419 25.99906,14.38709 l 24.87841,14.38708 0.0153,29.72717 0.0154,29.72718 25.45407,14.72488 25.45407,14.72489 0.39945,28.76348 0.39944,28.76347 -24.95365,14.21367 c -13.72451,7.81751 -25.55953,14.21367 -26.30005,14.21367 -0.74051,0 -12.44386,-6.30818 -26.00743,-14.01818 -13.56357,-7.71 -25.00363,-14.01819 -25.42234,-14.01819 -0.41872,0 -11.76226,6.30819 -25.20787,14.01819 -13.44561,7.71 -25.2113,13.97079 -26.14597,13.91287 -0.93468,-0.0579 -12.46967,-6.20011 -25.63333,-13.64929 z m 50.76357,-35.67794 c 13.56357,-7.71001 25.4607,-14.01819 26.43808,-14.01819 0.97737,0 12.83864,6.34296 26.35838,14.09548 l 24.58136,14.09547 9.5025,-5.3141 9.5025,-5.3141 v -11.40037 -11.40038 l -25.45407,-14.74204 -25.45408,-14.74203 -0.7378,-30.13285 -0.7378,-30.13284 -8.75297,-5.11231 -8.75298,-5.1123 -7.4786,4.12529 c -13.49428,7.4436 -12.6432,4.90746 -12.6432,37.67591 v 29.09412 l -25.08518,14.48268 -25.08517,14.48267 v 11.44399 11.44399 l 9.22249,5.22729 c 5.07237,2.87501 9.37841,5.23753 9.56899,5.25005 0.19058,0.0125 11.44397,-6.28543 25.00755,-13.99543 z"
       id="path114" />
    <path
       style="opacity:1;fill:#ffff00;fill-opacity:1;stroke:#ffffff;stroke-width:0;stroke-linecap:butt;stroke-linejoin:round;stroke-dasharray:none;stroke-opacity:1"
       d="m 561.83845,167.75596 -24.71192,-14.29373 -0.004,-28.40527 -0.004,-28.405265 h 29.7579 c 16.36684,0 29.30053,0.457368 28.74153,1.016373 -0.55901,0.559004 -6.81186,4.393602 -13.89522,8.521342 l -12.87885,7.50496 -0.43236,10.60287 -0.43236,10.60287 5.59696,3.48893 c 3.07832,1.91891 7.61259,4.66038 10.07614,6.09215 l 4.47919,2.60322 25.54886,-14.91947 25.54886,-14.91948 25.65853,14.93792 25.65854,14.93793 9.60864,-5.62082 9.60865,-5.62083 v -11.23417 -11.23417 l -12.17369,-6.89406 c -6.69552,-3.79173 -13.16971,-7.552477 -14.38708,-8.357215 -1.50095,-0.992198 7.40464,-1.470432 27.66747,-1.485754 l 29.88087,-0.0226 v 28.578559 28.57856 L 715.64365,168.188 690.5362,182.5672 665.63537,168.38362 c -13.69546,-7.80097 -25.68683,-14.18359 -26.64749,-14.18359 -0.96067,0 -12.62195,6.30819 -25.91395,14.01819 -13.29201,7.71 -24.69729,13.97617 -25.34507,13.92483 -0.64778,-0.0513 -12.29815,-6.52554 -25.8897,-14.38709 z"
       id="path115" />
    <path
       style="opacity:1;fill:#000000;fill-opacity:1;stroke:#ffffff;stroke-width:0;stroke-linecap:butt;stroke-linejoin:round;stroke-dasharray:none;stroke-opacity:1"
       d="m 102.92299,272.06825 -5.533495,-2.84205 v -17.70191 -17.70192 l 5.616005,2.86507 5.61602,2.86508 25.43911,-14.73597 25.43912,-14.73597 25.63321,14.83336 25.63321,14.83336 9.74302,-5.51477 9.74303,-5.51478 -0.39834,-11.80478 -0.39833,-11.80479 -23.60957,-13.53051 c -12.98527,-7.44178 -24.4396,-14.27416 -25.45408,-15.18306 -1.35578,-1.2147 -1.84449,-9.2603 -1.84449,-30.36584 v -28.71328 l -7.0091,-4.43697 c -10.77393,-6.82024 -12.39086,-6.87576 -22.44098,-0.77064 l -8.91548,5.41587 v 29.288 29.28799 l -20.81404,11.92192 c -11.44772,6.55706 -21.076002,11.92192 -21.396177,11.92192 -0.320176,0 -0.582138,-7.84596 -0.582138,-17.43546 v -17.43546 l 5.902395,-3.31733 5.90239,-3.31733 v -19.63823 -19.63823 l 6.50708,-5.99802 c 8.65441,-7.97736 19.14263,-13.10931 30.58666,-14.966264 10.07033,-1.634047 57.04222,-2.135197 60.91287,-0.649889 2.02207,0.77594 2.33408,4.890753 2.33408,30.781373 v 29.88571 l 25.45408,14.66204 25.45407,14.66205 v 29.40571 29.40572 l -24.80116,14.40336 -24.80117,14.40335 -25.66087,-14.84278 -25.66088,-14.84278 -24.79348,14.3252 c -13.63641,7.87887 -25.12549,14.50268 -25.53128,14.71959 -0.40579,0.21692 -3.22787,-0.88453 -6.27129,-2.44766 z"
       id="path116" />
    <path
       style="opacity:1;fill:#ffffff;fill-opacity:1;stroke:#ffffff;stroke-width:0;stroke-linecap:butt;stroke-linejoin:round;stroke-dasharray:none;stroke-opacity:1"
       d="M 242.36704,167.93752 218.38856,153.90516 V 125.27843 96.651695 l 29.88087,0.02488 29.88087,0.02488 -14.38709,8.382865 -14.38708,8.38287 v 11.38584 11.38582 l 9.55222,5.34191 9.55221,5.3419 22.54205,-13.11158 c 12.39813,-7.21138 23.94654,-13.84965 25.66314,-14.75171 2.70411,-1.421 6.50767,0.32891 28.46909,13.0978 l 25.348,14.73793 9.52757,-5.32812 9.52757,-5.32813 v -11.38582 -11.38584 l -14.38709,-8.38287 -14.38708,-8.382865 30.65052,-0.02488 30.65054,-0.02488 -0.40077,28.364035 -0.40076,28.36403 -19.92057,11.58758 c -10.95632,6.37317 -22.34076,12.9489 -25.29873,14.61273 l -5.37815,3.02515 -24.60485,-14.20259 c -13.53267,-7.81143 -25.42235,-14.2026 -26.4215,-14.2026 -0.99916,0 -12.73955,6.29054 -26.08974,13.97897 -13.3502,7.68843 -24.93711,13.93664 -25.74869,13.88492 -0.81158,-0.0517 -12.26591,-6.4086 -25.45407,-14.1264 z"
       id="path117" />
    <path
       style="opacity:1;fill:#ffffff;fill-opacity:1;stroke:#ffffff;stroke-width:0;stroke-linecap:butt;stroke-linejoin:round;stroke-dasharray:none;stroke-opacity:1"
       d="m 102.10543,226.47203 c -4.521451,-2.75667 -4.842869,-3.46395 -4.426791,-9.7411 l 0.448655,-6.7686 24.347376,-14.08921 c 13.39105,-7.74906 24.83522,-14.81742 25.43147,-15.70746 0.59626,-0.89004 1.09428,-14.62807 1.1067,-30.52896 l 0.0226,-28.9107 5.20652,-2.8039 c 5.13497,-2.76536 5.28201,-2.76348 10.69809,0.13722 l 5.49157,2.94113 0.73779,30.22632 0.7378,30.22632 25.45408,14.74204 25.45407,14.74204 v 6.32717 c 0,5.98758 -0.33847,6.49162 -6.30633,9.39103 l -6.30634,3.06385 -24.4456,-14.15002 c -13.44508,-7.78251 -25.24764,-14.15002 -26.22792,-14.15002 -0.98027,0 -12.65759,6.30819 -25.94959,14.01819 -13.29201,7.71 -24.71436,14.0157 -25.38299,14.01267 -0.66864,-0.003 -3.40966,-1.34314 -6.09116,-2.97801 z"
       id="path118" />
    <path
       style="opacity:1;fill:#ffffff;fill-opacity:1;stroke:#ffffff;stroke-width:0;stroke-linecap:butt;stroke-linejoin:round;stroke-dasharray:none;stroke-opacity:1"
       d="m 102.10543,410.92183 c -4.522385,-2.75724 -4.842955,-3.46313 -4.426791,-9.74771 l 0.448655,-6.77522 25.085176,-14.52573 25.08517,-14.52572 0.7378,-29.9486 0.7378,-29.9486 5.16459,-2.75855 c 5.11518,-2.73216 5.21754,-2.72724 10.69809,0.51396 l 5.53349,3.27252 0.0486,29.73511 0.0486,29.73511 25.77436,14.70628 25.77437,14.70627 v 6.17525 c 0,5.51218 -0.56361,6.50779 -5.24894,9.2722 -2.88692,1.70332 -5.92406,3.09695 -6.7492,3.09695 -0.82514,0 -12.37553,-6.30818 -25.66754,-14.01818 -13.29201,-7.71 -24.81555,-14.01819 -25.60787,-14.01819 -0.79232,0 -12.33861,6.30819 -25.65842,14.01819 -13.31982,7.71 -24.8219,14.0157 -25.56018,14.01267 -0.73828,-0.003 -3.53628,-1.34314 -6.21778,-2.97801 z"
       id="path119" />
    <path
       style="opacity:1;fill:#ffffff;fill-opacity:1;stroke:#ffffff;stroke-width:0;stroke-linecap:butt;stroke-linejoin:round;stroke-dasharray:none;stroke-opacity:1"
       d="m 104.42997,411.52689 c -5.166282,-2.70689 -6.67448,-5.98273 -5.650671,-12.27338 0.775881,-4.7673 2.234071,-5.87966 25.170971,-19.20133 l 24.34737,-14.14088 1.18769,-30.19419 c 0.81099,-20.61742 1.74703,-30.56108 2.9512,-31.35095 4.22603,-2.77207 8.80909,-2.85269 13.65999,-0.24031 l 5.07289,2.73193 v 29.80269 29.80269 l 25.45408,14.54675 c 23.98994,13.71002 25.4806,14.81896 25.91533,19.27916 0.3516,3.60733 -0.48894,5.61303 -3.53557,8.43655 -2.19825,2.03727 -5.3803,3.70413 -7.07121,3.70413 -1.69092,0 -13.79728,-5.97617 -26.90303,-13.28038 -13.10574,-7.30421 -24.64121,-13.28039 -25.63436,-13.28039 -0.99315,0 -12.52851,6.06451 -25.63415,13.47668 -13.10563,7.41218 -24.163,13.65854 -24.57194,13.88081 -0.40893,0.22228 -2.5503,-0.54254 -4.75859,-1.69958 z"
       id="path120" />
    <path
       style="opacity:1;fill:#ffffff;fill-opacity:1;stroke:#ffffff;stroke-width:0;stroke-linecap:butt;stroke-linejoin:round;stroke-dasharray:none;stroke-opacity:1"
       d="m 261.47627,503.61582 c -4.48924,-2.77301 -4.83472,-3.52575 -4.4268,-9.64543 l 0.44245,-6.63771 23.60958,-13.67899 c 12.98526,-7.52345 24.43959,-14.4425 25.45407,-15.37567 1.35615,-1.24746 1.8445,-9.41805 1.8445,-30.86042 v -29.16375 l 5.45556,-3.11784 5.45556,-3.11784 5.60006,3.1967 5.60006,3.1967 0.0114,29.08489 c 0.008,21.36697 0.50082,29.53512 1.85586,30.78156 1.01447,0.93317 12.46881,7.85643 25.45407,15.38501 l 23.60958,13.68834 v 6.886 c 0,6.38096 -0.39606,7.11236 -5.39993,9.97205 l -5.39993,3.08604 -24.84984,-14.43764 c -13.66741,-7.94071 -25.51386,-14.43765 -26.32544,-14.43765 -0.81158,0 -12.49188,6.40077 -25.95624,14.22394 -13.46435,7.82317 -25.08469,14.16893 -25.82297,14.10169 -0.73828,-0.0672 -3.53349,-1.47572 -6.21157,-3.12998 z"
       id="path121" />
    <path
       style="opacity:1;fill:#ffffff;fill-opacity:1;stroke:#ffffff;stroke-width:0;stroke-linecap:butt;stroke-linejoin:round;stroke-dasharray:none;stroke-opacity:1"
       d="m 420.91444,226.24628 c -4.18116,-2.58487 -4.79569,-3.76053 -4.79569,-9.17469 v -6.20991 l 25.45407,-14.75226 25.45407,-14.75225 0.40449,-30.17905 0.40448,-30.17905 5.75294,-3.13513 5.75294,-3.13513 6.01626,3.58766 6.01627,3.58767 0.0535,29.79723 0.0535,29.79723 24.66281,14.22193 24.66281,14.22194 v 7.17138 c 0,6.70556 -0.34062,7.35394 -5.24401,9.982 l -5.24401,2.81062 -24.65019,-14.24364 c -13.55761,-7.83401 -25.38207,-14.24365 -26.27659,-14.24365 -0.89451,0 -12.55481,6.30819 -25.91176,14.01819 -13.35696,7.71 -25.06944,13.96317 -26.02774,13.89593 -0.95831,-0.0672 -3.90043,-1.45639 -6.53807,-3.08702 z"
       id="path122" />
    <path
       style="opacity:1;fill:#ffffff;fill-opacity:1;stroke:#ffffff;stroke-width:0;stroke-linecap:butt;stroke-linejoin:round;stroke-dasharray:none;stroke-opacity:1"
       d="m 581.75467,319.29729 c -4.2882,-2.74624 -4.7941,-3.79763 -4.78065,-9.93543 l 0.015,-6.86419 24.70123,-14.06753 24.70122,-14.06753 0.7378,-30.1557 0.7378,-30.1557 5.80379,-3.25332 5.80378,-3.25332 5.62074,3.2086 5.62074,3.2086 0.0114,29.78856 0.0114,29.78855 25.15473,14.32821 25.15474,14.32822 -0.43846,7.45482 c -0.39207,6.66588 -0.95041,7.75293 -5.2758,10.27162 l -4.83734,2.8168 -22.46124,-12.9331 c -12.35367,-7.11321 -23.81796,-13.81187 -25.47619,-14.88592 -2.72045,-1.76204 -5.49445,-0.5143 -28.39713,12.77296 -13.96019,8.09917 -25.88384,14.71457 -26.497,14.7009 -0.61317,-0.0137 -3.27291,-1.40692 -5.91054,-3.0961 z"
       id="path123" />
    <path
       style="opacity:1;fill:#ffffff;fill-opacity:1;stroke:#ffffff;stroke-width:0;stroke-linecap:butt;stroke-linejoin:round;stroke-dasharray:none;stroke-opacity:1"
       d="m 901.95952,134.84749 c -4.32242,-2.76816 -4.79569,-3.77314 -4.79569,-10.1836 v -7.11235 l 15.64048,-8.97432 c 8.60226,-4.93588 16.59182,-8.974328 17.75457,-8.974328 3.44075,0 12.55749,4.235928 17.92028,8.326328 l 4.99283,3.80821 -22.62059,13.08659 c -12.44132,7.19762 -22.95259,13.08841 -23.35838,13.09065 -0.40579,0.002 -2.89586,-1.378 -5.5335,-3.06718 z"
       id="path124" />
    <path
       style="opacity:1;fill:#ffffff;fill-opacity:1;stroke:#ffffff;stroke-width:0;stroke-linecap:butt;stroke-linejoin:round;stroke-dasharray:none;stroke-opacity:1"
       d="m 722.6444,814.28897 -24.7462,-14.17423 0.39882,-29.51018 0.39882,-29.51018 24.71628,-14.1368 24.71627,-14.1368 v -29.09597 -29.09596 l 4.0579,-2.80324 c 6.54086,-4.51849 45.79403,-26.91246 47.11693,-26.88025 0.6649,0.0162 11.83322,6.19989 24.81849,13.74156 l 23.60957,13.71212 0.7378,29.97158 0.7378,29.97159 25.08517,14.39097 25.08518,14.39097 0.3991,29.58448 0.39911,29.58448 -24.95346,14.21355 -24.95345,14.21356 -24.83421,-14.34998 c -13.65882,-7.89248 -25.51803,-14.33362 -26.3538,-14.31361 -0.83577,0.02 -12.09813,6.17382 -25.02746,13.67515 -12.92933,7.50135 -24.21766,13.88465 -25.08517,14.18511 -0.86752,0.30046 -12.71309,-5.8321 -26.32349,-13.62792 z m 50.29327,-35.41895 c 13.5252,-7.84526 25.37312,-14.26411 26.32871,-14.26411 0.9556,0 12.79433,6.47389 26.3083,14.38644 l 24.57084,14.38645 9.85988,-5.67744 9.85986,-5.67743 v -11.02036 -11.02036 l -25.45407,-14.7443 -25.45408,-14.7443 v -29.84535 -29.84535 l -9.84378,-5.50496 -9.84378,-5.50495 -9.70789,5.33244 -9.7079,5.33244 -0.7378,30.34301 -0.7378,30.343 -25.08518,14.47065 -25.08517,14.47065 v 10.9108 10.9108 l 9.59139,5.5843 c 5.27527,3.07135 9.80645,5.59728 10.06929,5.61316 0.26285,0.0159 11.54398,-6.38996 25.06918,-14.23523 z"
       id="path125" />
    <path
       style="opacity:1;fill:#ffffff;fill-opacity:1;stroke:#ffffff;stroke-width:0;stroke-linecap:butt;stroke-linejoin:round;stroke-dasharray:none;stroke-opacity:1"
       d="m 377.77315,949.91647 0.02,-23.24067 23.21563,-13.28039 c 12.76859,-7.30421 24.37995,-14.44242 25.80301,-15.86268 2.28858,-2.28409 2.58737,-5.89056 2.58737,-31.22955 v -28.64726 l 24.46539,-14.23057 c 13.45597,-7.82681 25.24958,-14.0261 26.20803,-13.7762 0.95845,0.24991 12.52568,6.68921 25.70496,14.30956 l 23.96232,13.85519 v 29.68356 29.68356 l 25.45407,14.75606 25.45407,14.75607 0.40637,23.232 0.40638,23.232 h -21.03839 -21.03839 l 5.56984,-3.78481 5.56985,-3.78481 -0.43161,-10.59751 -0.43162,-10.59751 -25.42518,-14.73541 -25.42518,-14.7354 -0.39779,-30.07575 -0.39779,-30.07575 -9.59139,-5.20238 -9.59139,-5.20238 -9.22249,5.44261 -9.22249,5.4426 -0.0169,29.81018 -0.0169,29.81018 -25.78192,14.75598 -25.78192,14.75599 -0.0242,11.14584 -0.0242,11.14586 5.53349,3.20733 5.5335,3.20735 -21.02728,0.0339 -21.02728,0.0339 z"
       id="path126" />
    <path
       style="opacity:1;fill:#ffff00;fill-opacity:1;stroke:#ffffff;stroke-width:0;stroke-linecap:butt;stroke-linejoin:round;stroke-dasharray:none;stroke-opacity:1"
       d="m 562.80409,906.89316 -24.94847,-14.47334 -0.39964,-28.84876 -0.39964,-28.84878 25.85371,-15.00952 25.85371,-15.00952 0.008,-29.76303 0.008,-29.76302 23.97058,-13.56395 c 13.18382,-7.46018 24.71369,-13.76836 25.62194,-14.01819 0.90825,-0.24982 12.6946,5.8228 26.19188,13.49471 l 24.5405,13.94894 v 29.66532 29.66533 l 25.45408,14.77645 25.45407,14.77645 v 29.38324 29.38325 l -24.78077,14.40806 -24.78077,14.40806 -21.3632,-12.51781 c -11.74975,-6.88481 -23.35708,-13.5489 -25.79405,-14.80911 -4.40756,-2.27924 -4.54905,-2.2223 -26.89816,10.82723 -12.35701,7.21519 -23.85685,13.84815 -25.55519,14.73993 -2.65842,1.39589 -6.55779,-0.39159 -28.03637,-12.85194 z m 51.52875,-36.18784 24.83128,-14.33633 25.69607,14.78213 25.69606,14.78214 9.58963,-5.45171 9.58964,-5.4517 -0.0316,-11.80479 -0.0316,-11.80478 -25.76908,-14.75599 -25.76908,-14.75598 -0.0261,-29.51197 -0.0261,-29.51197 -8.73166,-4.79569 c -4.80241,-2.63763 -9.40709,-4.7957 -10.23262,-4.7957 -0.82553,0 -5.52066,2.35588 -10.43361,5.23529 l -8.93265,5.23528 v 29.33124 29.33125 l -23.6204,13.50664 c -12.99122,7.42866 -24.61156,14.49781 -25.82297,15.70922 -2.43488,2.43488 -3.0968,18.95446 -0.89847,22.42319 1.38763,2.18955 18.0945,12.03117 19.32287,11.38265 0.42306,-0.22336 11.94328,-6.85745 25.60048,-14.74242 z"
       id="path127" />
    <path
       style="opacity:1;fill:#ffff00;fill-opacity:1;stroke:#ffffff;stroke-width:0;stroke-linecap:butt;stroke-linejoin:round;stroke-dasharray:none;stroke-opacity:1"
       d="m 268.55891,951.91193 v -21.24521 l 24.71627,-14.36225 c 13.59395,-7.89924 25.38029,-14.36225 26.19187,-14.36225 0.81158,0 12.59793,6.46301 26.19188,14.36225 l 24.71627,14.36225 v 21.24521 21.24522 h -16.23158 -16.23159 l -0.002,-12.91149 -0.002,-12.91149 -9.31419,-5.02183 -9.31418,-5.02183 -9.86663,5.51773 -9.86662,5.51773 v 12.41559 12.41559 h -15.49379 -15.49378 z"
       id="path128" />
    <path
       style="opacity:1;fill:#ffff00;fill-opacity:1;stroke:#ffffff;stroke-width:0;stroke-linecap:butt;stroke-linejoin:round;stroke-dasharray:none;stroke-opacity:1"
       d="m 883.0517,722.51008 -24.99123,-14.53042 v -29.20597 -29.20598 l 25.45407,-14.74446 25.45408,-14.74446 v -29.78701 -29.78701 l 25.09523,-14.41009 25.09524,-14.41009 6.63013,3.88552 6.63013,3.88551 v 17.67497 17.67497 l -5.84361,-2.98119 c -7.66723,-3.91153 -8.66953,-3.81569 -18.371,1.75654 l -8.24856,4.73773 v 29.21936 29.21937 l -7.74689,4.88286 c -4.26079,2.68557 -15.88209,9.48352 -25.82511,15.10655 l -18.07823,10.2237 0.37104,11.70576 0.37105,11.70576 8.11579,4.83727 c 4.46368,2.66051 9.08651,4.86313 10.27295,4.89473 1.18643,0.0316 13.32344,-6.3029 26.97112,-14.07667 l 24.81396,-14.1341 6.59874,3.86712 6.59875,3.86712 v 17.70718 17.70718 l -6.678,-3.91356 -6.67799,-3.91357 -22.46507,12.93533 c -12.3558,7.11442 -23.83539,13.82298 -25.51022,14.9079 -2.76023,1.78801 -5.38342,0.61305 -28.03637,-12.55785 z"
       id="path129" />
    <path
       style="opacity:1;fill:#00ffff;fill-opacity:1;stroke:#ffffff;stroke-width:0;stroke-linecap:butt;stroke-linejoin:round;stroke-dasharray:none;stroke-opacity:1"
       d="m 697.95804,949.85888 v -23.29827 l 25.08518,-14.46845 25.08517,-14.46845 v -29.35207 -29.35208 l 5.53349,-3.54251 c 10.29112,-6.58831 44.41078,-26.01156 45.63483,-25.97846 0.66848,0.0181 11.83973,6.23913 24.825,13.82457 l 23.60957,13.7917 0.7378,30.04049 0.7378,30.04049 25.45407,14.63693 25.45408,14.63693 v 23.39372 23.39373 h -19.92058 c -10.95632,0 -19.92058,-0.26642 -19.92058,-0.59204 0,-0.32564 2.35327,-1.98051 5.22947,-3.67752 l 5.22947,-3.08546 -0.43377,-10.63277 -0.43378,-10.63277 -25.42514,-14.79507 -25.42515,-14.79507 -0.39783,-30.01797 -0.39783,-30.01796 -9.63197,-5.29164 -9.63198,-5.29164 -9.9197,5.70531 -9.9197,5.70531 v 29.73031 29.7303 l -25.45408,14.73852 -25.45407,14.73852 -0.43378,10.56331 -0.43377,10.56331 5.22947,3.08546 c 2.87621,1.69701 5.22947,3.35188 5.22947,3.67752 0,0.32562 -8.96426,0.59204 -19.92058,0.59204 h -19.92058 z"
       id="path130" />
    <path
       style="opacity:1;fill:#ffffff;fill-opacity:1;stroke:#ffffff;stroke-width:0;stroke-linecap:butt;stroke-linejoin:round;stroke-dasharray:none;stroke-opacity:1"
       d="m 436.90009,972.61638 c 0.33816,-0.29742 10.02955,-5.92967 21.53642,-12.51612 l 20.92159,-11.97535 20.1507,11.65682 c 11.08289,6.41125 20.53739,12.04351 21.01001,12.51612 0.47261,0.47261 -18.2866,0.8593 -41.68713,0.8593 -23.40053,0 -42.26974,-0.24335 -41.93159,-0.54077 z"
       id="path131" />
    <path
       style="opacity:1;fill:#ff00ff;fill-opacity:1;stroke:#ffffff;stroke-width:0;stroke-linecap:butt;stroke-linejoin:round;stroke-dasharray:none;stroke-opacity:1"
       d="M 883.0797,907.01882 858.06047,892.58403 V 863.3598 834.13557 l 25.45407,-14.73543 25.45408,-14.73543 0.0206,-29.74376 0.0206,-29.74376 24.97495,-14.33329 24.97494,-14.3333 6.72981,3.76136 6.72982,3.76137 v 17.70399 c 0,9.73719 -0.49802,17.46533 -1.1067,17.17363 -0.60869,-0.2917 -3.64165,-1.81946 -6.73992,-3.39502 l -5.63322,-2.86466 -9.4897,5.11655 -9.48969,5.11655 -0.002,28.96239 c -0.002,24.72307 -0.34686,29.24863 -2.35823,30.91792 -1.29595,1.07554 -12.75028,7.97128 -25.45408,15.32387 l -23.0978,13.36835 -0.36796,11.78648 -0.36797,11.78647 9.79087,5.53499 9.79086,5.535 25.64174,-14.88646 25.64173,-14.88646 6.62102,3.88017 6.62102,3.88018 v 17.70718 17.70718 l -6.64408,-3.89369 -6.64407,-3.89369 -22.499,12.94534 c -12.37444,7.11992 -23.8567,13.81127 -25.51613,14.86968 -2.71043,1.72872 -5.56044,0.45699 -28.03637,-12.51045 z"
       id="path132" />
    <path
       style="opacity:1;fill:#ff00ff;fill-opacity:1;stroke:#ffffff;stroke-width:0;stroke-linecap:butt;stroke-linejoin:round;stroke-dasharray:none;stroke-opacity:1"
       d="m 589.09321,951.60834 0.40835,-21.5488 23.98792,-13.86556 c 13.19336,-7.62606 24.76709,-13.86556 25.71941,-13.86556 0.95232,0 12.54661,6.14218 25.7651,13.64929 l 24.03361,13.64928 0.0484,21.76508 0.0484,21.76508 h -15.49378 -15.49378 v -12.53988 -12.53988 l -7.0091,-4.43697 c -10.56561,-6.68836 -12.05516,-6.73926 -22.25641,-0.76046 l -9.10005,5.33339 v 12.4719 12.4719 H 604.2181 588.68487 Z"
       id="path133" />
    <path
       style="opacity:1;fill:#00ffff;fill-opacity:1;stroke:#ffffff;stroke-width:0;stroke-linecap:butt;stroke-linejoin:round;stroke-dasharray:none;stroke-opacity:1"
       d="m 768.04897,966.28564 c 6.49263,-3.75002 16.12091,-9.32802 21.39617,-12.39558 l 9.59139,-5.57736 8.1158,4.62257 c 4.46368,2.54242 14.09196,8.12524 21.39617,12.40627 l 13.28039,7.7837 -42.79236,-0.0107 -42.79235,-0.0107 z"
       id="path134" />
    <path
       style="opacity:1;fill:#000000;fill-opacity:1;stroke:#ffffff;stroke-width:0;stroke-linecap:butt;stroke-linejoin:round;stroke-dasharray:none;stroke-opacity:1"
       d="m 909.29682,951.67575 0.40959,-21.91575 23.60958,-13.63572 c 12.98527,-7.49964 24.47405,-13.67175 25.53063,-13.71579 1.05658,-0.044 4.53757,1.41398 7.73553,3.24003 5.68527,3.24632 5.81472,3.50486 5.82583,11.63534 0.0153,11.20084 -4.0625,23.89536 -7.24253,22.5465 -5.67289,-2.40626 -8.72654,-1.8947 -16.35568,2.73994 l -8.11579,4.93029 -0.7378,10.24598 -0.7378,10.24598 -5.90239,1.93103 c -3.24632,1.06207 -10.07083,2.32184 -15.16558,2.79948 l -9.26318,0.86844 z"
       id="path135" />
    <path
       style="opacity:1;fill:#000000;fill-opacity:1;stroke:#ffffff;stroke-width:0;stroke-linecap:butt;stroke-linejoin:round;stroke-dasharray:none;stroke-opacity:1"
       d="m 421.65224,965.45522 c -5.11943,-2.96734 -5.53241,-3.71012 -5.5191,-9.92639 l 0.0144,-6.71906 25.80858,-14.52496 25.80858,-14.52497 0.0114,-29.74299 0.0114,-29.74298 5.86986,-3.35197 5.86986,-3.35198 5.89301,3.7201 5.89301,3.72009 0.39945,29.73744 0.39946,29.73745 24.34737,13.83711 24.34737,13.8371 v 7.48698 c 0,7.0064 -0.33246,7.6798 -5.17947,10.49083 l -5.17947,3.00385 -25.5432,-14.85143 -25.5432,-14.85142 -23.13667,13.35472 c -12.72517,7.3451 -23.76749,13.93588 -24.53849,14.64617 -2.08547,1.92126 -3.92414,1.55777 -10.03407,-1.98369 z"
       id="path136" />
    <path
       style="opacity:1;fill:#000000;fill-opacity:1;stroke:#ffffff;stroke-width:0;stroke-linecap:butt;stroke-linejoin:round;stroke-dasharray:none;stroke-opacity:1"
       d="m 581.67492,872.78413 c -4.52731,-2.76024 -4.84342,-3.4588 -4.4268,-9.78276 l 0.44865,-6.81026 24.68614,-14.1902 24.68613,-14.19021 0.0301,-29.79723 0.0301,-29.79723 6.12559,-3.65286 6.12559,-3.65286 5.3103,3.35844 5.3103,3.35844 0.7378,29.98326 0.73779,29.98326 24.34738,14.14095 24.34737,14.14094 0.43718,7.47763 c 0.43157,7.38191 0.36504,7.51016 -5.19748,10.0185 l -5.63464,2.54087 -24.31107,-14.09076 c -13.37109,-7.74992 -25.19343,-14.09077 -26.27188,-14.09077 -1.07844,0 -12.76455,6.30818 -25.96913,14.01819 -13.20457,7.71 -24.60811,14.0157 -25.34119,14.01267 -0.73307,-0.003 -3.52682,-1.34314 -6.20831,-2.97801 z"
       id="path137" />
    <path
       style="opacity:1;fill:#000000;fill-opacity:1;stroke:#ffffff;stroke-width:0;stroke-linecap:butt;stroke-linejoin:round;stroke-dasharray:none;stroke-opacity:1"
       d="m 741.87154,780.89513 c -5.08759,-3.00033 -5.52017,-3.78092 -5.53349,-9.98512 l -0.0144,-6.73034 25.45407,-14.6789 25.45408,-14.6789 0.39864,-29.6128 0.39864,-29.6128 5.50375,-3.07936 c 5.38454,-3.01266 5.61562,-3.02127 10.66835,-0.3974 l 5.16459,2.68197 0.7378,30.01116 0.7378,30.01115 25.45407,14.67794 25.45408,14.67794 -0.0114,6.73034 c -0.0106,6.25088 -0.41347,6.9599 -5.65575,9.95256 l -5.64439,3.2222 -25.59458,-14.56938 c -21.95247,-12.49617 -26.02963,-14.33868 -28.65191,-12.9481 -1.68153,0.89171 -13.22426,7.49198 -25.6505,14.66727 -12.42624,7.1753 -22.71854,13.0166 -22.87177,12.98067 -0.15324,-0.0359 -2.76218,-1.52997 -5.79766,-3.3201 z"
       id="path138" />
    <path
       style="opacity:1;fill:#000000;fill-opacity:1;stroke:#ffffff;stroke-width:0;stroke-linecap:butt;stroke-linejoin:round;stroke-dasharray:none;stroke-opacity:1"
       d="m 901.87977,688.33433 c -4.54139,-2.76883 -4.84471,-3.44613 -4.4268,-9.88503 l 0.44866,-6.91253 24.34737,-14.12049 24.34737,-14.12048 0.7378,-30.21653 0.7378,-30.21652 5.49157,-2.94113 c 5.41608,-2.9007 5.56312,-2.90258 10.69808,-0.13722 l 5.20653,2.8039 v 29.19252 c 0,17.86996 0.57232,29.54623 1.4756,30.10448 1.43239,0.88527 2.18077,27.29858 0.77346,27.29858 -0.38617,0 -2.87624,-1.32556 -5.53349,-2.94569 -2.65725,-1.62012 -5.82893,-2.94816 -7.04819,-2.95119 -1.21925,-0.003 -13.10045,6.30266 -26.40267,14.01267 -13.30221,7.71 -24.589,14.0157 -25.08174,14.01267 -0.49275,-0.003 -3.08985,-1.34314 -5.77135,-2.97801 z"
       id="path139" />
    <path
       style="opacity:1;fill:#000000;fill-opacity:1;stroke:#ffffff;stroke-width:0;stroke-linecap:butt;stroke-linejoin:round;stroke-dasharray:none;stroke-opacity:1"
       d="m 308.40007,962.31426 v -10.84288 l 5.63511,-2.54108 c 5.34366,-2.40966 5.91607,-2.40711 11.06699,0.0492 l 5.43187,2.59028 v 10.79369 10.79369 h -11.06699 -11.06698 z"
       id="path140" />
    <path
       style="opacity:1;fill:#000000;fill-opacity:1;stroke:#ffffff;stroke-width:0;stroke-linecap:butt;stroke-linejoin:round;stroke-dasharray:none;stroke-opacity:1"
       d="m 261.47627,319.16602 c -4.51688,-2.79008 -4.83723,-3.50201 -4.4268,-9.83804 l 0.44245,-6.83031 23.60958,-13.53051 c 12.98526,-7.44178 24.43959,-14.27416 25.45407,-15.18306 1.35771,-1.21642 1.8445,-9.35406 1.8445,-30.83462 v -29.18207 l 5.56353,-3.12689 5.56354,-3.12688 5.50345,3.1452 5.50345,3.14521 0.0226,28.85303 c 0.0124,15.86916 0.51044,29.56712 1.1067,30.43991 0.59625,0.87278 12.21066,7.84499 25.80978,15.49378 l 24.72569,13.9069 -0.37831,7.09655 c -0.34503,6.47228 -0.85585,7.36871 -5.80674,10.19028 l -5.42842,3.09373 -24.82134,-14.48712 c -13.65174,-7.96792 -25.48537,-14.48713 -26.29695,-14.48713 -0.81158,0 -12.46776,6.41571 -25.90263,14.25713 -13.43487,7.84143 -25.05521,14.20213 -25.82297,14.13489 -0.76777,-0.0672 -3.5871,-1.47572 -6.26518,-3.12998 z"
       id="path141" />
    <path
       style="opacity:1;fill:#000000;fill-opacity:1;stroke:#ffffff;stroke-width:0;stroke-linecap:butt;stroke-linejoin:round;stroke-dasharray:none;stroke-opacity:1"
       d="m 581.75467,134.75918 c -4.34004,-2.68309 -4.79569,-3.64238 -4.79569,-10.09634 v -7.13155 l 18.2516,-10.4398 18.25161,-10.439795 25.64745,0.0054 25.64744,0.0054 17.70718,10.119605 17.70718,10.1196 0.44031,7.41765 c 0.42117,7.09523 0.21183,7.55887 -4.81609,10.66629 l -5.25639,3.24863 -22.48249,-12.93579 c -12.36536,-7.11468 -23.83631,-13.7992 -25.49099,-14.85449 -2.69917,-1.7214 -5.64299,-0.40497 -28.62976,12.80284 -14.09169,8.09685 -26.01824,14.66653 -26.50346,14.59929 -0.48521,-0.0672 -3.04027,-1.45639 -5.6779,-3.08702 z"
       id="path142" />
    <path
       style="opacity:1;fill:#000000;fill-opacity:1;stroke:#ffffff;stroke-width:0;stroke-linecap:butt;stroke-linejoin:round;stroke-dasharray:none;stroke-opacity:1"
       d="m 262.28762,134.69332 c -5.12544,-2.97082 -5.5335,-3.70709 -5.5335,-9.9842 v -6.77686 l 18.61074,-10.64028 18.61074,-10.640285 h 25.6649 25.66489 l 18.4373,10.507305 18.4373,10.50731 v 7.16988 c 0,6.8845 -0.23597,7.29027 -5.92831,10.19429 l -5.92832,3.02439 -24.69035,-14.28998 c -13.5797,-7.8595 -25.36157,-14.29779 -26.18195,-14.30733 -0.82038,-0.01 -12.55767,6.40151 -26.08287,14.24677 -13.5252,7.84527 -24.80633,14.24887 -25.06918,14.23022 -0.26284,-0.0186 -2.96797,-1.47719 -6.01139,-3.24123 z"
       id="path143" />
    <path
       style="opacity:1;fill:#ffffff;fill-opacity:1;stroke:#ffffff;stroke-width:0;stroke-linecap:butt;stroke-linejoin:round;stroke-dasharray:none;stroke-opacity:1"
       d="m 627.43357,962.74312 c 0.43148,-10.36421 0.46052,-10.42942 6.07172,-13.63025 l 5.63818,-3.21622 5.42881,3.14247 c 5.36523,3.10566 5.43389,3.2653 5.86236,13.63025 l 0.43355,10.48778 h -11.93408 -11.93408 z"
       id="path144" />
    <path
       style="opacity:1;fill:#ffffff;fill-opacity:1;stroke:#ffffff;stroke-width:0;stroke-linecap:butt;stroke-linejoin:round;stroke-dasharray:none;stroke-opacity:1"
       d="m 741.8571,965.67869 c -5.20174,-2.7461 -5.5335,-3.33938 -5.5335,-9.8957 v -6.97447 l 25.82297,-14.60771 25.82298,-14.60771 0.0114,-29.65962 0.0114,-29.65961 5.60006,-3.1967 5.60006,-3.1967 5.45556,3.11784 5.45556,3.11784 v 28.99323 c 0,25.78432 0.28581,29.23859 2.5823,31.21015 1.42026,1.21931 13.03428,8.12842 25.80892,15.35358 l 23.22662,13.13666 0.014,6.9791 c 0.0134,6.66817 -0.25037,7.11401 -5.92117,10.00703 l -5.93523,3.02793 -24.50957,-14.31086 c -13.48026,-7.87097 -25.27909,-14.31085 -26.21962,-14.31085 -0.94053,0 -12.70334,6.41885 -26.13957,14.26411 -13.43624,7.84527 -24.6973,14.23477 -25.02459,14.19891 -0.32729,-0.0359 -3.08514,-1.37977 -6.12856,-2.98645 z"
       id="path145" />
    <path
       style="opacity:1;fill:#ffffff;fill-opacity:1;stroke:#ffffff;stroke-width:0;stroke-linecap:butt;stroke-linejoin:round;stroke-dasharray:none;stroke-opacity:1"
       d="m 901.87977,872.78413 c -4.53137,-2.76272 -4.84379,-3.45519 -4.4268,-9.81193 l 0.44866,-6.83942 24.64266,-14.16104 24.64267,-14.16104 0.44251,-30.03472 0.4425,-30.03472 5.46633,-3.16624 c 5.41277,-3.13522 5.51704,-3.13897 10.64121,-0.38222 l 5.17487,2.78403 0.73148,29.67914 c 0.40231,16.32352 1.13905,35.82131 1.6372,43.32842 0.49815,7.50711 0.54264,13.64929 0.0989,13.64929 -0.44377,0 -2.98096,-1.32556 -5.63821,-2.94569 -2.65725,-1.62012 -5.76742,-2.94816 -6.91149,-2.95119 -1.14407,-0.003 -12.97816,6.30266 -26.29797,14.01267 -13.31982,7.71 -24.66812,14.0157 -25.21845,14.01267 -0.55032,-0.003 -3.19454,-1.34314 -5.87604,-2.97801 z"
       id="path146" />
  </g>
</svg>
