<?xml version="1.0" encoding="UTF-8" standalone="no"?>
<!-- Created with Inkscape (http://www.inkscape.org/) -->

<svg
   width="1080"
   height="1080"
   viewBox="0 0 1080 1080"
   version="1.1"
   id="svg1"
   xmlns:xlink="http://www.w3.org/1999/xlink"
   xmlns="http://www.w3.org/2000/svg"
   xmlns:svg="http://www.w3.org/2000/svg">
  <defs
     id="defs1">
    <pattern
       xlink:href="#Camouflage"
       preserveAspectRatio="xMidYMid"
       id="pattern5"
       patternTransform="scale(4.2)"
       x="0"
       y="0" />
    <pattern
       patternUnits="userSpaceOnUse"
       width="372"
       height="400"
       patternTransform="translate(0,0) scale(0.2,0.2)"
       preserveAspectRatio="xMidYMid"
       id="Camouflage">
      <g
   id="g3410"
   transform="translate(-89,-270)">
        <path
   style="fill:#344a33;"
   d="M 89,270 L 480,270 L 480,680 L 89,680 L 89,270 z"
   id="rect5504" />

        <g
   style="fill:#463a28;fill-opacity:1"
   id="g5707"
   transform="matrix(0.5,0,0,0.5,161.785,352.005)">
          <path
   style="fill:#463a28"
   d="M 600,178.31 C 560.97,190.236 519.231,189.9 479.23,183.581 C 455.918,186.853 438.62,213.05 412.95,203.143 C 384.723,200.460 356.541,204.918 328.406,206.68 C 309.806,190.517 275.53,228.018 306.603,234.354 C 327.210,236.132 348.992,229.341 368.62,238.962 C 383.037,247.894 390.808,258.693 408.529,259.350 C 420.656,274.332 386.675,270.062 378.494,268.502 C 357.207,270.434 385.060,292.401 395.894,290.848 C 424.579,294.517 449.809,275.993 477.405,272.721 C 495.590,279.799 463.282,296.428 453.105,296.250 C 438.778,294.524 418.703,307.58 439.246,316.579 C 457.033,324.061 485.201,315.67 493.525,338.098 C 485.057,361.173 449.064,351.396 431.337,343.369 C 413.333,329.691 390.442,339.22 375.767,353.012 C 362.304,365.825 347.051,376.832 329.963,383.669 C 312.790,403.576 345.997,415.972 357.265,402.870 C 362.161,424.280 326.751,414.476 324.658,431.463 C 341.974,441.266 373.473,430.487 380.502,454.940 C 378.508,479.296 348.435,488.15 329.175,477.225 C 300.598,468.454 269.938,460.273 240.214,468.494 C 224.261,471.401 206.547,476.887 191.786,467.162 C 172.250,457.596 155.905,442.99 138,430.8 C 124.824,404.143 96.097,387.060 66.775,384.893 C 46.983,374.555 15.716,362.529 -2.282,380.956 C -5.629,405.028 31.603,403.219 46.194,414.656 C 67.224,420.952 69.502,454.051 42.915,450.37 C 12.992,451.162 -21.439,452.420 -45.709,431.774 C -57.746,419.467 -61.574,401.735 -71.239,387.695 C -88.819,367.483 -61.456,351.684 -42.526,355.292 C -16.517,355.025 -17.113,321.144 -10.032,303.64 C -25.652,288.652 -40.742,321.498 -56.006,324.403 C -78.301,322.326 -83.577,292.543 -82.521,274.145 C -80.525,250.62 -107.323,242.235 -114.751,221.643 C -125.662,204.223 -139.460,220.004 -131.811,234.932 C -120.793,259.937 -133.284,286.858 -127.928,312.715 C -124.867,334.367 -91.797,344.018 -99.659,368.317 C -111.945,383.164 -125.622,410.580 -150,399.781 C -150,424. -150,448.718 -150,473.18 C -125.302,478.553 -132.230,508.537 -136.682,526.118 C -138.435,548.920 -115.870,560.382 -97.390,566.074 C -79.986,572.020 -63.202,582.322 -55.644,599.777 C -37.724,622.346 -5.898,618.235 19.446,623.426 C 38.438,629.090 57.258,637.088 77.557,634.888 C 128.370,635.236 179.185,634.855 230,635 C 205.840,620.831 176.501,628.467 150.735,620.057 C 174.602,613.037 202.175,628.036 223.812,611.93 C 248.788,599.491 208.494,588.826 196.470,593.890 C 174.716,597.94 151.747,602.937 130.463,593.724 C 109.734,583.381 90.847,567.89 76.969,549.340 C 58.947,527.803 79.814,500.291 105.420,509.858 C 127.255,513.818 153.171,511.947 169.881,529.057 C 154.102,533.042 132.701,517.975 116.702,530.217 C 97.280,546.038 118.157,574.262 136.675,579.629 C 161.105,588.782 187.823,576.764 211.865,587.810 C 236.001,599.167 265.115,595.524 286.270,579.468 C 302.270,568.417 341.076,576.817 350.421,572.420 C 333.300,581.50 328.493,610.228 355.054,600.493 C 381.612,594.843 406.638,583.784 433.093,577. C 452.413,583.091 483.371,598.36 495.980,574.90 C 501.833,555.719 521.524,550.721 534.710,538.651 C 552.058,518.928 517.047,523.810 505.635,523.333 C 486.286,522.775 466.995,521.032 447.75,519.031 C 462.818,495.215 494.296,493.760 519.567,495.617 C 546.589,483.008 582.396,482.543 600,455 C 598.131,432.490 603.727,402.981 597.220,384.820 C 567.631,377.721 602.659,349.517 600,332.297 C 600,280.969 600,229.640 600,178.31 z"
   id="path7788" />

          <path
   style="fill:#463a28;"
   d="M -74.218,518.06 C -97.532,526.845 -124.316,516.128 -145.992,521.806 C -157.072,543.338 -145.463,569.615 -149.820,593.10 C -151.229,611.617 -155.632,643.9 -127.319,634.913 C -97.561,634.560 -67.597,636.446 -37.975,633.489 C -24.011,634.582 -7.730,614.171 -30.230,612.945 C -58.089,611.719 -54.502,572.239 -26.809,574.076 C -3.761,572.761 19.404,568.607 38.632,555.215 C 54.406,535.664 16.639,537.46 5.606,542.32 C -14.881,542.187 -29.999,552.534 -44.080,565.88 C -59.331,563.486 -73.922,550.934 -92.005,556.885 C -113.452,558.010 -95.924,533.254 -81.630,540.383 C -67.556,534.655 -37.894,553.619 -34.982,532.886 C -41.444,521.257 -61.503,518.496 -74.218,518.06 z"
   id="path5796" />

          <path
   style="fill:#463a28;"
   d="M -77.873,101.507 C -61.245,117.641 -35.033,101.775 -18.966,106.888 C -35.237,127.785 -1.393,135.40 13.663,126.668 C 34.894,135.65 46.799,108.962 66.603,111.441 C 88.453,118.352 111.506,110.511 133.557,110.931 C 146.552,107.752 177.049,127.459 155.197,134.646 C 137.041,134.209 117.488,127.557 101.063,135.571 C 85.282,153.172 113.748,148.425 123.936,148.060 C 140.630,156.251 158.465,163.670 170.942,144.758 C 186.614,132.311 207.878,136.555 226.074,130.774 C 253.269,131.014 234.168,157.849 216.711,157.163 C 198.764,167.882 177.594,162.934 158.941,169.746 C 132.016,184.951 160.562,207.39 178.167,209.892 C 179.357,231.237 144.387,225.712 129.351,230.21 C 112.394,234.817 82.211,217.187 76.263,240.878 C 74.364,262.691 119.457,261.719 96.662,283.479 C 88.080,299.449 50.228,285.837 65.631,310.924 C 75.750,333.571 38.484,313.147 25.461,318.338 C 13.084,327.758 -11.260,313.710 3.757,300.453 C 11.434,299.004 32.809,302.772 26.839,288.875 C 10.009,286.651 -14.890,301.330 -25.642,281.730 C -18.642,263.900 -43.268,246.97 -27.986,233.262 C -22.287,229.756 -48.133,238.298 -42.827,222.371 C -36.804,205.576 -39.335,190.426 -41.601,174.046 C -34.701,169.194 -17.617,153.507 -37.551,156.061 C -47.733,158.3 -62.292,150.373 -69.392,151.239 C -69.143,139.703 -75.979,120.783 -89.516,134.314 C -114.483,130.598 -92.908,101.2 -77.873,101.507 z"
   id="path7734" />

          <path
   style="fill:#463a28;"
   d="M 119.843,-1 C 116.556,-137.634 82.136,-140.81 64.585,-150.953 C 42.657,-148.527 33.487,-122.141 11.296,-119.480 C -14.956,-116.940 8.724,-83.186 -17.272,-79.091 C -56.271,-65.964 -100.879,-67.422 -135.573,-42.601 C -153.881,-26.024 -143.982,0.661 -141.751,21.550 C -139.412,45.169 -104.870,34.373 -105.628,58.104 C -99.882,87.281 -68.317,57.858 -53.203,52.771 C -31.034,41.210 -11.896,68.353 10.154,60.876 C 22.041,48.348 39.710,45.854 56.278,45.240 C 74.791,44.990 88.864,30.990 107.722,32.386 C 139.310,29.879 171.071,32.348 202.605,30.205 C 222.380,27.043 242.209,24.338 262.163,22.913 C 283.344,19.446 304.971,9.012 326.555,15.928 C 343.027,36.999 366.296,17.733 374.887,0.832 C 395.270,-11.985 420.435,-10.365 443.402,-13.363 C 463.417,-11.221 493.073,-9.726 498.820,-34.799 C 499.965,-55.190 474.411,-61.506 458.112,-61.252 C 432.280,-55.690 406.923,-44.314 379.859,-46.245 C 366.366,-42.028 332.931,-23.175 332.146,-47.095 C 340.849,-53.140 360.005,-71.805 336.974,-71.342 C 312.874,-71.978 288.314,-52.549 265.031,-66.281 C 256.299,-89.716 287.554,-98.793 305.299,-98.953 C 330.803,-102.261 356.292,-97.825 381.048,-92.039 C 398.272,-93.695 428.282,-82.086 438.577,-95.697 C 432.712,-113.674 417.972,-119.830 401.585,-126.651 C 390.598,-136.203 361.634,-122.216 362.391,-146.599 C 376.520,-165.216 341.318,-156.437 331.042,-152.221 C 315.827,-145.266 299.206,-144.548 283.122,-142.637 C 259.176,-143.957 249.187,-174.257 223.052,-1 C 188.649,-1 154.246,-1 119.843,-1 z M 107.125,-108.5 C 128.383,-98.019 149.698,-87.606 171.601,-78.527 C 189.186,-73.970 221.496,-93.304 228.634,-72.459 C 215.601,-56.322 190.578,-71.098 172.445,-67.078 C 149.711,-65.477 123.370,-58.850 104.074,-75.051 C 92.331,-81.647 51.714,-77.224 65.846,-98.560 C 79.069,-104.077 95.620,-98.359 107.125,-108.5 z"
   id="rect8003" />

          <path
   style="fill:#463a28;"
   d="M -150,-1 C -150,-134.446 -150,-103.893 -150,-73.340 C -140.617,-68.983 -119.386,-66.831 -133.939,-81.861 C -146.584,-107.449 -107.838,-92.756 -99.971,-110.812 C -80.328,-132.78 -125.557,-128.479 -121.460,-151.42 C -117.123,-175.278 -85.779,-157.045 -69.257,-162.198 C -60.864,-162.377 -40.952,-165.987 -60.241,-165.042 C -90.159,-164.916 -120.080,-165.046 -150,-1 z"
   id="path5784" />

          <path
   style="fill:#463a28;fill-opacity:1;fill-rule:evenodd;stroke:none;stroke-width:2;stroke-linecap:round;stroke-linejoin:round;marker:none;marker-start:none;marker-mid:none;marker-end:none;stroke-miterlimit:4;stroke-dasharray:none;stroke-dashoffset:0;stroke-opacity:1;visibility:visible;display:inline;overflow:visible;enable-background:accumulate"
   d="M 473.656,509.156 C 452.234,504.277 441.387,551.97 468.796,538.902 C 490.088,528.916 469.817,571.564 493.359,560.897 C 504.024,567.417 538.462,558.658 517.053,575.909 C 503.234,582.520 508.456,593.847 514.496,602.529 C 510.232,616.211 501.017,641.753 526.025,635 C 550.683,635 575.341,635 600,635 C 600,598.177 600,561.354 600,524.531 C 583.610,540.604 555.550,533.912 536.555,537.104 C 524.205,532.170 531.392,516.638 531.498,513.096 C 510.741,511.891 492.699,524.018 473.656,509.156 z"
   id="path5798" />

          <path
   style="fill:#463a28;"
   d="M 510,-1 C 507.765,-149.145 537.198,-169.760 521.773,-156.735 C 509.530,-141.80 534.936,-126.48 526.170,-110.745 C 535.759,-86.341 574.941,-114.840 580.160,-97.956 C 570.192,-90.967 533.398,-90.853 556.435,-73.165 C 570.230,-73.551 587.408,-72.641 598.802,-76.813 C 603.207,-95.887 597.254,-116.108 600.019,-135.693 C 603.625,-153.054 599.552,-171.961 578.115,-1 C 555.410,-1 532.705,-1 510,-1 z"
   id="path5800" />

          <path
   style="fill:#463a28;"
   d="M 297.218,609.281 C 273.460,616.16 245.099,607.606 224.733,624.859 C 213.115,642.376 249.131,636.399 258.093,631.305 C 277.004,620.102 298.754,616.212 320.476,617.711 C 335.240,616.788 337.511,610.244 321.564,611.424 C 313.436,610.909 305.261,610.666 297.218,609.281 z"
   id="path5822" />

          <path
   style="fill:#463a28;"
   d="M -126.656,154.81 C -137.651,170.980 -158.192,184.029 -150,206.627 C -150,252.751 -150,298.875 -150,345 C -142.652,328.6 -127.352,305.181 -107.988,321.931 C -82.305,327.845 -77.109,291.184 -85.353,274.07 C -96.521,258.54 -116.604,286.214 -119.612,262.303 C -129.445,242.23 -130.482,220.834 -121.032,200.456 C -119.582,186.121 -97.174,152.998 -126.656,154.81 z M -150,385 C -150,410.083 -150,435.166 -150,460. C -135.228,443.436 -139.871,419.809 -133.972,400.025 C -131.703,390.185 -140.503,382.296 -150,385 z"
   id="path5872" />

        </g>

        <g
   style="fill:#758949;fill-opacity:1"
   id="g5530"
   transform="matrix(0.5,0,0,0.5,161.785,352.005)">
          <path
   style="fill:#758949;"
   d="M -19.092,152.663 C -0.336,165.154 -44.495,173.82 -22.905,182.657 C -18.543,203.392 -55.957,201.559 -44.511,225.005 C -39.954,238.057 -60.169,248.53 -56.909,229.876 C -54.108,217.223 -58.600,202.326 -73.928,208.118 C -89.423,197.340 -51.695,192.141 -64.568,177.550 C -70.646,150.414 -39.259,153.91 -22.517,154.630 L -19.092,152.663 L -19.092,152.663 z"
   id="path7689" />

          <path
   style="fill:#758949;"
   d="M 233.782,202.069 C 212.165,215.215 251.363,241.045 228.203,248.174 C 216.084,262.584 197.512,272.265 181.504,258.722 C 166.306,253.675 158.151,286.797 173.605,270.658 C 187.546,263.531 197.630,287.677 178.147,284.195 C 152.858,293.417 187.317,304.915 198.171,295.591 C 222.204,290.740 214.910,317.192 210.320,329.770 C 226.071,327.954 237.467,305.507 255.759,301.380 C 272.512,302.120 241.691,291.452 238.658,291.396 C 231.708,281.968 211.890,280.530 228.799,270.141 C 241.557,253.974 263.959,244.392 283.670,248.937 C 307.010,259.22 306.336,290.76 287.321,305.101 C 275.751,324.097 301.617,317.866 306.139,305.330 C 313.269,295.780 319.991,293.767 321.832,307.153 C 328.474,315.898 343.140,299.239 334.218,313.064 C 343.564,330.863 365.600,294.385 355.932,281.417 C 335.827,263.687 377.040,269.185 373.147,254.758 C 355.214,239.308 329.890,254.377 312.623,257.325 C 303.211,240.040 290.434,225.805 269.487,228.434 C 253.320,225.850 240.032,216.376 233.782,202.069 z"
   id="path7371" />

          <path
   style="fill:#758949;"
   d="M -130,-165 C -146.497,-154.421 -111.929,-144.56 -116.154,-130.844 C -106.837,-127.738 -105.619,-157.368 -93.415,-141.701 C -92.028,-125.613 -124.299,-103.209 -96.213,-92.855 C -71.406,-90.775 -92.001,-126.698 -70.547,-124.698 C -48.241,-125.914 -96.932,-142.021 -76.377,-155.530 C -56.893,-158.324 -51.410,-131.611 -35.806,-126.653 C -16.916,-131.918 -55.218,-163.601 -27.063,-154.425 C -2.890,-146.007 17.057,-129.190 39.176,-116.894 C 40.828,-101.311 15.033,-93.682 13.535,-75.677 C -0.378,-55.259 31.471,-32.696 45.974,-49.748 C 60.624,-69.816 14.547,-63.868 33.181,-81.896 C 45.279,-99.115 64.649,-103.932 83.254,-110.523 C 95.273,-125.338 123.044,-137.032 134.741,-115.232 C 132.972,-91.529 161.875,-99.012 158.794,-119.174 C 159.876,-142.26 119.587,-129.296 123.977,-151.367 C 142.397,-170.599 102.674,-166.12 101.607,-163.014 C 114.787,-137.921 71.243,-145.883 57.367,-143.840 C 36.664,-144.791 -2.221,-141.174 -8.202,-163.7 C 10.582,-166.931 -21.788,-163.9 -28.437,-165 C -62.291,-165 -96.145,-165 -130,-165 z"
   id="path8024" />

          <path
   style="fill:#758949;"
   d="M 80.180,-53.140 C 56.900,-52.662 89.138,-31.342 99.278,-34.180 C 122.695,-29.031 145.247,-45.948 168.535,-38.850 C 186.050,-14.683 148.370,-10.383 133.396,-6.339 C 116.031,0.591 112.889,23.829 134.592,24.996 C 135.046,35.775 104.864,26.141 93.677,32.376 C 38.303,40.303 -18.369,41.542 -73.682,32.866 C -97.562,31.831 -123.660,45.595 -130.480,69.639 C -113.540,88.374 -88.665,64.747 -69.062,62.697 C -43.559,53.796 -17.618,64.805 4.823,76.600 C 24.493,85.249 46.587,90.598 68.023,86.259 C 89.548,90.484 106.942,57.041 127.416,72.700 C 123.301,103.634 177.876,71.627 171.783,106.819 C 170.418,134.092 132.041,130.404 126.886,154.059 C 126.564,179.769 158.650,187.075 178.860,186.680 C 198.986,179.982 183.582,152.17 203.066,141.92 C 215.750,130.298 231.005,120.20 247.654,115.737 C 269.912,113.679 284.047,143.49 306.963,134.030 C 318.786,136.867 329.086,132.320 316.097,122.62 C 303.680,100.913 279.415,95.542 257.066,92.728 C 243.720,93.656 207.006,77.408 234.473,68.069 C 256.968,62.338 277.178,77.229 296.535,85.874 C 321.830,88.892 310.681,57.703 308.688,43.767 C 299.163,20.644 271.759,28.617 252.560,29.583 C 242.307,32.841 223.412,25.117 240.438,17.169 C 247.469,-3.014 201.522,6.149 215.980,-13.696 C 232.971,-27.984 257.284,-32.22 278.739,-28.691 C 295.008,-22.015 253.843,-1.598 280.725,-3.239 C 303.384,-7.501 326.577,-10.184 349.306,-5.881 C 363.001,-4.568 369.729,-23.494 351.428,-21.061 C 329.114,-15.869 301.776,-7.311 287.447,-31.455 C 266.756,-42.578 241.953,-29.973 220.607,-38.314 C 203.587,-45.622 230.866,-69.353 208.095,-60.375 C 188.176,-54.085 167.423,-55.103 146.981,-57.487 C 128.546,-59.556 109.670,-59.219 91.876,-53.596 C 88.021,-52.967 84.073,-52.601 80.180,-53.140 z"
   id="rect5572" />

          <path
   style="fill:#758949;"
   d="M 512.876,-62.711 C 540.679,-53.738 506.599,-23.828 488.541,-31.107 C 464.951,-28.723 440.378,-29.361 417.860,-24.858 C 399.324,-29.592 415.081,-41.282 426.286,-35.644 C 447.544,-37.616 468.492,-43.816 488.623,-50.619 C 496.805,-54.453 504.426,-59.442 512.876,-62.711 z"
   id="path5592" />

          <path
   style="fill:#758949;"
   d="M 451.001,-1.461 C 468.726,-0.840 461.653,26.563 466.651,33.645 C 440.211,40.460 480.446,55.015 478.446,33.704 C 469.630,18.486 488.076,21.671 488.649,34.861 C 501.909,41.444 521.233,44.311 536.671,53.170 C 549.653,68.129 520.183,89.230 512.178,103.759 C 496.897,110.255 479.090,134.667 505.043,140.112 C 513.160,142.650 534.585,164.06 513.400,153.396 C 493.096,147.189 475.071,131.345 453.169,133.204 C 436.762,138.61 398.134,129.671 423.385,110.110 C 430.946,105.76 458.160,91.780 436.083,89.728 C 420.126,97.581 403.326,80.553 423.550,71.954 C 434.306,69.172 470.866,67.501 454.313,50.572 C 445.784,48.466 418.500,43.825 441.341,38.155 C 452.561,26.652 419.249,0.098 451.001,-1.461 z"
   id="path5007" />

          <path
   style="fill:#758949;"
   d="M 120.750,286.171 C 95.028,279.495 71.769,297.18 51.206,309.947 C 35.800,326.947 7.625,339.422 -8.827,316.962 C -29.141,299.556 -58.821,323.637 -39.107,345.140 C -28.354,366.769 -3.695,371.322 13.216,386.158 C 29.069,397.511 48.529,384.460 65.904,391.702 C 92.546,397.365 109.087,423.019 114.132,448.215 C 116.592,470.547 134.874,469.710 150.046,460.218 C 165.384,461.610 176.739,476.346 192.194,480.406 C 206.600,486.078 225.071,491.646 239.137,483.120 C 252.957,467.143 198.093,455.840 228.878,455.984 C 250.782,455.775 272.424,461.84 294.358,459.633 C 310.460,437.525 276.753,415.776 257.095,428.803 C 235.117,436.219 209.734,435.850 191.901,419.574 C 174.240,414.639 157.613,394.55 180.200,385.132 C 175.730,357.879 144.842,376.758 127.838,370.299 C 110.594,367.219 75.422,347.013 104.391,332.559 C 113.581,322.981 140.066,349.011 131.848,326.882 C 127.762,310.403 94.619,329.441 100.705,311.855 C 112.458,298.604 137.616,328.81 141.168,310.94 C 136.582,303.309 104.502,300.13 116.585,292.76 C 121.002,292.822 128.260,290.432 120.750,286.171 z"
   id="path7658" />

          <path
   style="fill:#758949;"
   d="M 562.095,205.850 C 573.784,200.524 605.253,210.77 580.048,219.99 C 562.632,226.276 531.034,224.833 522.783,236.940 C 532.805,257.104 504.185,266.119 490.345,257.813 C 481.847,265.491 457.320,273.067 467.437,252.59 C 479.464,245.02 513.436,239.577 490.560,222.884 C 502.985,210.705 523.137,218.586 538.101,210.887 C 546.004,208.804 553.971,206.857 562.095,205.850 z"
   id="path7828" />

          <path
   style="fill:#758949;"
   d="M 473.938,414.663 C 501.010,421.925 445.051,444.214 469.783,436.782 C 481.931,439.690 488.672,451.514 500.505,440.17 C 519.854,432.389 541.157,440.217 558.634,427.959 C 570.709,426.51 567.747,443.33 574.535,449.934 C 569.059,472.078 541.022,468.421 523.535,472.904 C 497.113,478.137 470.403,482.785 444.297,489.084 C 428.588,496. 436.671,519.826 453.422,508.08 C 475.113,501.799 497.856,499.731 518.201,510.654 C 533.977,515.25 572.554,494.800 569.848,521.948 C 552.927,541.235 527.667,522.388 506.503,526.540 C 492.944,527.705 455.888,520.852 470.485,545.276 C 476.067,565.641 437.601,563.860 423.021,561.455 C 411.298,558.316 422.445,523.731 396.859,534.222 C 373.444,536.237 348.263,539.128 326.518,528. C 313.708,506.171 352.117,512.546 357.533,513.494 C 372.669,497.037 398.984,509.528 416.148,496.495 C 428.843,482.992 399.882,459.606 425.604,454.270 C 438.106,452.098 429.349,446.715 429.187,442.468 C 439.381,428.038 455.947,416.048 473.938,414.663 z"
   id="path7887" />

          <path
   style="fill:#758949;"
   d="M 275.179,501.892 C 292.410,488.933 311.668,520.896 286.513,524.008 C 262.770,525.078 239.559,532.63 216.363,531.992 C 197.448,538.067 173.981,510.852 200.541,504.633 C 217.368,497.768 234.994,502.859 252.080,504.591 C 259.858,504.647 267.578,503.437 275.179,501.892 z"
   id="path5163" />

          <path
   style="fill:#758949;"
   d="M 90.907,421.850 C 115.097,434.205 79.915,449.140 75.308,461.933 C 76.046,476.838 111.893,493.205 88.037,505.814 C 65.591,511.710 67.119,539.381 74.391,554.828 C 68.793,571.202 60.646,583.138 74.985,576.198 C 90.053,583.430 77.355,599.522 69.679,599.936 C 78.245,606.26 82.148,640.738 58.958,631.437 C 43.811,614.828 51.809,598.97 38.187,581.490 C 15.582,576.927 11.083,531.721 38.271,531.790 C 51.983,522.087 23.004,527.286 25.987,516.22 C 14.801,507.378 -24.167,523.467 -13.648,497.965 C 4.844,484.197 29.168,497.071 49.732,490.9 C 72.736,477.877 64.285,445.583 79.401,426.719 C 82.216,423.403 86.609,421.655 90.907,421.850 z"
   id="path5341" />

          <path
   style="fill:#758949;"
   d="M -79.875,564.18 C -85.413,581.540 -46.054,608.532 -78.955,614.355 C -97.039,617.317 -117.370,620.221 -130,635 C -82.896,634.678 -35.759,635.66 11.323,634.460 C 29.818,631.873 32.140,603.452 9.861,611.038 C -9.013,604.237 -29.929,628.832 -44.497,610.055 C -56.171,594.637 -68.690,579.512 -79.875,564.18 z M 150,603.127 C 144.337,627.035 108.911,611.083 99.920,630.969 C 117.081,647.786 135.136,622.453 152.770,622.460 C 175.979,626.833 198.486,638.54 222.864,633.699 C 235.379,636.403 262.364,617.725 238.087,614.456 C 217.835,612.636 197.972,611.038 177.764,613.750 C 164.751,616.281 153.083,579.323 144.860,597.480 C 146.791,599.185 148.550,600.989 150,603.127 z"
   id="path5363" />

          <path
   style="opacity:1;fill:#758949;"
   d="M 540.843,255.5 C 524.778,267.032 546.199,290.831 557.714,298.356 C 573.544,321.31 550.898,343.348 529.817,350.348 C 514.884,360.46 498.146,378.822 478.618,367.634 C 457.085,358.232 456.528,329.755 472.804,314.99 C 480.380,309.560 496.059,280.616 476.601,293.060 C 454.726,306.354 466.225,259.548 454.897,269.268 C 449.416,295.563 437.087,322.417 413.277,336.765 C 397.554,352.32 376.854,358.488 357.903,368.558 C 335.403,385.986 351.746,414.691 371.734,425.793 C 380.956,437.386 405.654,466.909 416.517,447.00 C 406.766,425.211 374.881,424.090 368.522,399.817 C 380.294,378.698 405.382,401.155 419.465,408.932 C 436.020,418.397 440.374,399.051 423.214,395.466 C 407.605,387.724 417.303,366.273 433.411,377.239 C 455.436,387.157 477.494,397.603 498.735,408.735 C 517.530,426.448 537.356,442.847 556.807,459.809 C 571.992,479.766 610.187,470.050 600.638,441.696 C 595.542,428.910 609.339,397.222 584.625,408.658 C 566.401,407.978 544.296,410.00 527.955,401.135 C 525.184,385.43 540.099,372.884 550.007,362.353 C 562.306,351.130 577.496,343.24 593.523,339.24 C 607.774,328.866 599.681,310.070 582.581,312.480 C 568.270,296.309 567.300,269.826 548.224,257.375 C 545.919,256.285 543.411,255.53 540.843,255.5 z"
   id="rect7802" />

          <path
   style="opacity:1;fill:#758949;"
   d="M -94.406,299.06 C -112.304,303.291 -145.945,302.32 -155,322.5 C -155.824,347.833 -128.327,317.835 -114.937,319.205 C -86.634,311.946 -56.693,319.598 -30.861,331.769 C -10.525,320.979 -47.440,311.617 -56.852,308.219 C -68.863,303.53 -81.342,299.037 -94.406,299.06 z M -155,405 C -155.704,423.49 -155.581,450.965 -155.077,463.884 C -127.982,452.644 -103.146,452.013 -84.900,437.138 C -76.646,411.704 -111.267,402.906 -130.098,401.640 C -136.858,401.257 -143.835,402.0 -155,405 z"
   id="path6151" />

        </g>

        <g
   style="fill:#17181f;fill-opacity:1;"
   id="g5672"
   transform="matrix(0.5,0,0,0.5,161.785,352.052)">
          <path
   style="opacity:0.6;fill:#17181f;"
   d="M 44.470,84.288 C 42.091,86.145 43.127,87.588 44.470,84.288 z"
   id="path5621" />

          <path
   style="fill:#17181f;"
   d="M 435.313,39.975 C 437.069,40.076 435.818,39.307 435.313,39.975 z"
   id="path5005" />

          <path
   style="fill:#17181f;"
   d="M 569.376,220.569 C 571.946,219.7 568.522,218.329 569.376,220.569 z"
   id="path7844" />

          <path
   style="fill:#17181f;"
   d="M -40.779,446.382 L -40.561,446.382 L -40.779,446.382 L -40.779,446.382 z"
   id="path5285" />

          <path
   style="fill:#17181f;"
   d="M 417.375,581.8 C 398.238,581.952 380.983,586.234 363.105,590.959 C 345.113,599.35 386.040,605.875 363.224,611.210 C 343.557,611.47 359.752,626.180 370.685,619.529 C 386.174,614.371 400.008,607.479 416.337,607.208 C 422.333,590.876 379.920,607.349 399.568,591.529 C 402.112,588.623 427.042,589.396 417.375,581.8 z"
   id="path5703" />

          <path
   style="fill:#17181f;"
   d="M 355.75,406.93 C 345.563,426.00 359.119,445.641 379.079,449.548 C 393.821,459.642 403.065,489.476 378.326,492.93 C 364.364,500.197 346.707,507.293 332.940,495.498 C 312.881,487.077 321.290,464.152 317.027,448.902 C 308.642,458.480 307.855,480.428 304.438,495.173 C 296.137,513.389 275.074,521.187 264.685,538.074 C 258.726,552.710 249.924,565.688 244.872,580.692 C 243.891,598.635 249.491,617.083 244.252,634.905 C 271.077,640.679 252.795,609.001 258.218,595.085 C 263.563,569.722 282.664,597.31 269.918,608.247 C 252.700,621.883 294.199,644.002 290.428,630.909 C 274.423,617.495 289.749,597.368 280.918,580.774 C 270.535,561.572 289.093,546.569 306.823,545.81 C 313.962,540.53 322.801,529.558 316.024,545.185 C 308.605,559.668 323.185,573.127 322.772,550.686 C 328.963,526.89 339.400,578.581 350.155,564.257 C 348.082,555.731 331.634,532.831 349.913,546.99 C 358.984,556.440 371.463,549.012 358.273,539.421 C 349.754,522.001 376.915,513.411 391.297,515.025 C 404.986,509.113 425.639,502.079 427.100,484.595 C 421.416,461.503 450.427,457.184 466.518,462.311 C 490.519,463.933 514.039,456.772 537.138,451.289 C 551.669,448.932 576.006,418.961 546.684,423.721 C 527.187,414.422 511.907,442.330 489.895,433.585 C 459.885,432.463 430.621,456.076 401.087,441.566 C 382.700,434.482 371.333,417.65 355.75,406.93 z"
   id="path7926" />

          <path
   style="fill:#17181f;"
   d="M -26.717,185.819 C -4.009,189.708 -24.996,210.33 -34.568,217.511 C -39.374,239.736 -17.316,208.817 -8.795,211.183 C 7.990,223.443 -31.198,234.136 -20.724,250.752 C -10.009,262.063 7.054,278.131 -17.995,280.536 C -14.593,283.824 -4.163,280.203 -1.952,288.349 C 7.172,283.655 30.926,277.876 13.464,292.746 C -12.105,296.797 15.175,317.069 21.452,327.938 C 23.165,343.552 2.944,317.842 -4.293,317.437 C -28.648,311.364 -14.592,277.076 -41.598,277.185 C -50.194,267.248 -55.047,248.224 -57.829,234.093 C -45.571,221.697 -61.987,197.556 -39.529,192.225 C -36.326,188.081 -30.491,189.045 -26.717,185.819 z"
   id="path7716" />

          <path
   style="fill:#17181f;"
   d="M 55.876,52.194 C 78.421,57.603 31.912,89.563 53.025,80.097 C 71.395,82.048 64.699,116.828 55.896,127.423 C 36.265,131.554 36.368,155.472 19.776,162.6 C 15.135,173.292 -8.288,180.141 0.013,161.736 C -6.056,140.265 -28.842,169.336 -43.099,158.238 C -55.076,156.300 -73.653,174.818 -71.911,151.839 C -75.676,146.077 -74.836,122.54 -67.447,136.601 C -70.518,154.716 -56.847,142.723 -60.010,131.582 C -50.276,124.990 -58.894,159.068 -41.321,150.581 C -29.086,152.776 -5.023,148.485 -11.680,132.406 C 13.073,127.595 -28.953,103.292 -6.472,103.009 C -0.976,125.046 16.324,106.496 8.478,91.834 C 11.912,74.662 22.715,85.114 19.746,97.393 C 22.728,89.987 28.087,66.534 42.915,59.842 C 46.861,56.779 50.465,52.453 55.876,52.194 z"
   id="path5623" />

          <path
   style="fill:#17181f;"
   d="M 312.751,36.819 C 333.347,31.401 319.520,68.441 339.837,53.566 C 355.785,62.978 336.469,71.570 334.110,79.235 C 342.926,82.750 353.361,85.892 344.447,97.071 C 353.134,99.680 367.802,101.47 378.486,102.476 C 391.604,100.00 399.455,92.651 405.879,81.436 C 420.967,87.675 377.675,107.470 401.457,104.086 C 401.113,116.866 376.638,106.043 368.316,111.684 C 354.696,120.757 339.014,116.713 332.787,100.527 C 310.130,94.775 300.900,68.842 300.369,48.584 C 302.113,42.960 306.226,36.966 312.751,36.819 z"
   id="path5610" />

          <path
   style="fill:#17181f;"
   d="M 124.563,61.382 C 141.869,61.999 123.813,93.281 146.275,82.862 C 164.259,65.635 179.165,98.949 171.855,113.641 C 163.317,122.193 159.439,139.925 151.047,144.667 C 152.153,135.436 152.690,126.589 143.802,125.534 C 153.709,118.321 175.291,92.812 148.314,94.460 C 138.699,102.752 133.010,118.902 121.868,123.960 C 117.942,117.990 123.621,114.946 118.440,110.975 C 132.067,112.793 142.774,86.452 123.194,95.627 C 118.380,100.722 103.558,124.369 106.209,104.387 C 106.320,94.245 132.543,86.253 113.688,81.819 C 96.133,83.671 89.213,111.185 73.688,109.569 C 73.979,101.064 107.162,83.463 83.630,87.231 C 77.083,94.797 57.400,93.831 72.357,82.939 C 90.393,80.118 103.401,65.319 121.033,61.716 L 124.563,61.382 L 124.563,61.382 z"
   id="path7545" />

          <path
   style="fill:#17181f;"
   d="M 600,65 C 578.446,70.035 558.890,80.922 538.305,88.790 C 514.410,94.174 529.541,115.832 543.789,121.904 C 557.726,137.020 513.328,132.244 530.286,143.139 C 539.038,141.785 565.464,141.977 547.525,153.817 C 538.669,160.204 537.703,174.858 535.410,183.983 C 560.548,189.769 547.664,147.864 574.688,149.69 C 585.780,143.918 584.790,125.621 600,132.537 C 601.995,117.92 599.777,112.229 584.967,117.773 C 576.042,121.476 552.111,108.38 573.016,108.230 C 583.603,111.967 602.154,100.226 581.569,100.450 C 579.292,94.783 601.689,90.527 584.670,89.034 C 576.763,91.731 557.543,111.007 555.736,94.681 C 565.083,78.373 603.506,84.368 600,65 z"
   id="path5033" />

          <path
   style="fill:#17181f;"
   d="M 205.999,403.162 C 222.110,400.367 234.226,391.739 232.584,373.83 C 234.461,365.526 241.617,336.05 248.461,356.988 C 252.945,369.136 233.998,393.456 257.801,385.073 C 268.688,382.753 290.532,383.386 294.040,392.778 C 277.204,399.388 256.313,394.789 241.160,401.138 C 235.562,410.652 211.000,414.918 205.999,403.162 z"
   id="path7676" />

          <path
   style="fill:#17181f;"
   d="M 332.845,139.475 C 352.863,130.378 349.487,158.01 337.832,165.14 C 331.732,174.884 336.697,200.271 341.491,178.337 C 346.584,160.053 367.846,164.000 379.377,152.626 C 390.418,146.210 420.427,167.530 397.029,174.301 C 386.417,176.486 377.457,201.185 392.497,186.372 C 397.068,174.413 406.442,182.571 408.958,183.425 C 414.068,158.077 439.235,174.174 455.675,175.739 C 482.828,175.897 468.285,213.057 450.947,215.550 C 440.538,213.907 408.369,216.499 415.688,229.194 C 427.156,218.386 460.833,219.25 448.600,241.171 C 438.832,257.209 415.750,243.928 406.295,261.499 C 391.087,275.576 384.198,295.784 370.463,311.248 C 357.435,323.151 348.308,340.656 355.16,358.499 C 355.389,339.321 365.823,311.751 386.970,310.444 C 390.792,318.100 381.501,352.171 396.408,334.557 C 395.831,322.811 391.000,291.040 411.286,308.877 C 418.026,318.01 441.996,305.671 422.283,302.697 C 401.139,302.839 404.714,267.453 420.799,260.306 C 433.241,248.443 445.414,261.684 446.944,271.273 C 452.090,255.386 460.197,240.366 466.783,225.053 C 471.331,209.361 489.971,199.825 488.548,182.335 C 482.707,169.026 470.173,165.759 457.203,160.569 C 448.661,148.764 427.427,161.944 413.982,156.483 C 397.448,150.315 389.629,129.947 371.871,126.594 C 355.030,131.24 340.265,134.178 326.383,121.030 C 314.588,114.722 291.517,99.562 287.560,121.929 C 279.397,133.690 264.780,107.848 251.050,111.580 C 232.488,106.003 213.227,123.157 212.830,141.344 C 222.162,137.388 231.952,131.694 237.381,144.667 C 246.012,142.670 253.719,121.984 267.025,134.670 C 270.664,149.682 250.665,157.810 243.525,169.20 C 239.271,182.893 207.443,183.278 212.044,189.767 C 222.009,184.899 237.877,186.188 235.552,197.509 C 243.165,193.245 248.768,163.463 256.028,185.527 C 259.303,197.669 288.974,203.598 270.948,188.430 C 258.541,178.825 257.702,156.452 274.009,150.469 C 293.394,140.31 298.839,166.61 282.455,174.589 C 268.624,190.52 298.714,167.773 288.785,185.394 C 297.133,199.246 295.406,171.123 298.905,165.093 C 307.593,154.063 322.334,149.656 332.845,139.475 z"
   id="path7569" />

          <path
   style="fill:#17181f;"
   d="M 560.345,226.194 C 570.694,239.566 539.999,265.05 568.244,267.620 C 575.316,273.079 605.897,265.093 589.369,277.637 C 576.209,280.310 543.939,271.606 552.439,295.321 C 554.648,309.836 530.244,319.813 550.738,329.860 C 557.794,341.681 559.532,356.254 577.322,352.021 C 587.427,349.241 607.058,360.351 588.549,364.587 C 564.999,354.584 559.015,381.195 561.119,398.87 C 562.259,410.792 550.118,418.982 552.783,402.285 C 552.202,389.57 541.440,357.285 526.467,375.71 C 515.224,382.672 505.208,407.771 490.576,397.434 C 497.813,379.725 521.228,373.73 529.154,355.58 C 532.419,340.678 534.228,308.963 509.707,318.284 C 492.014,328.649 466.845,312.548 484.473,294.387 C 502.429,288.056 520.196,314.187 537.560,300.139 C 546.962,284.527 534.385,268.670 526.479,256.339 C 532.000,248.640 547.654,259.186 547.325,242.59 C 550.056,236.278 553.516,228.789 560.345,226.194 z"
   id="path7851" />

          <path
   style="fill:#17181f;"
   d="M -55.529,-47.117 C -46.847,-36.949 -63.249,-11.023 -39.965,-13.941 C -33.287,3.138 3.100,-19.203 6.667,7.749 C -5.992,13.522 -19.200,-5.973 -34.811,3.163 C -46.610,-0.387 -36.169,23.362 -51.061,11.757 C -42.695,27.198 -46.887,50.869 -67.774,52.935 C -84.797,48.901 -97.365,70.083 -110.259,67.709 C -120.803,52.397 -113.898,21.858 -91.193,27.681 C -76.723,29.255 -58.147,32.595 -65.560,11.62 C -66.480,0.487 -99.369,-14.114 -76.027,-17.707 C -62.994,-15.800 -70.688,-45.17 -55.529,-47.117 z"
   id="path7865" />

          <path
   style="fill:#17181f;"
   d="M -15.614,356.373 C -22.403,348.830 -23.847,321.532 -34.489,341.948 C -39.582,350.629 -72.942,356.794 -56.909,339.771 C -55.617,321.053 -79.360,353.510 -86.482,358.694 C -94.385,362.874 -115.117,390.635 -94.150,376.79 C -78.640,368.87 -85.083,396.030 -75.739,402.815 C -69.384,424.632 -74.873,371.691 -63.846,395.540 C -62.987,403.270 -53.017,420.966 -52.531,403.753 C -61.296,392.467 -72.899,371.944 -48.689,371.770 C -35.270,369.222 -35.187,352.828 -19.106,359.587 L -17.247,358.490 L -15.614,356.373 L -15.614,356.373 z"
   id="path5063" />

          <path
   style="fill:#17181f;"
   d="M 169.313,461.538 C 184.142,467.810 192.624,486.09 210.325,485.603 C 226.187,487.988 242.800,487.038 258.165,484.202 C 262.328,488.353 238.273,499.633 252.967,499.026 C 266.888,497.131 265.229,523.527 259.041,529.633 C 254.225,515.813 235.402,515.915 220.920,516.423 C 208.878,513.232 197.253,513.893 194.486,526.777 C 180.219,539.762 172.658,525.310 167.480,513.518 C 158.059,511.106 135.154,513.719 133.967,503.363 C 145.535,492.595 179.909,511.129 177.436,487.441 C 177.558,481.149 158.925,462.943 169.313,461.538 z"
   id="path5266" />

          <path
   style="fill:#17181f;"
   d="M -40.686,443.038 C -21.520,445.723 -2.097,465.144 -10.440,485.440 C -19.570,496.441 -29.373,509.947 -32.266,522.070 C -47.029,509.955 -22.895,492.764 -21.759,482.933 C -34.249,490.868 -43.020,472.218 -26.364,473.56 C -19.963,466.903 -46.450,470.498 -43.742,482.067 C -59.084,491.761 -55.148,462.129 -40.126,463.895 C -15.251,461.297 -52.618,451.196 -40.686,443.038 z"
   id="path5306" />

          <path
   style="fill:#17181f;"
   d="M 78.813,492.819 C 88.192,510.53 111.962,487.893 120.676,503.749 C 115.913,513.54 99.194,520.609 115.112,531.096 C 120.828,548.580 103.417,532.345 101.629,533.188 C 96.278,545.210 125.887,547.533 108.656,554.638 C 89.357,550.904 97.998,508.071 76.012,530.570 C 70.225,521.22 58.023,537.398 52.928,521.668 C 50.288,503.300 72.306,505.902 78.813,492.819 z"
   id="path5321" />

          <path
   style="fill:#17181f;"
   d="M 478.446,-72.782 C 478.183,-83.682 491.734,-106.253 470.272,-95.140 C 460.356,-92.706 432.833,-106.305 455.389,-110.775 C 466.313,-123.74 435.073,-114.252 428.140,-113.795 C 418.571,-110.672 394.611,-113.297 393.981,-103.344 C 405.837,-104.771 416.828,-97.845 405.269,-87.088 C 406.255,-78.639 394.458,-54.213 408.576,-70.884 C 423.592,-90.312 410.948,-56.836 413.971,-51.449 C 427.901,-56.316 416.009,-97.808 442.901,-79.639 C 454.725,-73.048 465.100,-88.276 473.503,-72.331 L 475.308,-71.998 L 478.446,-72.782 L 478.446,-72.782 z"
   id="path5609" />

          <path
   style="fill:#17181f;"
   d="M 54.288,1.417 C 47.103,-16.418 53.991,-42.708 75.519,-45.931 C 89.742,-42.596 107.710,-43.539 118.942,-44.488 C 113.542,-26.528 88.429,-39.100 79.536,-34.829 C 95.289,-18.824 75.016,-19.849 70.452,-26.339 C 69.373,-8.026 106.206,-21.882 90.647,-3.772 C 77.195,4.692 59.241,-31.932 61.536,-2.433 C 62.413,1.167 56.571,5.100 54.288,1.417 z"
   id="path5613" />

          <path
   style="fill:#17181f;"
   d="M 333.562,16.595 C 344.782,18.575 361.143,24.846 365.950,9.752 C 374.717,3.240 383.335,-14.773 394.142,-11.198 C 395.573,1.476 385.209,10.753 376.356,18.027 C 375.801,26.170 390.687,25.108 396.296,29.802 C 402.660,31.180 428.193,54.886 409.578,49.049 C 396.111,44.021 382.162,40.038 370.572,31.047 C 358.094,37.109 334.671,32.854 333.562,16.595 L 333.562,16.595 z"
   id="path5615" />

          <path
   style="fill:#17181f;"
   d="M 233.928,-120.424 C 245.534,-107.508 213.363,-81.435 241.722,-78.732 C 250.558,-74.717 282.707,-79.616 260.580,-67.054 C 246.867,-68.206 214.694,-73.649 225.859,-48.931 C 224.633,-36.963 203.816,-26.156 222.783,-16.286 C 232.365,-8.174 230.322,10.256 247.865,4.915 C 257.680,3.129 282.077,12.010 262.133,17.967 C 238.492,7.917 231.838,35.071 234.959,52.933 C 237.241,63.962 224.103,73.841 226.209,56.772 C 225.189,44.505 215.763,10.934 200.544,29.642 C 189.264,36.419 178.644,60.250 164.496,51.021 C 171.462,33.298 195.025,27.240 203.001,9.117 C 205.887,-5.488 207.926,-37.434 183.723,-28.335 C 166.085,-18.076 140.569,-34.025 158.052,-52.351 C 176.145,-58.517 193.816,-32.558 211.414,-46.558 C 221.270,-62.364 207.050,-78.044 200.081,-90.910 C 205.128,-98.126 221.297,-88.353 220.261,-104.204 C 222.832,-110.266 227.663,-118.374 233.928,-120.424 z"
   id="path5617" />

          <path
   style="fill:#17181f;"
   d="M 558.906,509.906 C 539.592,517.182 519.104,520.67 498.514,520.9 C 484.109,516.356 460.993,514.612 460.892,534.430 C 452.247,543.106 468.317,556.489 458.385,565.734 C 465.926,580.012 482.357,592.871 478.460,610.803 C 469.727,621.167 464.486,640.715 484.256,634.905 C 495.362,637.240 478.216,623.907 487.027,616.565 C 483.614,600.780 495.801,598.319 506.176,607.791 C 515.342,615.670 533.662,607.570 514.807,603.74 C 502.518,604.746 503.964,597.515 506.547,590.031 C 486.569,601.265 482.699,577.572 477.590,563.859 C 471.438,547.955 470.328,528.3 492.976,531.888 C 513.385,525.684 514.216,550.435 526.600,559.826 C 531.256,569.226 551.493,568.705 535.349,559.71 C 522.035,551.670 513.792,525.375 538.223,528.778 C 555.640,531.127 554.874,556.624 575.538,555.057 C 592.128,561.517 605.267,559.988 600,539.576 C 593.847,541.82 574.112,554.99 563.370,540.952 C 546.444,534.686 553.954,518.28 561.556,510.864 L 558.906,509.906 z"
   id="path5786" />

          <path
   style="fill:#17181f;"
   d="M 470,-165.094 C 463.359,-144.158 494.001,-138.293 491.066,-119.944 C 490.507,-103.773 485.828,-79.478 503.305,-72.742 C 507.168,-70.474 521.992,-83.950 516.537,-68.776 C 513.522,-49.912 516.709,-25.731 535.399,-16.125 C 551.003,-9.792 575.376,-17.042 550.519,-27.731 C 556.650,-39.723 554.212,-45.855 540.024,-45.090 C 517.107,-56.704 542.053,-73.859 556.967,-61.306 C 573.040,-58.242 589.202,-54.980 600,-41.393 C 598.833,-50.390 589.912,-57.816 600,-63.689 C 596.203,-69.665 564.345,-58.787 581.167,-76.241 C 589.536,-85.017 580.931,-114.73 576.330,-91.684 C 575.492,-72.620 547.328,-61.733 537.031,-80 C 526.038,-95.605 551.030,-102.009 561.031,-92.81 C 576.415,-92.302 545.527,-104.363 565.270,-105.191 C 572.972,-120.975 543.736,-98.314 536.033,-104.238 C 525.682,-116.525 494.984,-114.75 497.886,-135.0 C 511.721,-144.197 534.296,-130.717 545,-149.218 C 524.016,-142.21 503.022,-153.159 487.568,-165.094 C 481.712,-165.094 475.856,-165.094 470,-165.094 z"
   id="path5788" />

          <path
   style="fill:#17181f;"
   d="M -150,-65.906 C -152.530,-57.763 -143.633,-62.932 -150,-65.906 z M -150,-46.156 C -152.421,-34.897 -132.804,-34.567 -147.875,-44 L -150,-46.156 z"
   id="path5802" />

          <path
   style="fill:#17181f;"
   d="M -147.406,510.781 C -151.840,520.254 -137.880,532.329 -150,540.110 C -154.884,557.926 -144.674,562.675 -128.478,560.466 C -107.816,563.553 -83.737,572.708 -67.239,554.332 C -77.444,557.642 -101.176,566.010 -116.703,555.9 C -143.787,544.798 -83.651,538.706 -102.543,528.309 C -114.046,527.597 -140.500,557.889 -137.132,530.607 C -132.177,523.879 -142.212,513.819 -147.406,510.781 z"
   id="path5804" />

          <path
   style="fill:#17181f;"
   d="M 244.156,-165 C 239.392,-156.74 230.683,-124.441 249.357,-136.510 C 262.760,-140.958 248.694,-156.823 257.843,-165 C 253.281,-165 248.718,-165 244.156,-165 z M 282.25,-165 C 285.766,-157.48 302.910,-151.930 293.343,-165 C 289.645,-165 285.947,-165 282.25,-165 z"
   id="path5808" />

          <path
   style="fill:#17181f;"
   d="M -148.343,65 C -153.944,71.344 -147.949,79.819 -142.276,68.433 C -139.207,63.527 -146.000,65.357 -148.343,65 z M -121.125,106.218 C -133.686,114.03 -157.067,108.382 -150,130.332 C -146.282,135.359 -140.641,112.483 -129.789,122.651 C -115.702,136.795 -109.182,109.703 -121.125,106.218 z"
   id="path5818" />

        </g>

      </g>

    </pattern>
  </defs>
  <g
     id="layer1">
    <rect
       style="opacity:1;fill:url(#pattern5);fill-opacity:1;stroke:#ffffff;stroke-width:0;stroke-linecap:butt;stroke-linejoin:round;stroke-dasharray:none;stroke-opacity:1"
       id="rect1"
       width="900"
       height="900"
       x="85.102348"
       y="85.102348"
       ry="70" />
    <path
       style="opacity:1;fill:#ffff00;fill-opacity:1;stroke:#ffffff;stroke-width:0;stroke-linecap:butt;stroke-linejoin:round;stroke-dasharray:none;stroke-opacity:1"
       d="m 263.4992,423.80417 c -12.87159,-0.67898 -31.28095,-1.81813 -40.90969,-2.53147 l -17.5068,-1.29695 1.46528,-7.84328 c 1.48179,-7.93162 -0.45185,-25.6155 -3.74923,-34.28826 -2.41029,-6.33955 -2.32851,-6.4086 3.82328,-3.22738 5.33834,2.76057 5.63958,2.72531 8.66774,-1.0143 1.72545,-2.13084 3.13719,-5.3731 3.13719,-7.20499 0,-1.83191 1.09303,-5.94673 2.42895,-9.14405 2.02745,-4.85235 3.53188,-5.96026 9.10113,-6.70231 3.66969,-0.48896 10.11823,-1.78168 14.33008,-2.87271 9.53333,-2.46952 13.55235,-1.63208 37.78803,7.87377 19.33999,7.58563 33.57566,9.86486 36.10029,5.77989 2.0321,-3.288 -0.95825,-13.51598 -5.54563,-18.96776 -8.20268,-9.74834 -12.61435,-10.94749 -44.79675,-12.17642 -31.74653,-1.21229 -38.00383,-2.82993 -43.52174,-11.25131 -2.33097,-3.55752 -4.20821,-4.2978 -10.89866,-4.2978 -16.05729,0 -19.41802,-6.66087 -18.80512,-37.27126 0.59723,-29.82723 -3.45531,-37.52071 -14.98625,-28.45047 -6.20866,4.88374 -8.84192,10.43991 -13.13085,27.70605 -6.33463,25.50164 -8.58663,28.93049 -19.98516,30.42895 -11.68136,1.53563 -18.22279,5.66489 -18.22279,11.5031 0,1.93056 7.3197,10.91831 17.07592,20.96727 19.05154,19.62316 21.60673,23.62159 24.57921,38.46206 2.44777,12.22079 0.79205,18.10416 -6.4186,22.80762 -4.13678,2.69841 -7.7516,3.02931 -26.51397,2.42709 -36.07685,-1.15798 -45.850901,-1.06303 -49.042955,0.47636 -2.892789,1.39507 -3.026119,-3.22757 -2.600321,-90.15486 l 0.44881,-91.62534 18.831086,-5.65601 c 10.3571,-3.11081 41.8201,-10.33127 69.91778,-16.04546 72.27187,-14.69786 103.76899,-23.02522 112.21323,-29.66747 7.26064,-5.7112 9.43305,-11.99129 12.13478,-35.07944 3.48501,-29.78195 7.95468,-37.290739 24.39911,-40.989158 4.76726,-1.072174 13.49452,-3.460929 19.39392,-5.308343 15.22646,-4.768216 19.41743,-4.29435 33.42004,3.778754 12.00475,6.92125 12.34471,7.302357 11.21154,12.568217 -2.11907,9.84745 -6.27528,15.60908 -25.79964,35.76527 -18.0327,18.6163 -26.9578,31.44774 -26.9578,38.75676 0,1.64386 -1.72271,6.27317 -3.82825,10.28735 -5.09581,9.71513 -5.12856,25.31996 -0.0735,35.03528 10.29929,19.79423 35.00391,32.0109 54.2979,26.85081 15.16356,-4.05542 27.78918,-22.84458 22.28837,-33.16908 -2.99309,-5.61779 -5.9171,-7.77972 -18.94453,-14.00712 -24.79857,-11.85424 -26.05186,-15.45557 -11.5399,-33.15991 19.3424,-23.59742 39.21251,-36.02357 80.37889,-50.26645 19.0625,-6.59531 24.04999,-9.07303 29.76265,-14.78569 3.77447,-3.77448 11.02165,-9.681042 16.10484,-13.125703 l 9.24215,-6.26302 7.30796,15.223113 c 4.96043,10.333 8.14925,15.06251 9.9269,14.72314 1.44042,-0.27498 20.50936,8.09839 42.37542,18.60748 57.86432,27.81031 90.05881,41.81401 99.69286,43.36358 4.6665,0.75058 14.02766,0.71237 20.80257,-0.0849 14.74061,-1.73469 40.45064,-6.28377 42.43093,-7.50765 1.40322,-0.86725 16.11266,25.76383 18.35549,33.23221 1.08837,3.62412 0.64107,3.90003 -6.31302,3.89407 -4.11643,-0.004 -19.5759,-1.60535 -34.35439,-3.55962 -22.81509,-3.01701 -29.35523,-3.2778 -43.33868,-1.72812 -40.58502,4.49772 -51.49402,5.29259 -72.30729,5.26853 -19.90892,-0.023 -35.71586,-2.14577 -46.27978,-6.21505 -3.07989,-1.1864 -3.23678,-0.60116 -2.29218,8.55097 0.55768,5.4035 0.6347,9.82454 0.17113,9.82454 -4.1407,0 -28.51332,4.42987 -39.44749,7.16982 -7.51897,1.88414 -19.22041,3.44248 -26.00321,3.46297 -21.84993,0.066 -30.24272,4.46476 -25.48402,13.3565 1.55361,2.90293 0.82503,3.68071 -5.82797,6.22151 -12.04934,4.60169 -22.57649,15.12524 -29.84767,29.83746 -6.07865,12.29929 -6.46424,14.08287 -7.00275,32.39077 -0.88135,29.96383 4.82148,42.43334 16.04371,35.08026 3.87605,-2.5397 4.24863,-3.90958 4.24863,-15.62162 0,-9.35247 0.73864,-13.57647 2.72071,-15.55853 3.22651,-3.22654 5.74574,-2.20629 19.11026,7.73924 13.34802,9.93328 21.58598,13.80284 29.38505,13.80284 7.54312,0 10.73002,-1.79882 15.27193,-8.62008 3.87144,-5.81434 3.59078,-11.66615 -0.66885,-13.94586 -1.93754,-1.03693 -9.6904,-2.9697 -17.22855,-4.29505 -15.34536,-2.69797 -22.81825,-5.94532 -26.81599,-11.65287 -4.83729,-6.90621 -3.36055,-8.41974 4.66203,-4.77814 21.24192,9.64206 31.46448,-2.13363 16.2975,-18.77363 -5.16421,-5.66575 -1.76465,-7.24541 15.33974,-7.12788 8.6291,0.0593 12.55856,0.61148 10.40129,1.46165 -2.9876,1.17737 -2.63798,1.55017 2.52798,2.69551 3.98428,0.88336 6.21313,0.67493 6.64525,-0.62141 0.35762,-1.07283 1.80137,-1.95059 3.20837,-1.95059 1.407,0 2.07604,0.7801 1.48677,1.73355 -1.17349,1.89875 6.92062,2.48008 25.30895,1.81769 l 11.44054,-0.4121 1.11259,9.2651 c 0.61194,5.0958 1.12494,15.11582 1.14,22.26671 0.0151,7.15088 0.52469,18.26725 1.13251,24.70305 1.03165,10.92332 1.38451,11.70144 5.30637,11.70144 h 4.20124 l -3.79259,5.32619 c -10.26007,14.40893 -9.79127,31.81066 1.11495,41.38645 5.20785,4.57256 15.20903,8.72503 21.07718,8.7512 3.64275,0.0163 2.42029,3.23083 -2.43961,6.41517 -3.96732,2.59949 -8.49852,2.96579 -32.65465,2.63981 -15.42646,-0.20816 -31.88081,0.46854 -36.56522,1.5038 -56.88975,12.5728 -170.9698,19.59309 -250.34694,15.40595 z M 543.98267,189.39005 c -2.43633,-13.76002 -9.62486,-44.19238 -13.20596,-55.9069 -3.55016,-11.61329 -4.28813,-11.90978 -17.45654,-7.0133 -4.18596,1.55648 -19.00779,3.93111 -32.9374,5.27695 -30.96454,2.99169 -36.16481,4.61808 -39.38145,12.31654 -5.03859,12.05904 -1.69627,19.69198 11.00714,25.13729 4.29884,1.8427 20.6068,5.61372 36.23995,8.38004 26.56053,4.69996 29.29856,5.55023 41.7665,12.97009 7.33845,4.36723 13.84586,7.94041 14.46092,7.94041 0.61504,0 0.39313,-4.0955 -0.49316,-9.10112 z"
       id="path5" />
    <path
       style="opacity:1;fill:#ffff00;fill-opacity:1;stroke:#ffffff;stroke-width:0;stroke-linecap:butt;stroke-linejoin:round;stroke-dasharray:none;stroke-opacity:1"
       d="m 837.36259,182.69 c -9.02521,-0.8008 -18.6978,-2.25372 -21.49464,-3.2287 -2.79684,-0.97498 -7.00757,-1.7727 -9.35718,-1.7727 -4.10762,0 -4.225,-0.31351 -3.05029,-8.14701 1.45762,-9.7201 17.07931,-72.118315 19.79181,-79.055053 l 1.89987,-4.858567 54.18154,0.524699 54.18155,0.524699 9.97248,4.673447 c 12.95626,6.071747 27.82598,20.252045 33.5894,32.032045 2.51555,5.14158 4.25379,9.66824 3.86277,10.05926 -0.39102,0.39101 -13.95186,1.90829 -30.13521,3.37171 -16.18335,1.46344 -34.10485,3.91303 -39.82556,5.44354 -24.86069,6.6512 -42.82412,19.35815 -48.54586,34.34032 -2.00126,5.24023 -4.03584,7.94237 -5.86301,7.78671 -1.539,-0.13112 -10.18246,-0.8936 -19.20767,-1.6944 z"
       id="path6" />
    <path
       style="opacity:1;fill:#ffff00;fill-opacity:1;stroke:#ffffff;stroke-width:0;stroke-linecap:butt;stroke-linejoin:round;stroke-dasharray:none;stroke-opacity:1"
       d="m 950.64877,308.72436 c -12.91351,-3.13391 -23.4479,-9.99165 -34.40978,-22.40026 -14.99635,-16.97556 -17.91224,-17.62426 -79.22032,-17.62426 -27.32994,0 -50.08131,-0.39005 -50.55859,-0.86677 -0.76958,-0.76868 7.50826,-51.56496 10.14242,-62.23813 l 1.02776,-4.16429 27.92348,1.03854 c 17.45533,0.6492 29.1438,0.38543 31.17865,-0.70359 2.53802,-1.35831 3.90722,-0.95341 6.21484,1.83787 1.62782,1.969 7.62875,5.20601 13.3354,7.19337 20.96104,7.29975 47.64266,3.91465 105.33856,-13.36431 2.8464,-0.85245 3.03371,2.63075 3.03371,56.41534 v 57.32388 l -12.56822,-0.14743 c -6.91252,-0.0811 -16.55958,-1.11607 -21.43791,-2.29996 z"
       id="path7" />
    <path
       style="opacity:1;fill:#ffff00;fill-opacity:1;stroke:#ffffff;stroke-width:0;stroke-linecap:butt;stroke-linejoin:round;stroke-dasharray:none;stroke-opacity:1"
       d="m 807.83307,396.85033 c 0,-3.14346 9.02749,-12.64526 14.4659,-15.22596 6.96927,-3.30713 19.58717,-3.68795 28.97745,-0.87456 5.64042,1.68992 7.51592,1.48108 13.20273,-1.47011 5.36919,-2.78636 6.62839,-4.39552 6.62839,-8.47052 0,-4.41507 -1.27283,-5.6671 -10.40128,-10.23133 -9.89838,-4.94919 -11.45255,-5.20064 -32.14377,-5.20064 -26.51512,0 -28.55307,-1.0172 -37.4132,-18.67397 -3.45812,-6.89144 -7.82956,-14.71261 -9.71432,-17.38038 -2.59298,-3.67021 -3.14727,-6.34072 -2.27791,-10.97481 1.02191,-5.44724 2.33518,-6.6794 11.87876,-11.14514 21.61997,-10.11665 35.34422,-12.65771 69.05355,-12.78534 27.7403,-0.10503 30.92671,0.19154 34.23756,3.18658 6.73537,6.09292 4.66486,11.12492 -13.96138,33.93048 -9.64903,11.81406 -4.73629,18.54973 12.2652,16.81632 5.32435,-0.54285 19.8219,-2.52484 32.21676,-4.40442 12.39487,-1.87958 30.92215,-3.9788 41.17175,-4.66494 l 18.63564,-1.24752 8e-5,23.20608 9e-5,23.20608 -24.70314,0.0535 c -16.84424,0.0365 -28.56363,0.97051 -36.83797,2.93602 -51.56312,12.24845 -66.69185,15.26093 -84.94382,16.91429 -11.44141,1.03643 -22.94783,2.3097 -25.56982,2.8295 -2.62199,0.51979 -4.76725,0.37166 -4.76725,-0.32919 z"
       id="path8" />
    <path
       style="opacity:1;fill:#ffff00;fill-opacity:1;stroke:#ffffff;stroke-width:0;stroke-linecap:butt;stroke-linejoin:round;stroke-dasharray:none;stroke-opacity:1"
       d="m 313.00886,980.98324 c -0.62649,-2.49613 -0.80646,-4.87102 -0.39994,-5.27756 0.40652,-0.40651 9.82809,-1.34904 20.9368,-2.09452 26.06379,-1.74903 32.90227,-6.01576 29.75294,-18.56368 -0.95973,-3.82387 -1.92833,-4.19676 -10.90151,-4.19676 -7.65971,0 -9.38591,-0.46228 -7.76794,-2.08025 3.54237,-3.54237 2.40407,-8.1737 -2.29906,-9.35412 -4.54185,-1.13993 -22.88256,2.80659 -33.33042,7.172 -5.80836,2.42688 -6.13997,2.34843 -10.69766,-2.53058 -3.46067,-3.70467 -6.96237,-5.34068 -13.25237,-6.19161 -10.63019,-1.43808 -18.9789,-4.00271 -13.74954,-4.22372 13.76538,-0.58176 23.40289,-7.53811 23.40289,-16.89219 0,-7.89452 -4.41434,-14.99962 -21.05558,-33.89005 -7.40544,-8.40632 -13.82112,-17.4108 -14.45211,-20.28365 -1.76744,-8.04709 4.1919,-19.03059 18.56666,-34.21969 20.2833,-21.43236 22.06854,-25.62347 15.08944,-35.42473 -6.08658,-8.54781 -14.71918,-6.22468 -32.81936,8.83206 -11.73658,9.76315 -20.91108,15.60339 -24.51157,15.60339 -2.5857,0 -3.22518,-1.32246 -3.22518,-6.66972 0,-6.0739 1.37188,-8.04843 15.35674,-22.10273 22.93659,-23.05051 28.92747,-38.06204 18.70062,-46.85881 -2.62922,-2.26156 -5.77193,-4.11192 -6.98381,-4.11192 -1.39361,0 -1.98271,-1.75207 -1.60288,-4.76726 0.48303,-3.83442 -0.50856,-5.45102 -5.06749,-8.26163 -9.94951,-6.13395 -8.75138,-9.97322 8.05362,-25.80676 12.67609,-11.94331 14.89756,-14.86281 14.89035,-19.56927 -0.005,-3.04244 -0.93181,-6.10237 -2.06034,-6.79984 -3.03837,-1.87782 3.16503,-3.87036 12.50082,-4.01529 9.12934,-0.14173 14.2117,2.85307 17.23709,10.157 1.63232,3.94078 1.69074,6.56429 0.23891,10.72901 -4.18942,12.01779 -0.40876,18.89472 10.34959,18.82566 9.10739,-0.0585 19.8611,-5.83412 31.34039,-16.83244 5.74022,-5.49971 14.12339,-13.55249 18.62926,-17.89506 4.50588,-4.34257 12.18022,-14.48383 17.0541,-22.53612 12.72821,-21.02866 19.63723,-28.36413 32.83442,-34.86108 12.73393,-6.26889 15.89427,-10.24234 21.48969,-27.01861 4.08221,-12.23932 3.61495,-12.05999 21.53394,-8.26445 15.7529,3.33673 46.6513,3.31703 75.5265,-0.0481 26.14094,-3.04652 25.81595,-3.171 25.85884,9.90437 0.0311,9.47556 1.31099,13.57677 4.23706,13.57677 3.6314,0 14.36827,-9.16048 21.84256,-18.63563 4.9537,-6.2798 8.42041,-9.10113 11.18305,-9.10113 5.72921,0 25.46111,6.3365 29.53011,9.483 3.33458,2.57858 3.13014,2.95816 -6.52547,12.11618 -10.67295,10.12293 -11.45421,11.33822 -7.28879,11.33822 2.897,0 11.18927,7.49405 11.18927,10.11218 0,0.88111 -2.40474,2.5981 -5.34385,3.81552 -4.34188,1.79847 -9.98908,1.78864 -30.1182,-0.0524 -39.98873,-3.65742 -64.51917,-0.13662 -71.97205,10.33001 -6.2808,8.82056 -7.18497,13.29603 -3.58368,17.73859 3.10564,3.8311 4.29443,4.00178 28.95804,4.1577 14.1457,0.0894 27.27964,0.66517 29.18654,1.27943 3.09721,0.99769 3.4671,2.64481 3.4671,15.43933 0,12.41148 0.61974,15.37667 4.64478,22.22318 6.14444,10.45154 18.17881,21.33974 29.98706,27.13105 8.87243,4.35145 9.57362,5.13668 9.57362,10.72108 0,18.23775 22.23376,39.60647 51.62604,49.61747 12.34128,4.20342 12.55761,4.54524 9.96039,15.73863 -1.20251,5.18246 -9.2921,12.83262 -17.40902,16.46333 -10.16379,4.54629 -19.36671,6.2748 -49.37805,9.27427 -14.7785,1.47703 -29.59518,3.46978 -32.92596,4.42833 -8.50049,2.44631 -25.77924,2.11766 -45.08368,-0.8575 -30.36129,-4.67925 -48.23417,-2.91548 -57.76146,5.70014 -6.29424,5.69193 -10.29207,16.01989 -9.36948,24.20504 1.2005,10.65084 7.87391,18.28315 27.66117,31.63575 25.72356,17.35844 30.05776,22.77115 27.10324,33.84741 -1.74584,6.54497 -16.29289,23.86465 -21.231,25.27758 -2.02055,0.57814 -9.52446,3.4353 -16.67534,6.34925 -7.15088,2.91394 -18.92914,6.56335 -26.17391,8.10976 -14.36939,3.0672 -20.63187,7.31157 -20.63187,13.98316 0,8.82528 -4.79525,9.51149 -66.46755,9.51149 h -56.23845 z"
       id="path9" />
    <path
       style="opacity:1;fill:#ffff00;fill-opacity:1;stroke:#ffffff;stroke-width:0;stroke-linecap:butt;stroke-linejoin:round;stroke-dasharray:none;stroke-opacity:1"
       d="m 123.09439,973.13787 c -7.95168,-1.3171 -10.84982,-2.88507 -17.57378,-9.50793 -9.136113,-8.99873 -15.809701,-21.51638 -18.64226,-34.96727 -1.096692,-5.20784 -1.93453,-26.20989 -1.93453,-48.49284 v -39.30638 l 12.260383,12.08834 c 16.282807,16.05432 28.651017,32.66052 32.243777,43.29219 1.9705,5.83107 3.06264,15.47573 3.33717,29.47031 0.37612,19.17376 2.73111,40.18499 5.23552,46.71139 1.1745,3.06069 -0.31788,3.1319 -14.92628,0.71219 z"
       id="path10" />
    <path
       style="opacity:1;fill:#ffff00;fill-opacity:1;stroke:#ffffff;stroke-width:0;stroke-linecap:butt;stroke-linejoin:round;stroke-dasharray:none;stroke-opacity:1"
       d="m 201.65755,660.57245 c -4.11419,-2.95037 -6.21093,-8.45524 -9.27869,-24.36057 -1.10339,-5.72071 -3.10641,-12.13142 -4.45117,-14.24604 -3.68118,-5.7886 -7.63877,-3.22266 -7.63877,4.95268 0,8.23124 -3.4004,16.78323 -8.46944,21.30055 -5.30243,4.72532 -7.81658,1.47875 -7.93943,-10.25234 -0.0795,-7.59269 -0.91117,-10.28767 -4.14383,-13.42797 -3.74868,-3.64158 -4.18779,-3.71077 -6.00633,-0.94645 -1.8013,2.73811 -2.3577,2.60324 -6.79385,-1.64687 -6.49577,-6.22334 -14.4383,-6.12715 -23.69385,0.28695 l -7.09406,4.91619 -7.94795,-3.03535 c -14.314178,-5.46664 -17.988044,-18.07049 -10.136993,-34.77677 6.484423,-13.79822 29.480353,-32.00099 40.427503,-32.00099 1.82149,0 7.25405,2.65295 12.07238,5.89545 14.89649,10.02459 27.17026,11.19928 66.13456,6.32957 20.66379,-2.58254 35.25673,-3.60251 40.43406,-2.82612 4.45558,0.66815 8.10105,1.53305 8.10105,1.922 0,0.38894 -1.73748,4.04061 -3.86108,8.11482 -4.87895,9.36048 -4.97449,18.79588 -0.25432,25.11804 4.53617,6.07569 17.10952,12.63344 26.68496,13.91778 7.13227,0.95664 7.21964,1.04535 3.21563,3.26511 -2.26372,1.25496 -5.38518,2.30939 -6.9366,2.34318 -2.31058,0.0503 -2.66231,1.46718 -1.94473,7.83366 1.12053,9.94135 -1.57931,16.31977 -9.07789,21.44652 -9.86516,6.74479 -19.90914,9.42707 -38.16304,10.19159 -9.53451,0.39933 -20.06581,1.09985 -23.40289,1.55671 -3.88541,0.53193 -7.42243,-0.14105 -9.83523,-1.87133 z"
       id="path11" />
    <path
       style="opacity:1;fill:#ffff00;fill-opacity:1;stroke:#ffffff;stroke-width:0;stroke-linecap:butt;stroke-linejoin:round;stroke-dasharray:none;stroke-opacity:1"
       d="m 709.8518,680.91884 c 2.19548,-14.64047 7.54426,-26.0793 15.0326,-32.14849 3.81667,-3.09336 11.84299,-9.71979 17.83627,-14.72541 5.99328,-5.00561 11.28554,-9.10112 11.76058,-9.10112 0.47504,0 0.0374,3.0958 -0.97255,6.87956 -1.00994,3.78376 -1.30998,7.40583 -0.66676,8.04906 0.64322,0.64322 5.28338,-0.54221 10.31145,-2.63429 17.49945,-7.28118 30.98553,-6.08434 35.9492,3.19036 0.97547,1.82269 2.97422,4.51461 4.44166,5.98205 2.40173,2.40174 2.02797,3.37659 -3.74413,9.76562 -8.26412,9.14739 -18.28552,14.95201 -30.16069,17.46977 -5.2134,1.10534 -12.92461,3.53636 -17.136,5.40228 -9.57265,4.2413 -31.95144,10.03684 -38.75606,10.03684 -5.11989,0 -5.1201,-4.5e-4 -3.89557,-8.16623 z"
       id="path12" />
    <path
       style="opacity:1;fill:#ffff00;fill-opacity:1;stroke:#ffffff;stroke-width:0;stroke-linecap:butt;stroke-linejoin:round;stroke-dasharray:none;stroke-opacity:1"
       d="m 949.81572,836.41434 c -13.98227,-2.36515 -24.39371,-10.10038 -26.86893,-19.96241 -4.09611,-16.32024 23.35171,-44.79726 44.37263,-46.03646 3.33708,-0.19672 8.60273,-0.24427 11.70145,-0.10567 l 5.63403,0.252 v 32.69593 32.69593 l -9.10113,1.09318 c -10.71713,1.28727 -15.01276,1.18171 -25.73805,-0.6325 z"
       id="path13" />
    <path
       style="opacity:1;fill:#ff00ff;fill-opacity:1;stroke:#ffffff;stroke-width:0;stroke-linecap:butt;stroke-linejoin:round;stroke-dasharray:none;stroke-opacity:1"
       d="m 567.73676,979.26289 c -17.88793,-6.92847 -23.50362,-11.24832 -20.60216,-15.84809 1.03721,-1.64431 5.05319,-3.61604 8.92441,-4.38161 12.1545,-2.40365 13.81283,-9.22806 3.31883,-13.65777 -5.91287,-2.49595 -35.36235,-3.20802 -46.71207,-1.12948 l -6.53165,1.19618 5.88239,-7.26359 c 17.17009,-21.20167 14.9666,-27.95845 -16.22197,-49.74305 -23.01992,-16.07895 -27.73676,-22.06288 -27.73676,-35.18774 0,-8.33481 4.58627,-16.71252 12.25893,-22.39334 6.37784,-4.72211 21.90089,-6.32134 41.27288,-4.25201 27.54725,2.94259 55.96893,2.32751 89.48585,-1.9366 36.37884,-4.62822 51.25439,-8.5808 60.19858,-15.99537 6.54315,-5.42416 11.05625,-16.0298 9.04814,-21.26284 -0.54759,-1.42699 -5.82081,-4.33078 -11.71827,-6.45286 -20.57829,-7.40467 -40.09486,-22.2493 -46.79004,-35.58926 -2.95768,-5.8931 -5.64164,-18.14235 -3.9752,-18.14235 0.5949,0 6.66444,1.54708 13.48785,3.43794 18.93739,5.24782 46.67628,7.65658 53.8164,4.67325 11.43529,-4.77797 22.08336,-22.77026 22.17096,-37.46274 0.0409,-6.85152 1.80441,-8.18785 12.18101,-9.2301 9.89443,-0.99383 47.95304,-12.59218 63.06387,-19.2187 4.69142,-2.05732 11.71228,-7.04777 15.60193,-11.08991 9.88514,-10.27266 9.19607,-9.61361 23.01274,-22.01039 6.86046,-6.15544 14.8177,-12.40391 17.68277,-13.88549 8.01772,-4.14613 16.38131,-3.42491 22.78684,1.96498 5.18949,4.36667 5.47379,5.18936 4.53438,13.12112 -1.32612,11.19717 -5.16064,16.98853 -22.14797,33.45058 -21.64438,20.97512 -22.39513,21.80006 -28.64781,31.47945 -7.16161,11.08644 -15.2243,16.02305 -40.99586,25.10086 -19.07821,6.72014 -26.88529,11.14034 -24.23411,13.72084 0.73763,0.71795 5.60664,0.19032 10.82004,-1.17252 18.57774,-4.85641 33.22415,-1.29639 37.58267,9.135 1.35014,3.23136 1.99391,6.62097 1.43059,7.53245 -0.56333,0.91148 -0.26745,1.65724 0.65752,1.65724 2.64879,0 10.42905,-10.05508 15.28149,-19.74954 6.38757,-12.76144 12.3741,-20.12205 16.36561,-20.12205 2.64368,0 4.89126,3.10227 9.37357,12.93804 4.48545,9.84268 7.64964,14.20834 13.22575,18.24766 12.86967,9.32273 32.68735,12.91787 32.68735,5.92983 0,-1.38733 -5.82076,-8.74658 -12.93503,-16.35389 -10.00295,-10.69617 -13.53958,-15.86714 -15.60193,-22.81184 -7.4593,-25.11816 0.59775,-45.08688 22.34244,-55.37396 14.46162,-6.84156 22.22131,-6.63894 29.63404,0.77379 7.0714,7.0714 9.00062,15.7061 5.9464,26.61468 -2.11997,7.57184 -5.41356,11.68999 -20.44001,25.55736 -7.00042,6.4604 -7.32263,10.51766 -0.71156,8.95973 2.62199,-0.61789 8.08267,-1.59038 12.13484,-2.1611 8.16419,-1.14986 9.16325,0.50965 5.34795,8.88333 -1.74349,3.82656 -1.48124,5.00566 1.91809,8.62409 7.47353,7.9552 10.71119,2.39886 14.0789,-24.16159 2.45104,-19.33106 5.06116,-25.07597 15.26019,-33.58791 7.60492,-6.34696 37.33224,-26.21947 39.22172,-26.21947 0.48544,0 0.88055,25.9382 0.87804,57.64044 l -0.005,57.64045 -11.69689,0.14613 c -14.17845,0.17713 -23.53243,4.39048 -35.67316,16.0684 -17.86068,17.1798 -19.71123,31.86212 -5.54733,44.0125 6.59751,5.65961 21.05741,8.704 37.5876,7.91368 l 15.33892,-0.73336 v 20.51258 c 0,23.00991 0.34147,22.45354 -15.27032,24.88004 -6.37519,0.99086 -6.43229,0.94407 -15.33078,-12.564 -21.49866,-32.63539 -45.75132,-47.55275 -76.76876,-47.21904 -28.31838,0.30467 -59.4998,-18.591 -75.37192,-45.6747 -2.64593,-4.51495 -5.36373,-8.209 -6.03955,-8.209 -0.67581,0 -3.91709,2.77572 -7.20284,6.16827 -5.64674,5.83026 -5.96575,6.80394 -5.82169,17.76885 0.12938,9.84623 1.37039,14.35334 8.20603,29.80285 9.13617,20.64899 10.41014,30.63752 4.64316,36.40449 -1.9069,1.9069 -4.23188,3.4671 -5.16661,3.4671 -0.93473,0 -7.7351,5.50186 -15.11192,12.22634 -8.2861,7.55335 -18.37321,14.67602 -26.39172,18.63564 -11.76107,5.80771 -14.28838,6.40454 -26.9266,6.35875 -11.72365,-0.0425 -15.37873,-0.79727 -22.92573,-4.73428 -4.93815,-2.57607 -9.46974,-5.4787 -10.07021,-6.45027 -0.60046,-0.97158 -4.36114,-1.76361 -8.35703,-1.76004 -12.80757,0.0114 -22.69026,8.90555 -27.52459,24.77127 -1.6983,5.57365 -1.56968,7.00939 0.84419,9.42325 2.6413,2.6413 3.52031,2.38455 12.12508,-3.54179 12.39287,-8.5353 20.06339,-8.69808 28.1638,-0.59766 7.21477,7.21476 9.03768,13.62315 5.43797,19.117 -2.84016,4.33464 -10.43095,6.72329 -16.40281,5.16162 -5.19971,-1.35976 -21.00617,7.65027 -22.27253,12.69581 -1.63095,6.49822 0.4515,9.13675 11.04211,13.99072 13.52096,6.19705 34.05172,6.56699 45.02452,0.8113 8.50999,-4.46384 20.87188,-5.03785 28.09153,-1.30441 4.46278,2.30778 10.54897,11.75453 10.54897,16.37367 0,1.36014 -24.66506,1.8741 -86.24399,1.79708 l -86.24398,-0.10786 z"
       id="path14" />
    <path
       style="opacity:1;fill:#ff00ff;fill-opacity:1;stroke:#ffffff;stroke-width:0;stroke-linecap:butt;stroke-linejoin:round;stroke-dasharray:none;stroke-opacity:1"
       d="m 827.73933,983.8359 c 1.13757,-1.84062 10.04109,-4.50086 20.65695,-6.17197 6.59459,-1.03811 6.67894,-1.14081 3.46709,-4.22136 -3.50439,-3.36112 -30.71105,-14.54688 -40.12982,-16.49899 -3.09872,-0.64223 -5.63403,-1.80283 -5.63403,-2.57909 0,-0.77627 -5.6557,-5.1778 -12.56822,-9.78117 -15.91897,-10.60118 -20.36918,-14.47997 -20.36918,-17.75373 0,-3.57877 30.78334,-33.15256 42.83527,-41.15218 21.56512,-14.31411 44.31312,-20.66937 69.64819,-19.45809 14.41117,0.68901 16.20299,1.19846 25.18099,7.15952 19.28428,12.80404 29.33863,36.7174 25.79113,61.34182 -2.29174,15.90775 -10.07083,32.24053 -20.43467,42.90414 l -7.67488,7.89687 h -40.90534 c -26.05582,0 -40.52712,-0.61197 -39.86348,-1.68577 z"
       id="path15" />
    <path
       style="opacity:1;fill:#ff00ff;fill-opacity:1;stroke:#ffffff;stroke-width:0;stroke-linecap:butt;stroke-linejoin:round;stroke-dasharray:none;stroke-opacity:1"
       d="m 155.67584,980.5021 c -8.29321,-2.54317 -15.51211,-5.05747 -16.04199,-5.58735 -2.06096,-2.06096 -4.47686,-20.91282 -6.03097,-47.06115 -2.19125,-36.86837 -5.51127,-43.79604 -36.748428,-76.68064 L 84.926507,838.61594 85.36855,670.92587 85.810594,503.2358 99.678973,498.0519 c 7.627607,-2.85114 16.752937,-5.88536 20.278517,-6.7427 3.52557,-0.85734 12.17336,-4.29437 19.21731,-7.63785 7.04395,-3.34348 13.98083,-6.07905 15.41529,-6.07905 1.43446,0 8.70841,-1.5602 16.16432,-3.4671 16.73307,-4.2796 42.34152,-4.58713 61.18063,-0.73472 20.40891,4.17342 36.81923,10.1475 66.2351,24.11246 14.7785,7.01598 34.0073,15.22782 42.73068,18.24852 l 15.86069,5.4922 -3.72586,10.26271 -3.72586,10.26272 -1.19599,-6.87128 c -2.37421,-13.64055 -8.86058,-19.76234 -15.98979,-15.0911 -6.94574,4.55102 -8.83764,11.99669 -6.29664,24.78047 2.74209,13.79543 0.34733,24.34863 -7.24906,31.94501 -8.76998,8.76999 -17.92269,5.62958 -23.09952,-7.92576 -3.1849,-8.33958 -7.336,-9.9815 -14.94281,-5.91046 -4.95814,2.65351 -3.26501,9.4702 5.59149,22.51197 9.09389,13.39135 12.56915,21.80029 11.22425,27.15882 -0.97101,3.86879 -1.66875,4.15593 -7.49371,3.08389 -8.69001,-1.59932 -21.12714,-7.20879 -25.87729,-11.67132 -6.07584,-5.70795 -6.80821,-14.06249 -2.20609,-25.16592 3.27432,-7.89992 3.53339,-9.76495 1.53237,-11.03212 -3.56873,-2.25996 -20.44941,-1.87547 -44.88003,1.02224 -26.17387,3.10447 -45.96568,3.3112 -53.91467,0.56315 -3.241,-1.12045 -9.48943,-4.24084 -13.88541,-6.93419 -4.39598,-2.69336 -10.08275,-4.89702 -12.63728,-4.89702 -11.24449,0 -32.58642,16.88962 -39.908292,31.58269 -8.50842,17.07418 -4.534869,30.33583 10.906882,36.40152 6.66773,2.61916 7.1249,2.56783 13.06198,-1.46652 9.46559,-6.43204 15.55648,-7.00885 22.82182,-2.16127 5.858,3.90858 6.12819,4.51669 5.29613,11.91967 -0.48223,4.29053 -0.13371,11.70144 0.77449,16.4687 0.9082,4.76725 2.33244,13.94058 3.16497,20.38518 1.7956,13.89955 3.84996,16.88608 11.61554,16.88608 5.52276,0 5.72804,0.22148 4.1216,4.44673 -2.79663,7.3557 -1.96517,20.28491 1.77646,27.6239 6.73844,13.21707 4.37121,17.89551 -18.68318,36.9243 -10.29568,8.4979 -12.51292,13.92357 -8.31081,20.3368 2.68694,4.10079 3.50478,4.3018 13.62609,3.34876 8.95035,-0.84276 11.70422,-0.42383 16.31744,2.48227 9.46248,5.96085 11.78446,12.48128 11.79422,33.11975 0.005,10.01123 -0.6367,18.67316 -1.42541,19.24874 -0.78871,0.57557 0.19941,7.98648 2.19582,16.4687 6.57506,27.93559 15.22417,51.45073 24.42269,66.40023 4.72111,7.67279 5.94405,8.55697 13.37726,9.67164 9.94283,1.49102 15.39691,4.20624 21.63382,10.77006 4.73051,4.97844 12.06182,20.9588 14.18711,30.9242 1.02182,4.79135 0.60204,5.45358 -4.66387,7.35778 -3.18272,1.15088 -7.46617,3.65711 -9.51877,5.5694 -3.50289,3.26344 -5.94478,3.46474 -39.77559,3.27907 -33.82075,-0.18562 -36.97351,-0.483 -51.12217,-4.82175 z"
       id="path16" />
    <path
       style="opacity:1;fill:#ff00ff;fill-opacity:1;stroke:#ffffff;stroke-width:0;stroke-linecap:butt;stroke-linejoin:round;stroke-dasharray:none;stroke-opacity:1"
       d="m 474.1252,581.34743 c -28.87693,-2.08126 -35.84081,-3.38671 -34.64629,-6.4948 2.13816,-5.56342 2.86589,-30.71415 1.10742,-38.27272 -0.99217,-4.26468 -1.65117,-7.90672 -1.46445,-8.09344 0.18671,-0.18672 2.55362,-0.8952 5.25978,-1.5744 4.62443,-1.16066 4.78686,-1.02123 2.70107,2.31864 -1.80935,2.89722 -1.79906,4.05985 0.0557,6.29466 3.76672,4.53862 15.76121,3.44545 26.98681,-2.45956 9.63114,-5.06627 22.0999,-6.97784 24.12647,-3.69879 0.5105,0.82602 -7.63447,10.03291 -18.09994,20.45977 -19.45695,19.38515 -22.67055,24.84416 -14.62521,24.84416 8.47564,0 17.59885,-6.82154 37.51761,-28.05238 25.9567,-27.66651 36.7501,-33.38416 50.04356,-26.50985 2.81301,1.45466 5.11456,3.94212 5.11456,5.52768 0,1.58556 -5.54132,8.00133 -12.31403,14.25725 -14.65205,13.53403 -17.35987,18.23212 -17.64998,30.62292 -0.12047,5.14526 -0.25369,9.44565 -0.29605,9.55641 -0.44181,1.15525 -41.86158,2.13611 -53.81699,1.27445 z"
       id="path17" />
    <path
       style="opacity:1;fill:#ff00ff;fill-opacity:1;stroke:#ffffff;stroke-width:0;stroke-linecap:butt;stroke-linejoin:round;stroke-dasharray:none;stroke-opacity:1"
       d="m 543.67483,570.71302 c 4.653,-5.09945 11.19034,-12.91951 14.52742,-17.37793 6.32269,-8.44728 14.39669,-12.49477 22.6123,-11.33553 3.56055,0.50239 4.34748,1.6937 4.8061,7.27584 1.08067,13.15324 -12.234,26.27014 -28.49355,28.07032 -4.65265,0.51512 -11.48627,1.31963 -15.18582,1.78779 l -6.72645,0.85122 z"
       id="path18" />
    <path
       style="opacity:1;fill:#ff00ff;fill-opacity:1;stroke:#ffffff;stroke-width:0;stroke-linecap:butt;stroke-linejoin:round;stroke-dasharray:none;stroke-opacity:1"
       d="m 624.97289,585.11926 c -1.43041,-2.31444 -22.63311,-8.71477 -28.86989,-8.71477 h -5.07272 l 7.22966,-9.96789 c 13.26413,-18.28793 18.69594,-22.97275 26.60231,-22.94395 14.62314,0.0533 21.89088,8.35538 17.77425,20.30398 -2.6123,7.58227 -12.71848,23.00915 -15.07333,23.00915 -0.85138,0 -2.017,-0.75893 -2.59028,-1.68652 z"
       id="path19" />
    <path
       style="opacity:1;fill:#ff00ff;fill-opacity:1;stroke:#ffffff;stroke-width:0;stroke-linecap:butt;stroke-linejoin:round;stroke-dasharray:none;stroke-opacity:1"
       d="m 571.80873,657.9623 c -0.61164,-1.83492 -7.25637,-2.619 -28.81287,-3.39993 -22.90264,-0.82971 -28.54411,-1.5421 -30.90017,-3.90201 -6.95859,-6.96996 4.93917,-22.31932 19.75529,-25.4864 10.31968,-2.20593 34.00747,-2.52292 61.73835,-0.82619 l 18.59096,1.1375 -9.17132,5.29502 c -9.49386,5.48125 -23.05823,17.85794 -27.72804,25.30022 -1.87527,2.98862 -2.91536,3.55231 -3.4722,1.88179 z"
       id="path20" />
    <path
       style="opacity:1;fill:#ff00ff;fill-opacity:1;stroke:#ffffff;stroke-width:0;stroke-linecap:butt;stroke-linejoin:round;stroke-dasharray:none;stroke-opacity:1"
       d="m 974.56031,589.2159 c -4.12184,-2.4702 -11.53275,-5.94511 -16.4687,-7.72202 -4.93593,-1.77692 -8.27958,-3.2589 -7.43031,-3.2933 3.7765,-0.15295 -15.10615,-13.05475 -29.28088,-20.00652 -18.04324,-8.84902 -42.8608,-15.57184 -67.60012,-18.31218 -24.18536,-2.67898 -37.87654,-6.07479 -52.23619,-12.95609 -13.31787,-6.38208 -23.18135,-15.83721 -23.18135,-22.22165 0,-4.48195 4.91607,-9.5655 13.86838,-14.34085 4.99307,-2.66341 9.90436,-3.23648 27.73676,-3.23648 26.61554,0 35.21062,2.61907 79.64802,24.27015 16.63305,8.10406 32.23498,14.73031 34.67094,14.72499 7.85081,-0.0171 17.25718,-3.49046 19.97985,-7.37762 2.06263,-2.94482 2.65143,-3.15691 2.65143,-0.95507 0,4.11681 12.5055,19.28536 20.6531,25.05119 l 7.00963,4.96051 0.037,22.96951 c 0.0204,12.63322 -0.54806,22.96212 -1.26314,22.9531 -0.71509,-0.009 -4.67257,-2.03747 -8.79443,-4.50767 z"
       id="path21" />
    <path
       style="opacity:1;fill:#ff00ff;fill-opacity:1;stroke:#ffffff;stroke-width:0;stroke-linecap:butt;stroke-linejoin:round;stroke-dasharray:none;stroke-opacity:1"
       d="m 948.2504,424.89415 c 0,-4.06149 -13.6932,-14.59114 -24.13211,-18.55685 -13.46236,-5.11431 -33.91977,-5.91206 -66.7534,-2.60308 -15.18607,1.53045 -31.32228,2.78263 -35.85825,2.78263 -10.34005,0 -17.39397,-2.52343 -16.14587,-5.77593 0.65842,-1.71581 7.07928,-3.02904 22.06962,-4.5138 24.10412,-2.38745 47.96892,-6.71227 79.21487,-14.35546 18.21487,-4.45561 26.16016,-5.43334 49.83949,-6.13317 l 28.17015,-0.83256 v 25.38449 25.38449 l -5.51054,-2.84961 c -6.4929,-3.35761 -20.26252,-2.39194 -26.77935,1.87806 -3.49998,2.29327 -4.11461,2.32177 -4.11461,0.19079 z"
       id="path22" />
    <path
       style="opacity:1;fill:#ff00ff;fill-opacity:1;stroke:#ffffff;stroke-width:0;stroke-linecap:butt;stroke-linejoin:round;stroke-dasharray:none;stroke-opacity:1"
       d="m 884.70505,212.28775 c -7.90056,-1.56306 -20.48414,-7.4476 -22.33699,-10.44558 -0.64557,-1.04455 0.90896,-4.07309 3.45452,-6.73008 4.28045,-4.46783 4.41566,-5.04353 1.7991,-7.6601 -1.55606,-1.55606 -3.94362,-2.8292 -5.3057,-2.8292 -3.19583,0 -3.13327,-0.60505 0.85854,-8.30341 8.21155,-15.83629 28.95033,-29.1467 53.06624,-34.05858 15.04414,-3.06416 65.17106,-8.26345 66.53785,-6.90148 0.55523,0.55328 1.26488,14.78926 1.57699,31.63552 l 0.56748,30.62956 -4.03457,0.18034 c -2.21902,0.0992 -14.56588,2.96083 -27.43747,6.3592 -34.55188,9.12241 -52.79936,11.27874 -68.74599,8.12381 z"
       id="path23" />
    <path
       style="opacity:1;fill:#ff00ff;fill-opacity:1;stroke:#ffffff;stroke-width:0;stroke-linecap:butt;stroke-linejoin:round;stroke-dasharray:none;stroke-opacity:1"
       d="m 658.74799,174.45381 c -14.76548,-5.72353 -41.46924,-17.71816 -71.94221,-32.31455 -11.44141,-5.48037 -29.38363,-13.70176 -39.87159,-18.26975 l -19.06902,-8.30543 -7.21878,-13.5495 c -3.97033,-7.45222 -6.84965,-14.146755 -6.39849,-14.87674 0.45115,-0.729985 13.8623,-1.327246 29.80255,-1.327246 31.93827,0 33.44844,0.416598 40.01282,11.037997 1.98511,3.211969 3.62641,8.478199 3.64735,11.702739 0.057,8.7721 5.80408,19.9442 11.87445,23.08331 6.6218,3.42426 12.47199,3.43815 20.58373,0.0488 13.75602,-5.74763 19.51017,-15.67765 19.51017,-33.668993 V 85.810594 h 92.0802 92.08019 l -1.1807,3.900481 c -4.35674,14.392425 -20.02624,78.560845 -20.02624,82.009725 0,4.85335 -0.11288,4.89834 -5.79469,2.30955 -4.65416,-2.12059 -8.07369,-8.20031 -8.07369,-14.3546 0,-2.18974 3.12039,-13.00654 6.93419,-24.03733 7.88796,-22.81461 8.95501,-34.8133 3.67573,-41.332925 l -3.25846,-4.02403 -6.38173,4.867575 c -12.15759,9.27305 -19.96745,22.38994 -22.57409,37.91384 -1.45868,8.68706 -6.18797,11.47411 -22.59192,13.31373 -8.49624,0.95282 -14.45482,2.55083 -16.24743,4.35735 -2.61996,2.64029 -2.47393,3.4953 1.96109,11.48156 3.45505,6.22159 4.18047,8.84821 2.60032,9.41521 -5.3641,1.92479 -34.64867,6.2845 -47.26376,7.03634 -12.31321,0.73386 -15.32635,0.26139 -26.86999,-4.21326 z"
       id="path24" />
    <path
       style="opacity:1;fill:#ff00ff;fill-opacity:1;stroke:#ffffff;stroke-width:0;stroke-linecap:butt;stroke-linejoin:round;stroke-dasharray:none;stroke-opacity:1"
       d="m 777.1697,265.72016 -7.26047,-1.51586 4.2707,-6.29324 c 5.72024,-8.42923 6.75197,-13.39042 4.41018,-21.20663 -3.00549,-10.03143 -2.43349,-19.80941 1.44744,-24.74322 3.32056,-4.22141 13.24172,-9.53266 14.83339,-7.94099 0.72277,0.72277 -9.11393,62.40255 -10.04275,62.97186 -0.21891,0.13417 -3.66523,-0.43819 -7.65849,-1.27192 z"
       id="path26" />
    <path
       style="opacity:1;fill:#ff00ff;fill-opacity:1;stroke:#ffffff;stroke-width:0;stroke-linecap:butt;stroke-linejoin:round;stroke-dasharray:none;stroke-opacity:1"
       d="m 621.47673,223.54036 c -11.44142,-1.24005 -32.23044,-2.31278 -46.19784,-2.38385 l -25.39526,-0.12922 -0.7359,-8.23435 c -0.40475,-4.5289 -0.62451,-8.41818 -0.48837,-8.64286 0.13614,-0.22467 5.6544,0.7369 12.26279,2.13684 16.40869,3.47605 53.59359,3.35698 92.22583,-0.29531 27.36998,-2.58757 34.19755,-2.69373 50.27288,-0.78173 10.23088,1.21686 25.77396,2.64726 34.54016,3.17867 11.17148,0.67722 16.21045,1.6748 16.84767,3.33537 0.54995,1.43314 -0.26796,2.37801 -2.07015,2.39154 -1.63862,0.0123 -8.04994,1.61637 -14.24737,3.56459 -26.83842,8.43691 -72.25502,10.71146 -117.01444,5.86031 z"
       id="path27" />
    <path
       style="opacity:1;fill:#ff00ff;fill-opacity:1;stroke:#ffffff;stroke-width:0;stroke-linecap:butt;stroke-linejoin:round;stroke-dasharray:none;stroke-opacity:1"
       d="m 560.19382,339.34189 c -0.87864,-1.66854 -2.10817,-14.3451 -2.73231,-28.17014 -0.62413,-13.82504 -1.56146,-28.0618 -2.08295,-31.63724 -0.81927,-5.61711 -0.48781,-6.5008 2.43834,-6.5008 1.86258,0 12.26742,-2.01466 23.12188,-4.47702 10.85446,-2.46236 25.39108,-5.47023 32.3036,-6.68416 l 12.56821,-2.20714 v 4.16993 c 0,12.89881 15.14627,25.61668 33.03061,27.73482 4.71599,0.55854 8.57453,1.82068 8.57453,2.80476 0,0.98408 -3.38525,5.03288 -7.52278,8.99734 -9.30052,8.91146 -22.63116,14.38733 -52.94473,21.74829 -17.41512,4.22886 -25.27027,7.05559 -31.77982,11.43619 -9.78796,6.58681 -12.6886,7.12631 -14.97458,2.78517 z"
       id="path28" />
    <path
       style="opacity:1;fill:#ff00ff;fill-opacity:1;stroke:#ffffff;stroke-width:0;stroke-linecap:butt;stroke-linejoin:round;stroke-dasharray:none;stroke-opacity:1"
       d="m 529.15826,189.53648 c -10.54335,-5.82128 -17.26598,-7.89888 -41.60514,-12.85792 -30.9353,-6.30299 -36.2501,-7.93863 -42.96917,-13.22386 -4.34821,-3.4203 -5.44275,-9.78851 -3.15214,-18.33953 1.71689,-6.40927 9.43489,-8.94229 38.3554,-12.58811 15.00146,-1.89114 31.05927,-4.68367 35.68401,-6.20563 7.36088,-2.4224 8.72309,-2.45274 10.93233,-0.24349 4.10597,4.10597 19.86734,70.87924 16.65064,70.54069 -0.72635,-0.0764 -6.97952,-3.26342 -13.89593,-7.08215 z"
       id="path29" />
    <path
       style="opacity:1;fill:#ff00ff;fill-opacity:1;stroke:#ffffff;stroke-width:0;stroke-linecap:butt;stroke-linejoin:round;stroke-dasharray:none;stroke-opacity:1"
       d="m 84.967491,185.08921 c 0.01302,-19.80228 0.471986,-37.67498 1.019927,-39.71712 l 0.996256,-3.71298 7.214423,4.12549 c 8.334273,4.76586 19.634333,5.45354 27.002543,1.64329 6.90566,-3.57106 10.46378,-12.39066 12.45156,-30.86406 1.90968,-17.747527 4.06094,-26.056044 7.4815,-28.894863 1.59487,-1.323623 32.97362,-1.752694 105.22433,-1.438831 l 102.95176,0.447232 -17.04888,4.664059 c -9.37688,2.565233 -18.81645,5.822221 -20.97683,7.237752 -6.18691,4.053821 -9.42432,13.047631 -12.98239,36.066121 -3.8137,24.67234 -5.07103,28.52857 -11.14316,34.17623 -6.15971,5.72912 -34.26623,13.9236 -83.77639,24.42507 -55.44355,11.75999 -95.45977,20.87434 -102.83639,23.42269 -3.337082,1.15283 -8.212684,2.61986 -10.834675,3.26006 l -4.767255,1.16399 z"
       id="path30" />
    <path
       style="opacity:1;fill:#00ffff;fill-opacity:1;stroke:#ffffff;stroke-width:0;stroke-linecap:butt;stroke-linejoin:round;stroke-dasharray:none;stroke-opacity:1"
       d="m 653.22484,734.0221 c -49.18812,-7.21559 -79.42067,-30.82966 -79.42067,-62.03398 0,-15.6352 10.30027,-28.80596 32.07063,-41.00812 17.24746,-9.66709 16.24505,-9.98501 16.82635,5.33645 l 0.50912,13.41899 5.33252,-4.49523 c 2.93286,-2.47239 10.28758,-13.70619 16.34378,-24.96404 6.0562,-11.25783 14.18735,-25.07051 18.06925,-30.69483 6.53918,-9.47439 7.10319,-11.22192 7.67325,-23.77458 1.28241,-28.23934 -13.79259,-54.28516 -33.56666,-57.99482 -5.74578,-1.0779 -14.11881,1.97841 -25.98697,9.48577 -2.86035,1.80933 -7.55612,3.77955 -10.43502,4.37823 -8.89405,1.84955 -11.10087,-1.41518 -13.74283,-20.33087 -3.15567,-22.59383 -7.79793,-28.95342 -21.13496,-28.95342 -8.91345,0 -30.46554,8.94355 -56.32086,23.37169 -23.1785,12.93438 -43.7128,21.70054 -50.83242,21.70054 -1.18197,0 -3.54719,1.54494 -5.25603,3.43319 -1.70885,1.88827 -5.71064,3.92165 -8.89288,4.51863 -4.96734,0.93189 -6.40018,0.35538 -10.12818,-4.0751 -6.28851,-7.47346 -13.50171,-10.06175 -21.33815,-7.6567 -3.46551,1.0636 -6.47895,1.75581 -6.69653,1.53825 -0.21756,-0.21758 5.01153,-6.86026 11.62023,-14.7615 21.66656,-25.90425 24.75235,-39.40503 10.36829,-45.36309 -7.11989,-2.94916 -13.04378,-1.13586 -24.36712,7.45876 -5.24263,3.97925 -12.70066,9.2693 -16.57341,11.75564 -8.23979,5.29007 -17.15593,16.95698 -25.0288,32.75064 -3.08932,6.19743 -5.80222,11.48078 -6.02867,11.74078 -1.17479,1.34885 -34.53691,-11.85332 -58.11796,-22.99863 -44.83431,-21.19043 -70.79126,-27.91479 -102.05356,-26.43781 -24.00553,1.13412 -47.29275,7.20388 -82.05565,21.38761 -14.972748,6.10907 -27.649313,11.10741 -28.170144,11.10741 -0.520831,0 -0.946966,-3.08388 -0.946966,-6.85308 0,-6.39388 0.493666,-7.07213 7.367576,-10.12253 4.052167,-1.79821 12.941184,-6.8476 19.753354,-11.22087 21.78342,-13.98449 25.80938,-15.5003 44.82129,-16.87575 12.32932,-0.89198 19.4965,-2.32337 24.55478,-4.90391 8.57121,-4.3727 18.79308,-15.84839 21.54548,-24.18826 l 1.99721,-6.05161 13.22253,1.12457 c 39.89787,3.39329 86.75288,4.84424 124.16956,3.84513 64.63873,-1.726 136.45401,-8.26827 164.95185,-15.02688 11.54395,-2.73779 19.37973,-3.27123 42.77069,-2.91173 26.78499,0.41166 28.95457,0.20397 33.53934,-3.21068 7.35459,-5.47757 7.14916,-8.70892 -0.64537,-10.15193 -15.01404,-2.77956 -22.05472,-8.74093 -24.82372,-21.01833 -2.73739,-12.13722 5.84427,-29.46256 18.45354,-37.25552 3.25292,-2.01042 17.74272,-6.69573 32.19955,-10.41181 33.5688,-8.62874 45.32024,-14.07824 55.26799,-25.62947 4.64204,-5.3903 9.07916,-8.8952 11.26173,-8.89572 1.98089,-4.7e-4 8.40119,-1.95109 14.26732,-4.33472 21.88304,-8.89187 35.57745,-3.55414 41.28916,16.09347 4.15944,14.30794 2.702,53.89236 -2.34348,63.64971 -5.64221,10.91136 -16.4123,22.02655 -38.40086,39.63131 -21.3792,17.1169 -32.57975,28.53015 -37.2336,37.94066 -2.6578,5.37432 -2.61847,5.78034 0.84023,8.67201 4.51953,3.7786 15.51797,3.9532 23.07676,0.36632 3.09161,-1.46707 17.3244,-14.19354 31.62842,-28.28105 14.30403,-14.08751 28.58163,-26.67997 31.72802,-27.98325 5.10922,-2.1163 6.37445,-2.0118 11.83682,0.97768 12.07589,6.60894 24.13288,36.18796 26.27028,64.44798 1.43012,18.90893 3.89176,23.20944 11.34208,19.81484 2.58321,-1.17699 5.88714,-5.16468 7.79528,-9.40855 2.8616,-6.36451 3.19236,-10.19351 2.43324,-28.16832 -0.97866,-23.17278 1.80785,-40.41425 6.33766,-39.21427 8.18231,2.16756 22.05249,1.98085 51.10209,-0.68789 48.93276,-4.49536 68.1756,-1.58964 82.57264,12.46869 7.34267,7.16992 7.99166,9.41087 3.74154,12.91944 -6.31396,5.21233 -8.93824,15.40276 -7.42004,28.81309 1.80672,15.95874 7.37729,36.33855 12.92532,47.28706 2.37104,4.679 4.31096,9.35312 4.31096,10.38692 0,2.64484 -10.92133,6.90284 -17.71318,6.90602 -3.6211,0.002 -17.34965,-5.63662 -37.76033,-15.50811 -41.99481,-20.31054 -58.33744,-25.08731 -82.10188,-23.99744 -14.61412,0.6702 -19.10078,1.58335 -26.61597,5.417 -14.70575,7.50169 -16.71649,16.08231 -6.1691,26.32583 13.42124,13.03452 36.09552,20.9184 71.54826,24.87737 33.03082,3.68852 72.0463,17.27074 87.54415,30.4762 l 5.20064,4.43138 -8.86725,-1.06832 c -14.52366,-1.74979 -24.97636,5.43292 -29.27818,20.11888 -4.23864,14.4703 -13.0706,13.83057 -36.39711,-2.63635 -20.1364,-14.21493 -23.31924,-15.22507 -48.53932,-15.40506 -21.04477,-0.1502 -23.19785,0.14926 -32.53565,4.52499 -12.0558,5.6494 -27.03433,20.14347 -33.0164,31.94851 -2.95875,5.8388 -8.40828,11.92612 -16.9413,18.92405 -29.38347,24.09731 -30.77109,26.37058 -35.39691,57.98896 -3.15226,21.54629 -5.82319,29.73755 -11.77515,36.11217 -8.32346,8.91452 -17.85564,10.54681 -41.41152,7.09131 z"
       id="path31" />
    <path
       style="opacity:1;fill:#00ffff;fill-opacity:1;stroke:#ffffff;stroke-width:0;stroke-linecap:butt;stroke-linejoin:round;stroke-dasharray:none;stroke-opacity:1"
       d="m 187.86314,814.33387 c 0.0917,-12.47968 -0.57366,-16.47006 -3.75366,-22.51076 -5.55123,-10.54508 -10.4883,-13.17522 -25.02225,-13.33013 -9.19533,-0.098 -12.64952,-0.81422 -13.96524,-2.89561 -3.41266,-5.39863 0.36078,-11.81444 13.0988,-22.27135 12.44239,-10.21423 18.60104,-17.96367 18.60104,-23.40573 0,-1.55941 -1.56019,-5.89353 -3.46709,-9.63137 -3.98906,-7.81919 -4.75789,-25.44561 -1.30017,-29.80792 2.64983,-3.34306 28.46662,-11.98504 36.33187,-12.16183 3.13866,-0.0706 9.21667,1.21598 13.5067,2.85896 9.16593,3.51033 19.86972,2.065 38.35405,-5.17895 10.31704,-4.04322 11.1852,-4.13237 13.21466,-1.3569 1.1947,1.63384 2.17218,4.16272 2.17218,5.61973 0,1.45701 -7.08419,9.42974 -15.74264,17.71718 -17.59876,16.84466 -18.82678,20.46544 -9.02719,26.61632 5.71651,3.58806 8.40826,12.22547 3.18533,10.22125 -3.02325,-1.16013 -20.68052,5.71529 -37.82035,14.72655 -17.61438,9.26076 -19.98445,14.26039 -21.9248,46.25001 -1.26005,20.77386 -3.52687,33.70909 -5.90732,33.70909 -0.35498,0 -0.59524,-6.82584 -0.53392,-15.16854 z"
       id="path32" />
    <path
       style="opacity:1;fill:#00ffff;fill-opacity:1;stroke:#ffffff;stroke-width:0;stroke-linecap:butt;stroke-linejoin:round;stroke-dasharray:none;stroke-opacity:1"
       d="m 363.7038,249.84378 c -21.61235,-5.92053 -37.76718,-26.36828 -35.6528,-45.12701 0.44831,-3.9774 2.03225,-9.93065 3.51986,-13.22942 1.48762,-3.29878 3.65644,-9.11817 4.81961,-12.93197 3.76128,-12.3325 6.90112,-16.68309 27.01531,-37.4327 19.79324,-20.41852 24.90883,-28.17781 24.90883,-37.78155 0,-4.359361 -1.47576,-6.028984 -9.9679,-11.277317 l -9.9679,-6.160387 71.84823,-0.04642 71.84822,-0.04642 -8.57375,5.363291 c -4.71556,2.94981 -12.08417,8.758783 -16.3747,12.908823 -6.48491,6.27257 -11.29606,8.7696 -28.51818,14.80116 -27.36192,9.58275 -40.65249,15.66705 -54.8708,25.11936 -17.67214,11.74842 -37.95934,35.28784 -37.95934,44.04457 0,6.15236 4.89303,10.3569 21.97191,18.88029 20.14809,10.05511 24.03039,17.45958 15.66565,29.87815 -7.78629,11.55979 -24.76221,17.13299 -39.71225,13.03754 z"
       id="path33" />
    <path
       style="opacity:1;fill:#00ffff;fill-opacity:1;stroke:#ffffff;stroke-width:0;stroke-linecap:butt;stroke-linejoin:round;stroke-dasharray:none;stroke-opacity:1"
       d="m 94.081142,143.79136 -7.331378,-4.39414 3.348365,-8.81218 c 7.698298,-20.26027 24.130301,-35.695262 44.833961,-42.11366 3.56741,-1.105941 3.84166,-0.86741 2.30468,2.004476 -0.95953,1.792889 -2.95873,12.577924 -4.44268,23.966744 -2.82816,21.70523 -5.24243,27.4184 -13.34643,31.58321 -6.85775,3.52433 -17.29178,2.60523 -25.366518,-2.23445 z"
       id="path34" />
    <path
       style="opacity:1;fill:#00ffff;fill-opacity:1;stroke:#ffffff;stroke-width:0;stroke-linecap:butt;stroke-linejoin:round;stroke-dasharray:none;stroke-opacity:1"
       d="m 601.70804,130.42388 c -7.002,-3.59847 -11.07697,-10.79625 -11.92901,-21.07069 -0.64169,-7.73792 -1.92244,-10.860393 -6.78447,-16.540588 l -5.99346,-7.002008 h 30.47216 30.47217 v 11.155204 c 0,13.037372 -1.9343,19.040142 -8.34464,25.896182 -8.25323,8.82706 -19.49869,11.87578 -27.89275,7.5619 z"
       id="path35" />
    <path
       style="opacity:1;fill:#00ffff;fill-opacity:1;stroke:#ffffff;stroke-width:0;stroke-linecap:butt;stroke-linejoin:round;stroke-dasharray:none;stroke-opacity:1"
       d="m 539.13234,271.23833 c 7.10785,-3.08393 17.33636,-14.63703 17.33636,-19.58143 0,-0.41053 -14.62681,-0.6443 -32.50401,-0.51948 -39.75501,0.27757 -63.89782,-2.71057 -65.61506,-8.12113 -1.79403,-5.65247 3.06483,-7.53956 22.26655,-8.64791 9.77827,-0.56441 21.51891,-2.21001 26.09031,-3.65689 24.60638,-7.7881 69.0759,-9.88694 113.03669,-5.33503 48.51096,5.02305 90.65515,2.87171 120.97179,-6.17528 6.46706,-1.92988 12.60004,-2.98864 13.62885,-2.3528 2.47747,1.53115 0.48694,16.38279 -3.24451,24.20771 -3.69632,7.75125 -14.1153,12.9086 -26.07822,12.9086 -9.13557,0 -18.02142,-2.85758 -46.3373,-14.9015 -13.23238,-5.62829 -17.53513,-6.64615 -28.33074,-6.702 -12.08633,-0.0625 -12.94147,0.19666 -16.94179,5.1348 -2.31711,2.86035 -5.54834,8.9061 -7.18048,13.43499 -2.38698,6.62343 -3.75899,8.23435 -7.01315,8.23435 -2.22509,0 -16.66879,2.7768 -32.09711,6.17066 -28.34748,6.23577 -56.83129,9.73916 -47.98818,5.90234 z"
       id="path36" />
    <path
       style="opacity:1;fill:#00ffff;fill-opacity:1;stroke:#ffffff;stroke-width:0;stroke-linecap:butt;stroke-linejoin:round;stroke-dasharray:none;stroke-opacity:1"
       d="m 880.20867,336.06996 c -5.12044,-1.48998 -3.42413,-6.84849 5.7876,-18.28259 16.24228,-20.16081 17.65676,-27.66951 6.26101,-33.23618 -5.3781,-2.62713 -10.78685,-3.22894 -29.47031,-3.27904 -32.03934,-0.0859 -55.12022,5.10409 -80.56259,18.11545 -11.91931,6.0956 -13.34556,6.44746 -16.84359,4.15546 -2.10189,-1.37721 -4.82194,-4.91899 -6.04454,-7.87061 -1.87719,-4.53193 -1.78431,-6.50751 0.59717,-12.7025 1.55104,-4.03476 4.57695,-9.51785 6.72423,-12.18466 l 3.90415,-4.84874 11.89913,2.76551 c 9.91034,2.3033 19.18206,2.60106 55.47352,1.78152 39.44565,-0.89077 44.57413,-0.6755 54.1257,2.2719 13.89647,4.28814 14.7676,4.86499 22.85216,15.13253 13.05706,16.58268 32.00118,25.01729 56.18885,25.01729 h 13.55374 v 6.67356 6.67356 l -18.63564,1.13765 c -10.2496,0.6257 -29.16693,2.76366 -42.03852,4.75101 -26.30858,4.06201 -39.30555,5.22859 -43.77207,3.92888 z"
       id="path37" />
    <path
       style="opacity:1;fill:#00ffff;fill-opacity:1;stroke:#ffffff;stroke-width:0;stroke-linecap:butt;stroke-linejoin:round;stroke-dasharray:none;stroke-opacity:1"
       d="m 755.77319,978.31114 c -3.73482,-10.57381 -9.96172,-14.4688 -23.04317,-14.41376 -7.71768,0.0325 -12.13843,1.00059 -15.83195,3.4671 -4.15852,2.77702 -8.07953,3.42204 -20.80257,3.42204 -13.25628,0 -17.01711,-0.66948 -24.3459,-4.33387 -9.75455,-4.87727 -11.92744,-10.08445 -6.6442,-15.92236 5.14418,-5.68426 11.96253,-8.3473 21.37206,-8.3473 7.06645,0 9.68347,-0.85085 13.08769,-4.25507 4.94736,-4.94736 5.25364,-7.90364 1.59741,-15.41874 -6.68484,-13.74022 -22.77729,-16.74633 -35.38952,-6.61086 -12.12867,9.74686 -15.69277,4.45264 -7.74265,-11.50118 8.45387,-16.9647 20.94699,-20.82473 36.03839,-11.13486 23.45631,15.06081 52.91476,9.27117 80.1934,-15.76086 6.54585,-6.00675 14.75791,-12.654 18.24901,-14.77166 7.39852,-4.48784 10.39172,-11.41706 8.48017,-19.63145 -0.74169,-3.18722 -4.70634,-13.5959 -8.81033,-23.13041 -8.46178,-19.65869 -10.3058,-30.71178 -6.38776,-38.28844 2.6523,-5.12898 9.471,-12.26584 10.47386,-10.96257 0.30119,0.39142 2.69159,4.45469 5.31199,9.02948 9.59308,16.74795 29.44071,32.2931 51.62215,40.4317 4.12775,1.51451 16.18585,3.33388 26.7958,4.04304 36.23986,2.42223 51.39386,13.67053 81.69755,60.64124 0.44009,0.68213 15.51469,-2.69094 20.79334,-4.65269 3.84914,-1.43049 2.90024,41.97285 -1.20608,55.16645 -3.84241,12.34568 -13.40051,27.18233 -21.47624,33.33667 -8.18403,6.23689 -22.1728,12.92541 -29.41984,14.06668 -3.52278,0.55477 -9.24477,1.45458 -12.7155,1.99957 l -6.31046,0.99094 7.85397,-8.97827 c 30.75856,-35.16165 25.50822,-86.60316 -10.8593,-106.39684 -29.44352,-16.02517 -85.84805,0.58091 -118.0035,34.74147 -4.37115,4.64372 -10.41689,10.518 -13.43499,13.05396 -9.10148,7.64754 -6.85778,12.77555 10.11448,23.11684 4.29053,2.61424 10.14297,6.96683 13.00544,9.67243 3.054,2.88663 10.21696,6.46268 17.33547,8.65458 15.84904,4.88018 33.80034,13.04716 33.80034,15.37752 0,1.01326 -2.3638,1.84227 -5.25287,1.84227 -2.8891,0 -9.88646,1.95024 -15.5497,4.33387 -9.68216,4.07517 -12.13992,4.33387 -41.17297,4.33387 h -30.87615 z"
       id="path38" />
    <path
       style="opacity:1;fill:#00ffff;fill-opacity:1;stroke:#ffffff;stroke-width:0;stroke-linecap:butt;stroke-linejoin:round;stroke-dasharray:none;stroke-opacity:1"
       d="m 431.65329,984.88911 c 0,-1.35356 29.42775,-18.56254 44.86429,-26.23608 23.23079,-11.54807 39.37278,-15.2629 62.83248,-14.45993 16.8471,0.57664 19.21864,1.05838 22.73131,4.61747 3.85421,3.90513 3.86381,4.01677 0.5568,6.474 -1.85077,1.37519 -5.07976,2.50034 -7.17553,2.50034 -5.41011,0 -11.96609,5.71883 -10.6093,9.25458 1.45094,3.78108 10.42397,9.13673 21.14987,12.62353 4.76726,1.54975 9.40883,3.50194 10.31461,4.33819 0.9462,0.87358 -29.47735,1.52046 -71.50883,1.52046 -40.23564,0 -73.1557,-0.28465 -73.1557,-0.63256 z"
       id="path39" />
    <path
       style="opacity:1;fill:#00ffff;fill-opacity:1;stroke:#ffffff;stroke-width:0;stroke-linecap:butt;stroke-linejoin:round;stroke-dasharray:none;stroke-opacity:1"
       d="m 145.51244,983.82425 c -10.02629,-1.29262 -31.28857,-10.03395 -25.0309,-10.29068 1.9069,-0.0782 11.54727,1.81534 21.42305,4.20794 27.73716,6.71988 29.32586,9.39838 3.60785,6.08274 z"
       id="path40" />
    <path
       style="opacity:1;fill:#00ffff;fill-opacity:1;stroke:#ffffff;stroke-width:0;stroke-linecap:butt;stroke-linejoin:round;stroke-dasharray:none;stroke-opacity:1"
       d="m 312.03852,972.72444 c 0,-3.60837 7.93377,-9.40761 15.74942,-11.51215 3.64598,-0.98176 8.9224,-3.71474 11.72538,-6.07329 7.76359,-6.53263 21.83868,-5.45911 23.22082,1.77107 1.75838,9.19839 -6.13365,13.83539 -26.45772,15.54534 -7.13341,0.60017 -15.50515,1.48066 -18.60387,1.95665 -4.19772,0.6448 -5.63403,0.21457 -5.63403,-1.68762 z"
       id="path41" />
    <path
       style="opacity:1;fill:#00ffff;fill-opacity:1;stroke:#ffffff;stroke-width:0;stroke-linecap:butt;stroke-linejoin:round;stroke-dasharray:none;stroke-opacity:1"
       d="m 244.43018,984.72797 c 0,-0.94586 14.55381,-9.60758 16.1431,-9.60758 0.60683,0 2.31355,2.34028 3.79269,5.20064 l 2.68936,5.20064 h -11.31258 c -6.22191,0 -11.31257,-0.35716 -11.31257,-0.7937 z"
       id="path42" />
    <path
       style="opacity:1;fill:#ffffff;fill-opacity:1;stroke:#ffffff;stroke-width:0;stroke-linecap:butt;stroke-linejoin:round;stroke-dasharray:none;stroke-opacity:1"
       d="m 624.72997,634.15008 c 0.23065,-13.38868 -2.89861,-20.34699 -10.75681,-23.9191 -4.95346,-2.2517 -4.75687,-3.41346 1.30848,-7.73236 2.79012,-1.98675 8.92745,-8.47567 13.6385,-14.41981 21.83128,-27.54556 21.32061,-42.35691 -1.56898,-45.50503 -8.304,-1.14209 -9.11905,-0.8959 -14.59059,4.40734 -3.18741,3.08936 -10.26855,11.94856 -15.73588,19.68713 -12.10475,17.13329 -29.808,35.73945 -34.00511,35.73945 -2.55018,0 -3.08379,-1.51954 -3.08379,-8.7817 0,-4.82993 -0.76281,-10.20703 -1.69514,-11.94911 -1.45078,-2.7108 -0.85439,-3.32513 4.13711,-4.26154 12.50877,-2.34666 28.1845,-22.18382 24.70185,-31.25944 -1.61367,-4.20517 -7.97037,-5.81376 -15.46094,-3.91245 -5.36662,1.3622 -9.07409,4.51893 -18.51566,15.7652 -19.49915,23.22632 -24.37107,26.23353 -24.37107,15.04312 0,-11.9497 2.29672,-16.26515 16.80267,-31.57167 12.57421,-13.26815 14.2851,-15.79332 12.70322,-18.7491 -2.48984,-4.65231 -13.35323,-7.41377 -20.78287,-5.28298 -9.25515,2.65434 -17.69283,9.44795 -35.25096,28.38235 -17.1928,18.54043 -27.01076,26.45785 -33.98508,27.40632 -8.40745,1.14338 -5.30866,-4.33843 12.89496,-22.81133 20.01206,-20.3081 21.70904,-24.29375 10.34357,-24.29375 -3.3987,0 -10.24902,2.06993 -15.22295,4.59984 -15.6205,7.94512 -28.97928,8.59638 -28.97928,1.41276 0,-3.57136 10.2939,-12.94679 14.21514,-12.94679 6.32676,0 27.33288,-9.26259 49.35287,-21.76202 26.61331,-15.10678 43.00775,-21.71312 54.53537,-21.9757 13.26688,-0.30219 16.91771,4.53603 18.99861,25.1777 1.35596,13.45061 4.56625,21.2855 9.49682,23.17754 4.58275,1.75856 13.78791,-1.09674 23.30682,-7.22943 7.51952,-4.84455 11.12204,-6.05582 18.01111,-6.05582 8.03416,0 9.15734,0.56631 16.75345,8.44713 11.26761,11.68995 15.99887,24.45768 16.20088,43.71951 0.15426,14.70873 0.0674,15.0237 -6.92982,25.13644 -3.89731,5.63258 -11.30822,18.31439 -16.4687,28.1818 -5.16046,9.86741 -11.81918,20.77767 -14.79716,24.24503 l -5.41449,6.30428 z"
       id="path43" />
    <path
       style="opacity:1;fill:#ffffff;fill-opacity:1;stroke:#ffffff;stroke-width:0;stroke-linecap:butt;stroke-linejoin:round;stroke-dasharray:none;stroke-opacity:1"
       d="m 419.04217,344.54254 c -1.33603,-2.99864 -2.12403,-13.44957 -2.12403,-28.17015 0,-22.37908 0.22285,-23.85791 5.09415,-33.80417 6.26761,-12.79725 20.40914,-27.31148 29.54921,-30.32798 5.51073,-1.8187 10.84901,-1.82837 28.53956,-0.0517 11.96849,1.20201 33.2679,1.89835 47.33202,1.54741 14.06411,-0.35094 25.57053,-0.0801 25.56982,0.60177 -7.1e-4,0.68191 -2.34094,3.90455 -5.20051,7.16142 -7.42913,8.46132 -15.1248,9.89637 -46.22457,8.61975 -17.1513,-0.70405 -26.43874,-0.45926 -27.16508,0.71599 -0.60702,0.98218 1.26309,4.76397 4.15581,8.40398 3.77375,4.74864 5.11328,8.11247 4.74193,11.90795 -0.48003,4.90635 -1.06241,5.32892 -8.03501,5.83014 -4.87716,0.35059 -9.90028,-0.63853 -14.30177,-2.81621 l -6.78429,-3.35661 v 4.24973 c 0,7.01754 8.37863,13.72959 20.04579,16.0585 25.99333,5.18861 27.58904,5.80014 28.16564,10.79402 1.14533,9.91966 -8.86114,17.34283 -20.98045,15.5641 -2.77199,-0.40684 -12.47457,-5.7104 -21.56129,-11.78569 -9.08671,-6.07529 -17.4946,-11.04598 -18.6842,-11.04598 -3.93298,0 -5.56895,4.18546 -6.72549,17.20653 -1.2653,14.24547 -2.94602,17.46442 -9.11871,17.46442 -2.87249,0 -4.82348,-1.47902 -6.28853,-4.76725 z"
       id="path44" />
    <path
       style="opacity:1;fill:#ffffff;fill-opacity:1;stroke:#ffffff;stroke-width:0;stroke-linecap:butt;stroke-linejoin:round;stroke-dasharray:none;stroke-opacity:1"
       d="m 266.43489,982.48796 c -0.40482,-0.71509 -3.2281,-8.85381 -6.27397,-18.08605 -8.36844,-25.3653 -15.96483,-34.08592 -32.25935,-37.03363 -3.78085,-0.68397 -8.13877,-1.89456 -9.68425,-2.6902 -7.05169,-3.63033 -25.30361,-48.83375 -30.98675,-76.74301 -1.98183,-9.73255 -1.86754,-10.54485 2.65206,-18.84883 4.21457,-7.74355 4.86181,-11.22163 6.01098,-32.30105 0.77536,-14.22256 2.31694,-26.06973 3.87392,-29.77143 3.10647,-7.3856 12.09038,-15.33398 18.8626,-16.68842 2.70585,-0.54117 5.77431,-2.01366 6.8188,-3.27219 1.04449,-1.25853 7.29194,-4.34897 13.88322,-6.86764 10.45919,-3.99668 12.75583,-4.32473 18.04849,-2.57799 6.84737,2.25984 13.05275,9.12401 13.05275,14.43849 0,7.2828 -7.8776,19.3714 -22.78506,34.96486 -14.16282,14.81458 -15.35298,16.60574 -15.35298,23.1058 0,3.87546 0.80577,7.54428 1.7906,8.15294 2.36205,1.45983 10.00123,-3.17146 28.45071,-17.24837 13.14273,-10.02788 16.01231,-11.50845 21.41941,-11.0514 4.91369,0.41534 6.92878,1.70553 9.46059,6.05729 2.98159,5.12484 3.01696,5.91645 0.48334,10.81594 -1.50354,2.90752 -7.88833,10.95052 -14.18843,17.87335 -22.96928,25.23963 -26.13876,34.82957 -15.77899,47.74263 3.09872,3.86243 10.01495,12.35432 15.36941,18.87086 5.35446,6.51654 10.67367,13.65227 11.82047,15.85718 5.52778,10.62803 -0.0126,21.79895 -11.8652,23.92359 -10.67552,1.91363 -11.96709,3.5848 -4.39523,5.68702 3.76168,1.04436 8.24332,1.90321 9.95921,1.90852 4.40525,0.0137 12.87119,4.66454 14.81573,8.13923 1.51095,2.69991 2.83963,2.56261 16.98825,-1.75543 8.442,-2.57645 18.27446,-4.67456 21.8499,-4.66251 5.47234,0.0185 6.5008,0.60662 6.5008,3.71771 0,4.69034 -10.55077,14.74984 -16.9426,16.15372 -2.67671,0.58791 -7.37055,2.59158 -10.43077,4.45261 -4.94173,3.00525 -5.56403,4.25902 -5.56403,11.21013 v 7.82644 h -22.4338 c -12.3386,0 -22.76502,-0.58507 -23.16983,-1.30016 z"
       id="path45" />
    <path
       style="opacity:1;fill:#ffffff;fill-opacity:1;stroke:#ffffff;stroke-width:0;stroke-linecap:butt;stroke-linejoin:round;stroke-dasharray:none;stroke-opacity:1"
       d="m 971.03949,535.11226 c -16.58457,-17.09444 -29.27127,-46.58188 -32.32588,-75.13438 -1.55777,-14.56104 0.59199,-21.32378 9.56319,-30.08391 6.30194,-6.15368 7.87628,-6.80577 17.98534,-7.44947 9.51673,-0.60597 11.59447,-0.18981 14.7358,2.95151 3.57469,3.5747 3.65696,4.96333 3.65696,61.7308 0,41.20958 -0.55581,58.07383 -1.91396,58.07383 -1.05268,0 -6.31833,-4.53977 -11.70145,-10.08838 z"
       id="path46" />
  </g>
</svg>
