<svg xmlns="http://www.w3.org/2000/svg" viewBox="0 0 1440 320">
<path fill="#ffd700" fill-opacity="1" d="M0,32L21.8,48C43.6,64,87,96,131,122.7C174.5,149,218,171,262,186.7C305.5,203,349,213,393,218.7C436.4,224,480,224,524,192C567.3,160,611,96,655,90.7C698.2,85,742,139,785,181.3C829.1,224,873,256,916,234.7C960,213,1004,139,1047,106.7C1090.9,75,1135,85,1178,122.7C1221.8,160,1265,224,1309,256C1352.7,288,1396,288,1418,288L1440,288L1440,320L1418.2,320C1396.4,320,1353,320,1309,320C1265.5,320,1222,320,1178,320C1134.5,320,1091,320,1047,320C1003.6,320,960,320,916,320C872.7,320,829,320,785,320C741.8,320,698,320,655,320C610.9,320,567,320,524,320C480,320,436,320,393,320C349.1,320,305,320,262,320C218.2,320,175,320,131,320C87.3,320,44,320,22,320L0,320Z"></path></svg>