<svg id="visual" viewBox="0 0 2160 3840" xmlns="http://www.w3.org/2000/svg" xmlns:xlink="http://www.w3.org/1999/xlink" version="1.1"><rect x="0" y="0" width="2160" height="3840" fill="#ffffff"></rect><defs><linearGradient id="grad1_0" x1="0%" y1="0%" x2="100%" y2="100%"><stop offset="30%" stop-color="#ffb900" stop-opacity="1"></stop><stop offset="70%" stop-color="#ffb900" stop-opacity="1"></stop></linearGradient></defs><defs><linearGradient id="grad1_1" x1="0%" y1="0%" x2="100%" y2="100%"><stop offset="30%" stop-color="#ffb900" stop-opacity="1"></stop><stop offset="70%" stop-color="#ffdb93" stop-opacity="1"></stop></linearGradient></defs><defs><linearGradient id="grad1_2" x1="0%" y1="0%" x2="100%" y2="100%"><stop offset="30%" stop-color="#ffffff" stop-opacity="1"></stop><stop offset="70%" stop-color="#ffdb93" stop-opacity="1"></stop></linearGradient></defs><defs><linearGradient id="grad2_0" x1="0%" y1="0%" x2="100%" y2="100%"><stop offset="30%" stop-color="#ffb900" stop-opacity="1"></stop><stop offset="70%" stop-color="#ffb900" stop-opacity="1"></stop></linearGradient></defs><defs><linearGradient id="grad2_1" x1="0%" y1="0%" x2="100%" y2="100%"><stop offset="30%" stop-color="#ffdb93" stop-opacity="1"></stop><stop offset="70%" stop-color="#ffb900" stop-opacity="1"></stop></linearGradient></defs><defs><linearGradient id="grad2_2" x1="0%" y1="0%" x2="100%" y2="100%"><stop offset="30%" stop-color="#ffdb93" stop-opacity="1"></stop><stop offset="70%" stop-color="#ffffff" stop-opacity="1"></stop></linearGradient></defs><g transform="translate(2160, 0)"><path d="M0 1620C-246.8 1517.1 -493.6 1414.3 -746 1292.1C-998.4 1170 -1256.4 1028.6 -1403 810C-1549.6 591.4 -1584.8 295.7 -1620 0L0 0Z" fill="#ffedc9"></path><path d="M0 1080C-164.5 1011.4 -329.1 942.8 -497.3 861.4C-665.6 780 -837.6 685.7 -935.3 540C-1033 394.3 -1056.5 197.1 -1080 0L0 0Z" fill="#ffca5c"></path><path d="M0 540C-82.3 505.7 -164.5 471.4 -248.7 430.7C-332.8 390 -418.8 342.9 -467.7 270C-516.5 197.1 -528.3 98.6 -540 0L0 0Z" fill="#ffb900"></path></g><g transform="translate(0, 3840)"><path d="M0 -1620C239.3 -1504.2 478.7 -1388.4 732 -1267.9C985.3 -1147.3 1252.6 -1022.1 1403 -810C1553.3 -597.9 1586.6 -299 1620 0L0 0Z" fill="#ffedc9"></path><path d="M0 -1080C159.6 -1002.8 319.1 -925.6 488 -845.2C656.9 -764.9 835.1 -681.4 935.3 -540C1035.5 -398.6 1057.8 -199.3 1080 0L0 0Z" fill="#ffca5c"></path><path d="M0 -540C79.8 -501.4 159.6 -462.8 244 -422.6C328.4 -382.4 417.5 -340.7 467.7 -270C517.8 -199.3 528.9 -99.7 540 0L0 0Z" fill="#ffb900"></path></g></svg>