<svg id="visual" viewBox="0 0 3840 2160" xmlns="http://www.w3.org/2000/svg" xmlns:xlink="http://www.w3.org/1999/xlink" version="1.1"><rect x="0" y="0" width="3840" height="2160" fill="#ffffff"></rect><defs><linearGradient id="grad1_0" x1="43.8%" y1="0%" x2="100%" y2="100%"><stop offset="14.444444444444446%" stop-color="#ffb900" stop-opacity="1"></stop><stop offset="85.55555555555554%" stop-color="#ffb900" stop-opacity="1"></stop></linearGradient></defs><defs><linearGradient id="grad1_1" x1="43.8%" y1="0%" x2="100%" y2="100%"><stop offset="14.444444444444446%" stop-color="#ffb900" stop-opacity="1"></stop><stop offset="85.55555555555554%" stop-color="#ffdb93" stop-opacity="1"></stop></linearGradient></defs><defs><linearGradient id="grad1_2" x1="43.8%" y1="0%" x2="100%" y2="100%"><stop offset="14.444444444444446%" stop-color="#ffffff" stop-opacity="1"></stop><stop offset="85.55555555555554%" stop-color="#ffdb93" stop-opacity="1"></stop></linearGradient></defs><defs><linearGradient id="grad2_0" x1="0%" y1="0%" x2="56.3%" y2="100%"><stop offset="14.444444444444446%" stop-color="#ffb900" stop-opacity="1"></stop><stop offset="85.55555555555554%" stop-color="#ffb900" stop-opacity="1"></stop></linearGradient></defs><defs><linearGradient id="grad2_1" x1="0%" y1="0%" x2="56.3%" y2="100%"><stop offset="14.444444444444446%" stop-color="#ffdb93" stop-opacity="1"></stop><stop offset="85.55555555555554%" stop-color="#ffb900" stop-opacity="1"></stop></linearGradient></defs><defs><linearGradient id="grad2_2" x1="0%" y1="0%" x2="56.3%" y2="100%"><stop offset="14.444444444444446%" stop-color="#ffdb93" stop-opacity="1"></stop><stop offset="85.55555555555554%" stop-color="#ffffff" stop-opacity="1"></stop></linearGradient></defs><g transform="translate(3840, 0)"><path d="M0 1620C-214.8 1461.7 -429.6 1303.4 -686 1188.2C-942.4 1073 -1240.4 1000.8 -1403 810C-1565.6 619.2 -1592.8 309.6 -1620 0L0 0Z" fill="#ffedc9"></path><path d="M0 1080C-143.2 974.5 -286.4 868.9 -457.3 792.1C-628.3 715.3 -826.9 667.2 -935.3 540C-1043.7 412.8 -1061.9 206.4 -1080 0L0 0Z" fill="#ffca5c"></path><path d="M0 540C-71.6 487.2 -143.2 434.5 -228.7 396.1C-314.1 357.7 -413.5 333.6 -467.7 270C-521.9 206.4 -530.9 103.2 -540 0L0 0Z" fill="#ffb900"></path></g><g transform="translate(0, 2160)"><path d="M0 -1620C326.7 -1602.6 653.3 -1585.3 810 -1403C966.7 -1220.6 953.3 -873.3 1060 -612C1166.7 -350.7 1393.3 -175.3 1620 0L0 0Z" fill="#ffedc9"></path><path d="M0 -1080C217.8 -1068.4 435.6 -1056.9 540 -935.3C644.4 -813.8 635.6 -582.2 706.7 -408C777.8 -233.8 928.9 -116.9 1080 0L0 0Z" fill="#ffca5c"></path><path d="M0 -540C108.9 -534.2 217.8 -528.4 270 -467.7C322.2 -406.9 317.8 -291.1 353.3 -204C388.9 -116.9 464.4 -58.4 540 0L0 0Z" fill="#ffb900"></path></g></svg>