<svg id="visual" viewBox="0 0 960 540" width="960" height="540" xmlns="http://www.w3.org/2000/svg" xmlns:xlink="http://www.w3.org/1999/xlink" version="1.1"><rect x="0" y="0" width="960" height="540" fill="#ffffff"></rect><defs><linearGradient id="grad1_0" x1="43.8%" y1="0%" x2="100%" y2="100%"><stop offset="14.444444444444446%" stop-color="#ffb900" stop-opacity="1"></stop><stop offset="85.55555555555554%" stop-color="#ffb900" stop-opacity="1"></stop></linearGradient></defs><defs><linearGradient id="grad1_1" x1="43.8%" y1="0%" x2="100%" y2="100%"><stop offset="14.444444444444446%" stop-color="#ffb900" stop-opacity="1"></stop><stop offset="85.55555555555554%" stop-color="#ffdb93" stop-opacity="1"></stop></linearGradient></defs><defs><linearGradient id="grad1_2" x1="43.8%" y1="0%" x2="100%" y2="100%"><stop offset="14.444444444444446%" stop-color="#ffffff" stop-opacity="1"></stop><stop offset="85.55555555555554%" stop-color="#ffdb93" stop-opacity="1"></stop></linearGradient></defs><defs><linearGradient id="grad2_0" x1="0%" y1="0%" x2="56.3%" y2="100%"><stop offset="14.444444444444446%" stop-color="#ffb900" stop-opacity="1"></stop><stop offset="85.55555555555554%" stop-color="#ffb900" stop-opacity="1"></stop></linearGradient></defs><defs><linearGradient id="grad2_1" x1="0%" y1="0%" x2="56.3%" y2="100%"><stop offset="14.444444444444446%" stop-color="#ffdb93" stop-opacity="1"></stop><stop offset="85.55555555555554%" stop-color="#ffb900" stop-opacity="1"></stop></linearGradient></defs><defs><linearGradient id="grad2_2" x1="0%" y1="0%" x2="56.3%" y2="100%"><stop offset="14.444444444444446%" stop-color="#ffdb93" stop-opacity="1"></stop><stop offset="85.55555555555554%" stop-color="#ffffff" stop-opacity="1"></stop></linearGradient></defs><g transform="translate(960, 0)"><path d="M0 405C-71.7 394.9 -143.5 384.9 -202.5 350.7C-261.5 316.6 -307.8 258.5 -339.5 196C-371.1 133.5 -388.1 66.8 -405 0L0 0Z" fill="#ffedc9"></path><path d="M0 270C-47.8 263.3 -95.6 256.6 -135 233.8C-174.4 211.1 -205.2 172.3 -226.3 130.7C-247.4 89 -258.7 44.5 -270 0L0 0Z" fill="#ffca5c"></path><path d="M0 135C-23.9 131.6 -47.8 128.3 -67.5 116.9C-87.2 105.5 -102.6 86.2 -113.2 65.3C-123.7 44.5 -129.4 22.3 -135 0L0 0Z" fill="#ffb900"></path></g><g transform="translate(0, 540)"><path d="M0 -405C45.4 -351.1 90.9 -297.2 156 -270.2C221.1 -243.2 306 -243.1 350.7 -202.5C395.5 -161.9 400.3 -81 405 0L0 0Z" fill="#ffedc9"></path><path d="M0 -270C30.3 -234.1 60.6 -198.1 104 -180.1C147.4 -162.1 204 -162 233.8 -135C263.7 -108 266.8 -54 270 0L0 0Z" fill="#ffca5c"></path><path d="M0 -135C15.1 -117 30.3 -99.1 52 -90.1C73.7 -81.1 102 -81 116.9 -67.5C131.8 -54 133.4 -27 135 0L0 0Z" fill="#ffb900"></path></g></svg>