<svg id="visual" viewBox="0 0 960 540" width="960" height="540" xmlns="http://www.w3.org/2000/svg" xmlns:xlink="http://www.w3.org/1999/xlink" version="1.1"><rect x="0" y="0" width="960" height="540" fill="#ffc900"></rect><path d="M57 540L49.8 510C42.7 480 28.3 420 50.3 360C72.3 300 130.7 240 148.7 180C166.7 120 144.3 60 133.2 30L122 0L960 0L960 30C960 60 960 120 960 180C960 240 960 300 960 360C960 420 960 480 960 510L960 540Z" fill="#ffc900"></path><path d="M348 540L337.3 510C326.7 480 305.3 420 299.8 360C294.3 300 304.7 240 287 180C269.3 120 223.7 60 200.8 30L178 0L960 0L960 30C960 60 960 120 960 180C960 240 960 300 960 360C960 420 960 480 960 510L960 540Z" fill="#fc007e"></path><path d="M388 540L411.2 510C434.3 480 480.7 420 485 360C489.3 300 451.7 240 465.7 180C479.7 120 545.3 60 578.2 30L611 0L960 0L960 30C960 60 960 120 960 180C960 240 960 300 960 360C960 420 960 480 960 510L960 540Z" fill="#6600ff"></path><path d="M671 540L652.2 510C633.3 480 595.7 420 616.8 360C638 300 718 240 736 180C754 120 710 60 688 30L666 0L960 0L960 30C960 60 960 120 960 180C960 240 960 300 960 360C960 420 960 480 960 510L960 540Z" fill="#fc007e"></path><path d="M743 540L772.8 510C802.7 480 862.3 420 859.2 360C856 300 790 240 790.8 180C791.7 120 859.3 60 893.2 30L927 0L960 0L960 30C960 60 960 120 960 180C960 240 960 300 960 360C960 420 960 480 960 510L960 540Z" fill="#ffc900"></path></svg>