<svg id="visual" viewBox="0 0 960 540" width="960" height="540" xmlns="http://www.w3.org/2000/svg" xmlns:xlink="http://www.w3.org/1999/xlink" version="1.1"><rect x="0" y="0" width="960" height="540" fill="#ffc900"></rect><path d="M430 540L397.8 527.2C365.7 514.3 301.3 488.7 296 463C290.7 437.3 344.3 411.7 351.3 386C358.3 360.3 318.7 334.7 296.8 308.8C275 283 271 257 291 231.2C311 205.3 355 179.7 351.8 154C348.7 128.3 298.3 102.7 271.8 77C245.3 51.3 242.7 25.7 241.3 12.8L240 0L960 0L960 12.8C960 25.7 960 51.3 960 77C960 102.7 960 128.3 960 154C960 179.7 960 205.3 960 231.2C960 257 960 283 960 308.8C960 334.7 960 360.3 960 386C960 411.7 960 437.3 960 463C960 488.7 960 514.3 960 527.2L960 540Z" fill="#4facf7"></path><path d="M335 540L367.5 527.2C400 514.3 465 488.7 460.5 463C456 437.3 382 411.7 355.3 386C328.7 360.3 349.3 334.7 378 308.8C406.7 283 443.3 257 451.3 231.2C459.3 205.3 438.7 179.7 445 154C451.3 128.3 484.7 102.7 472.5 77C460.3 51.3 402.7 25.7 373.8 12.8L345 0L960 0L960 12.8C960 25.7 960 51.3 960 77C960 102.7 960 128.3 960 154C960 179.7 960 205.3 960 231.2C960 257 960 283 960 308.8C960 334.7 960 360.3 960 386C960 411.7 960 437.3 960 463C960 488.7 960 514.3 960 527.2L960 540Z" fill="#8795f9"></path><path d="M604 540L580.5 527.2C557 514.3 510 488.7 492.2 463C474.3 437.3 485.7 411.7 504.8 386C524 360.3 551 334.7 548.2 308.8C545.3 283 512.7 257 511.8 231.2C511 205.3 542 179.7 543.2 154C544.3 128.3 515.7 102.7 527.2 77C538.7 51.3 590.3 25.7 616.2 12.8L642 0L960 0L960 12.8C960 25.7 960 51.3 960 77C960 102.7 960 128.3 960 154C960 179.7 960 205.3 960 231.2C960 257 960 283 960 308.8C960 334.7 960 360.3 960 386C960 411.7 960 437.3 960 463C960 488.7 960 514.3 960 527.2L960 540Z" fill="#c373e0"></path><path d="M750 540L747.2 527.2C744.3 514.3 738.7 488.7 739.5 463C740.3 437.3 747.7 411.7 734.5 386C721.3 360.3 687.7 334.7 667.7 308.8C647.7 283 641.3 257 629 231.2C616.7 205.3 598.3 179.7 613.3 154C628.3 128.3 676.7 102.7 682.7 77C688.7 51.3 652.3 25.7 634.2 12.8L616 0L960 0L960 12.8C960 25.7 960 51.3 960 77C960 102.7 960 128.3 960 154C960 179.7 960 205.3 960 231.2C960 257 960 283 960 308.8C960 334.7 960 360.3 960 386C960 411.7 960 437.3 960 463C960 488.7 960 514.3 960 527.2L960 540Z" fill="#ef45ac"></path><path d="M831 540L823.3 527.2C815.7 514.3 800.3 488.7 784.7 463C769 437.3 753 411.7 767.3 386C781.7 360.3 826.3 334.7 828.5 308.8C830.7 283 790.3 257 770.5 231.2C750.7 205.3 751.3 179.7 759.7 154C768 128.3 784 102.7 803.2 77C822.3 51.3 844.7 25.7 855.8 12.8L867 0L960 0L960 12.8C960 25.7 960 51.3 960 77C960 102.7 960 128.3 960 154C960 179.7 960 205.3 960 231.2C960 257 960 283 960 308.8C960 334.7 960 360.3 960 386C960 411.7 960 437.3 960 463C960 488.7 960 514.3 960 527.2L960 540Z" fill="#ff0066"></path></svg>