<svg id="visual" viewBox="0 0 960 540" width="960" height="540" xmlns="http://www.w3.org/2000/svg" xmlns:xlink="http://www.w3.org/1999/xlink" version="1.1"><rect x="0" y="0" width="960" height="540" fill="#ffc900"></rect><path d="M0 240L22.8 222C45.7 204 91.3 168 137 165C182.7 162 228.3 192 274 195.8C319.7 199.7 365.3 177.3 411.2 165.2C457 153 503 151 548.8 162.3C594.7 173.7 640.3 198.3 686 196.5C731.7 194.7 777.3 166.3 823 151.5C868.7 136.7 914.3 135.3 937.2 134.7L960 134L960 541L937.2 541C914.3 541 868.7 541 823 541C777.3 541 731.7 541 686 541C640.3 541 594.7 541 548.8 541C503 541 457 541 411.2 541C365.3 541 319.7 541 274 541C228.3 541 182.7 541 137 541C91.3 541 45.7 541 22.8 541L0 541Z" fill="#4facf7"></path><path d="M0 187L22.8 205.3C45.7 223.7 91.3 260.3 137 257.8C182.7 255.3 228.3 213.7 274 198.7C319.7 183.7 365.3 195.3 411.2 211.3C457 227.3 503 247.7 548.8 252.2C594.7 256.7 640.3 245.3 686 249C731.7 252.7 777.3 271.3 823 264.5C868.7 257.7 914.3 225.3 937.2 209.2L960 193L960 541L937.2 541C914.3 541 868.7 541 823 541C777.3 541 731.7 541 686 541C640.3 541 594.7 541 548.8 541C503 541 457 541 411.2 541C365.3 541 319.7 541 274 541C228.3 541 182.7 541 137 541C91.3 541 45.7 541 22.8 541L0 541Z" fill="#8795f9"></path><path d="M0 338L22.8 324.8C45.7 311.7 91.3 285.3 137 275.3C182.7 265.3 228.3 271.7 274 282.5C319.7 293.3 365.3 308.7 411.2 307.2C457 305.7 503 287.3 548.8 286.8C594.7 286.3 640.3 303.7 686 304.2C731.7 304.7 777.3 288.3 823 294.7C868.7 301 914.3 330 937.2 344.5L960 359L960 541L937.2 541C914.3 541 868.7 541 823 541C777.3 541 731.7 541 686 541C640.3 541 594.7 541 548.8 541C503 541 457 541 411.2 541C365.3 541 319.7 541 274 541C228.3 541 182.7 541 137 541C91.3 541 45.7 541 22.8 541L0 541Z" fill="#c373e0"></path><path d="M0 420L22.8 418.5C45.7 417 91.3 414 137 414.5C182.7 415 228.3 419 274 411.5C319.7 404 365.3 385 411.2 373.8C457 362.7 503 359.3 548.8 352.5C594.7 345.7 640.3 335.3 686 343.7C731.7 352 777.3 379 823 382.3C868.7 385.7 914.3 365.3 937.2 355.2L960 345L960 541L937.2 541C914.3 541 868.7 541 823 541C777.3 541 731.7 541 686 541C640.3 541 594.7 541 548.8 541C503 541 457 541 411.2 541C365.3 541 319.7 541 274 541C228.3 541 182.7 541 137 541C91.3 541 45.7 541 22.8 541L0 541Z" fill="#ef45ac"></path><path d="M0 466L22.8 461.7C45.7 457.3 91.3 448.7 137 439.8C182.7 431 228.3 422 274 430.2C319.7 438.3 365.3 463.7 411.2 464.8C457 466 503 443 548.8 431.7C594.7 420.3 640.3 420.7 686 425.5C731.7 430.3 777.3 439.7 823 450.5C868.7 461.3 914.3 473.7 937.2 479.8L960 486L960 541L937.2 541C914.3 541 868.7 541 823 541C777.3 541 731.7 541 686 541C640.3 541 594.7 541 548.8 541C503 541 457 541 411.2 541C365.3 541 319.7 541 274 541C228.3 541 182.7 541 137 541C91.3 541 45.7 541 22.8 541L0 541Z" fill="#ff0066"></path></svg>